<?xml version="1.0" encoding="utf-8" standalone="no"?>
<!DOCTYPE svg PUBLIC "-//W3C//DTD SVG 1.1//EN"
  "http://www.w3.org/Graphics/SVG/1.1/DTD/svg11.dtd">
<svg height="207.83625pt" version="1.1" viewBox="0 0 406.885938 207.83625" width="406.885938pt" xmlns="http://www.w3.org/2000/svg" xmlns:xlink="http://www.w3.org/1999/xlink">
 <metadata>
  <rdf:RDF xmlns:cc="http://creativecommons.org/ns#" xmlns:dc="http://purl.org/dc/elements/1.1/" xmlns:rdf="http://www.w3.org/1999/02/22-rdf-syntax-ns#">
   <cc:Work>
    <dc:type rdf:resource="http://purl.org/dc/dcmitype/StillImage"/>
    <dc:date>2022-03-15T01:10:09.653742</dc:date>
    <dc:format>image/svg+xml</dc:format>
    <dc:creator>
     <cc:Agent>
      <dc:title>Matplotlib v3.4.0, https://matplotlib.org/</dc:title>
     </cc:Agent>
    </dc:creator>
   </cc:Work>
  </rdf:RDF>
 </metadata>
 <defs>
  <style type="text/css">*{stroke-linecap:butt;stroke-linejoin:round;}</style>
 </defs>
 <g id="figure_1">
  <g id="patch_1">
   <path d="M 0 207.83625 
L 406.885938 207.83625 
L 406.885938 0 
L 0 0 
z
" style="fill:none;"/>
  </g>
  <g id="axes_1">
   <g id="patch_2">
    <path d="M 52.160938 170.28 
L 386.960938 170.28 
L 386.960938 7.2 
L 52.160938 7.2 
z
" style="fill:#ffffff;"/>
   </g>
   <g id="matplotlib.axis_1">
    <g id="xtick_1">
     <g id="line2d_1">
      <path clip-path="url(#p6344d830a2)" d="M 118.852829 170.28 
L 118.852829 7.2 
" style="fill:none;stroke:#b0b0b0;stroke-linecap:square;stroke-width:0.8;"/>
     </g>
     <g id="line2d_2">
      <defs>
       <path d="M 0 0 
L 0 3.5 
" id="m70f7fe56c3" style="stroke:#000000;stroke-width:0.8;"/>
      </defs>
      <g>
       <use style="stroke:#000000;stroke-width:0.8;" x="118.852829" xlink:href="#m70f7fe56c3" y="170.28"/>
      </g>
     </g>
     <g id="text_1">
      <!-- 200 -->
      <g transform="translate(109.309079 184.878438)scale(0.1 -0.1)">
       <defs>
        <path d="M 1228 531 
L 3431 531 
L 3431 0 
L 469 0 
L 469 531 
Q 828 903 1448 1529 
Q 2069 2156 2228 2338 
Q 2531 2678 2651 2914 
Q 2772 3150 2772 3378 
Q 2772 3750 2511 3984 
Q 2250 4219 1831 4219 
Q 1534 4219 1204 4116 
Q 875 4013 500 3803 
L 500 4441 
Q 881 4594 1212 4672 
Q 1544 4750 1819 4750 
Q 2544 4750 2975 4387 
Q 3406 4025 3406 3419 
Q 3406 3131 3298 2873 
Q 3191 2616 2906 2266 
Q 2828 2175 2409 1742 
Q 1991 1309 1228 531 
z
" id="DejaVuSans-32" transform="scale(0.015625)"/>
        <path d="M 2034 4250 
Q 1547 4250 1301 3770 
Q 1056 3291 1056 2328 
Q 1056 1369 1301 889 
Q 1547 409 2034 409 
Q 2525 409 2770 889 
Q 3016 1369 3016 2328 
Q 3016 3291 2770 3770 
Q 2525 4250 2034 4250 
z
M 2034 4750 
Q 2819 4750 3233 4129 
Q 3647 3509 3647 2328 
Q 3647 1150 3233 529 
Q 2819 -91 2034 -91 
Q 1250 -91 836 529 
Q 422 1150 422 2328 
Q 422 3509 836 4129 
Q 1250 4750 2034 4750 
z
" id="DejaVuSans-30" transform="scale(0.015625)"/>
       </defs>
       <use xlink:href="#DejaVuSans-32"/>
       <use x="63.623047" xlink:href="#DejaVuSans-30"/>
       <use x="127.246094" xlink:href="#DejaVuSans-30"/>
      </g>
     </g>
    </g>
    <g id="xtick_2">
     <g id="line2d_3">
      <path clip-path="url(#p6344d830a2)" d="M 185.879856 170.28 
L 185.879856 7.2 
" style="fill:none;stroke:#b0b0b0;stroke-linecap:square;stroke-width:0.8;"/>
     </g>
     <g id="line2d_4">
      <g>
       <use style="stroke:#000000;stroke-width:0.8;" x="185.879856" xlink:href="#m70f7fe56c3" y="170.28"/>
      </g>
     </g>
     <g id="text_2">
      <!-- 400 -->
      <g transform="translate(176.336106 184.878438)scale(0.1 -0.1)">
       <defs>
        <path d="M 2419 4116 
L 825 1625 
L 2419 1625 
L 2419 4116 
z
M 2253 4666 
L 3047 4666 
L 3047 1625 
L 3713 1625 
L 3713 1100 
L 3047 1100 
L 3047 0 
L 2419 0 
L 2419 1100 
L 313 1100 
L 313 1709 
L 2253 4666 
z
" id="DejaVuSans-34" transform="scale(0.015625)"/>
       </defs>
       <use xlink:href="#DejaVuSans-34"/>
       <use x="63.623047" xlink:href="#DejaVuSans-30"/>
       <use x="127.246094" xlink:href="#DejaVuSans-30"/>
      </g>
     </g>
    </g>
    <g id="xtick_3">
     <g id="line2d_5">
      <path clip-path="url(#p6344d830a2)" d="M 252.906883 170.28 
L 252.906883 7.2 
" style="fill:none;stroke:#b0b0b0;stroke-linecap:square;stroke-width:0.8;"/>
     </g>
     <g id="line2d_6">
      <g>
       <use style="stroke:#000000;stroke-width:0.8;" x="252.906883" xlink:href="#m70f7fe56c3" y="170.28"/>
      </g>
     </g>
     <g id="text_3">
      <!-- 600 -->
      <g transform="translate(243.363133 184.878438)scale(0.1 -0.1)">
       <defs>
        <path d="M 2113 2584 
Q 1688 2584 1439 2293 
Q 1191 2003 1191 1497 
Q 1191 994 1439 701 
Q 1688 409 2113 409 
Q 2538 409 2786 701 
Q 3034 994 3034 1497 
Q 3034 2003 2786 2293 
Q 2538 2584 2113 2584 
z
M 3366 4563 
L 3366 3988 
Q 3128 4100 2886 4159 
Q 2644 4219 2406 4219 
Q 1781 4219 1451 3797 
Q 1122 3375 1075 2522 
Q 1259 2794 1537 2939 
Q 1816 3084 2150 3084 
Q 2853 3084 3261 2657 
Q 3669 2231 3669 1497 
Q 3669 778 3244 343 
Q 2819 -91 2113 -91 
Q 1303 -91 875 529 
Q 447 1150 447 2328 
Q 447 3434 972 4092 
Q 1497 4750 2381 4750 
Q 2619 4750 2861 4703 
Q 3103 4656 3366 4563 
z
" id="DejaVuSans-36" transform="scale(0.015625)"/>
       </defs>
       <use xlink:href="#DejaVuSans-36"/>
       <use x="63.623047" xlink:href="#DejaVuSans-30"/>
       <use x="127.246094" xlink:href="#DejaVuSans-30"/>
      </g>
     </g>
    </g>
    <g id="xtick_4">
     <g id="line2d_7">
      <path clip-path="url(#p6344d830a2)" d="M 319.93391 170.28 
L 319.93391 7.2 
" style="fill:none;stroke:#b0b0b0;stroke-linecap:square;stroke-width:0.8;"/>
     </g>
     <g id="line2d_8">
      <g>
       <use style="stroke:#000000;stroke-width:0.8;" x="319.93391" xlink:href="#m70f7fe56c3" y="170.28"/>
      </g>
     </g>
     <g id="text_4">
      <!-- 800 -->
      <g transform="translate(310.39016 184.878438)scale(0.1 -0.1)">
       <defs>
        <path d="M 2034 2216 
Q 1584 2216 1326 1975 
Q 1069 1734 1069 1313 
Q 1069 891 1326 650 
Q 1584 409 2034 409 
Q 2484 409 2743 651 
Q 3003 894 3003 1313 
Q 3003 1734 2745 1975 
Q 2488 2216 2034 2216 
z
M 1403 2484 
Q 997 2584 770 2862 
Q 544 3141 544 3541 
Q 544 4100 942 4425 
Q 1341 4750 2034 4750 
Q 2731 4750 3128 4425 
Q 3525 4100 3525 3541 
Q 3525 3141 3298 2862 
Q 3072 2584 2669 2484 
Q 3125 2378 3379 2068 
Q 3634 1759 3634 1313 
Q 3634 634 3220 271 
Q 2806 -91 2034 -91 
Q 1263 -91 848 271 
Q 434 634 434 1313 
Q 434 1759 690 2068 
Q 947 2378 1403 2484 
z
M 1172 3481 
Q 1172 3119 1398 2916 
Q 1625 2713 2034 2713 
Q 2441 2713 2670 2916 
Q 2900 3119 2900 3481 
Q 2900 3844 2670 4047 
Q 2441 4250 2034 4250 
Q 1625 4250 1398 4047 
Q 1172 3844 1172 3481 
z
" id="DejaVuSans-38" transform="scale(0.015625)"/>
       </defs>
       <use xlink:href="#DejaVuSans-38"/>
       <use x="63.623047" xlink:href="#DejaVuSans-30"/>
       <use x="127.246094" xlink:href="#DejaVuSans-30"/>
      </g>
     </g>
    </g>
    <g id="xtick_5">
     <g id="line2d_9">
      <path clip-path="url(#p6344d830a2)" d="M 386.960938 170.28 
L 386.960938 7.2 
" style="fill:none;stroke:#b0b0b0;stroke-linecap:square;stroke-width:0.8;"/>
     </g>
     <g id="line2d_10">
      <g>
       <use style="stroke:#000000;stroke-width:0.8;" x="386.960938" xlink:href="#m70f7fe56c3" y="170.28"/>
      </g>
     </g>
     <g id="text_5">
      <!-- 1000 -->
      <g transform="translate(374.235937 184.878438)scale(0.1 -0.1)">
       <defs>
        <path d="M 794 531 
L 1825 531 
L 1825 4091 
L 703 3866 
L 703 4441 
L 1819 4666 
L 2450 4666 
L 2450 531 
L 3481 531 
L 3481 0 
L 794 0 
L 794 531 
z
" id="DejaVuSans-31" transform="scale(0.015625)"/>
       </defs>
       <use xlink:href="#DejaVuSans-31"/>
       <use x="63.623047" xlink:href="#DejaVuSans-30"/>
       <use x="127.246094" xlink:href="#DejaVuSans-30"/>
       <use x="190.869141" xlink:href="#DejaVuSans-30"/>
      </g>
     </g>
    </g>
    <g id="text_6">
     <!-- time -->
     <g transform="translate(208.264844 198.556563)scale(0.1 -0.1)">
      <defs>
       <path d="M 1172 4494 
L 1172 3500 
L 2356 3500 
L 2356 3053 
L 1172 3053 
L 1172 1153 
Q 1172 725 1289 603 
Q 1406 481 1766 481 
L 2356 481 
L 2356 0 
L 1766 0 
Q 1100 0 847 248 
Q 594 497 594 1153 
L 594 3053 
L 172 3053 
L 172 3500 
L 594 3500 
L 594 4494 
L 1172 4494 
z
" id="DejaVuSans-74" transform="scale(0.015625)"/>
       <path d="M 603 3500 
L 1178 3500 
L 1178 0 
L 603 0 
L 603 3500 
z
M 603 4863 
L 1178 4863 
L 1178 4134 
L 603 4134 
L 603 4863 
z
" id="DejaVuSans-69" transform="scale(0.015625)"/>
       <path d="M 3328 2828 
Q 3544 3216 3844 3400 
Q 4144 3584 4550 3584 
Q 5097 3584 5394 3201 
Q 5691 2819 5691 2113 
L 5691 0 
L 5113 0 
L 5113 2094 
Q 5113 2597 4934 2840 
Q 4756 3084 4391 3084 
Q 3944 3084 3684 2787 
Q 3425 2491 3425 1978 
L 3425 0 
L 2847 0 
L 2847 2094 
Q 2847 2600 2669 2842 
Q 2491 3084 2119 3084 
Q 1678 3084 1418 2786 
Q 1159 2488 1159 1978 
L 1159 0 
L 581 0 
L 581 3500 
L 1159 3500 
L 1159 2956 
Q 1356 3278 1631 3431 
Q 1906 3584 2284 3584 
Q 2666 3584 2933 3390 
Q 3200 3197 3328 2828 
z
" id="DejaVuSans-6d" transform="scale(0.015625)"/>
       <path d="M 3597 1894 
L 3597 1613 
L 953 1613 
Q 991 1019 1311 708 
Q 1631 397 2203 397 
Q 2534 397 2845 478 
Q 3156 559 3463 722 
L 3463 178 
Q 3153 47 2828 -22 
Q 2503 -91 2169 -91 
Q 1331 -91 842 396 
Q 353 884 353 1716 
Q 353 2575 817 3079 
Q 1281 3584 2069 3584 
Q 2775 3584 3186 3129 
Q 3597 2675 3597 1894 
z
M 3022 2063 
Q 3016 2534 2758 2815 
Q 2500 3097 2075 3097 
Q 1594 3097 1305 2825 
Q 1016 2553 972 2059 
L 3022 2063 
z
" id="DejaVuSans-65" transform="scale(0.015625)"/>
      </defs>
      <use xlink:href="#DejaVuSans-74"/>
      <use x="39.208984" xlink:href="#DejaVuSans-69"/>
      <use x="66.992188" xlink:href="#DejaVuSans-6d"/>
      <use x="164.404297" xlink:href="#DejaVuSans-65"/>
     </g>
    </g>
   </g>
   <g id="matplotlib.axis_2">
    <g id="ytick_1">
     <g id="line2d_11">
      <path clip-path="url(#p6344d830a2)" d="M 52.160938 165.38976 
L 386.960938 165.38976 
" style="fill:none;stroke:#b0b0b0;stroke-linecap:square;stroke-width:0.8;"/>
     </g>
     <g id="line2d_12">
      <defs>
       <path d="M 0 0 
L -3.5 0 
" id="m9c827c7923" style="stroke:#000000;stroke-width:0.8;"/>
      </defs>
      <g>
       <use style="stroke:#000000;stroke-width:0.8;" x="52.160938" xlink:href="#m9c827c7923" y="165.38976"/>
      </g>
     </g>
     <g id="text_7">
      <!-- −1.5 -->
      <g transform="translate(20.878125 169.188979)scale(0.1 -0.1)">
       <defs>
        <path d="M 678 2272 
L 4684 2272 
L 4684 1741 
L 678 1741 
L 678 2272 
z
" id="DejaVuSans-2212" transform="scale(0.015625)"/>
        <path d="M 684 794 
L 1344 794 
L 1344 0 
L 684 0 
L 684 794 
z
" id="DejaVuSans-2e" transform="scale(0.015625)"/>
        <path d="M 691 4666 
L 3169 4666 
L 3169 4134 
L 1269 4134 
L 1269 2991 
Q 1406 3038 1543 3061 
Q 1681 3084 1819 3084 
Q 2600 3084 3056 2656 
Q 3513 2228 3513 1497 
Q 3513 744 3044 326 
Q 2575 -91 1722 -91 
Q 1428 -91 1123 -41 
Q 819 9 494 109 
L 494 744 
Q 775 591 1075 516 
Q 1375 441 1709 441 
Q 2250 441 2565 725 
Q 2881 1009 2881 1497 
Q 2881 1984 2565 2268 
Q 2250 2553 1709 2553 
Q 1456 2553 1204 2497 
Q 953 2441 691 2322 
L 691 4666 
z
" id="DejaVuSans-35" transform="scale(0.015625)"/>
       </defs>
       <use xlink:href="#DejaVuSans-2212"/>
       <use x="83.789062" xlink:href="#DejaVuSans-31"/>
       <use x="147.412109" xlink:href="#DejaVuSans-2e"/>
       <use x="179.199219" xlink:href="#DejaVuSans-35"/>
      </g>
     </g>
    </g>
    <g id="ytick_2">
     <g id="line2d_13">
      <path clip-path="url(#p6344d830a2)" d="M 52.160938 141.357996 
L 386.960938 141.357996 
" style="fill:none;stroke:#b0b0b0;stroke-linecap:square;stroke-width:0.8;"/>
     </g>
     <g id="line2d_14">
      <g>
       <use style="stroke:#000000;stroke-width:0.8;" x="52.160938" xlink:href="#m9c827c7923" y="141.357996"/>
      </g>
     </g>
     <g id="text_8">
      <!-- −1.0 -->
      <g transform="translate(20.878125 145.157215)scale(0.1 -0.1)">
       <use xlink:href="#DejaVuSans-2212"/>
       <use x="83.789062" xlink:href="#DejaVuSans-31"/>
       <use x="147.412109" xlink:href="#DejaVuSans-2e"/>
       <use x="179.199219" xlink:href="#DejaVuSans-30"/>
      </g>
     </g>
    </g>
    <g id="ytick_3">
     <g id="line2d_15">
      <path clip-path="url(#p6344d830a2)" d="M 52.160938 117.326232 
L 386.960938 117.326232 
" style="fill:none;stroke:#b0b0b0;stroke-linecap:square;stroke-width:0.8;"/>
     </g>
     <g id="line2d_16">
      <g>
       <use style="stroke:#000000;stroke-width:0.8;" x="52.160938" xlink:href="#m9c827c7923" y="117.326232"/>
      </g>
     </g>
     <g id="text_9">
      <!-- −0.5 -->
      <g transform="translate(20.878125 121.125451)scale(0.1 -0.1)">
       <use xlink:href="#DejaVuSans-2212"/>
       <use x="83.789062" xlink:href="#DejaVuSans-30"/>
       <use x="147.412109" xlink:href="#DejaVuSans-2e"/>
       <use x="179.199219" xlink:href="#DejaVuSans-35"/>
      </g>
     </g>
    </g>
    <g id="ytick_4">
     <g id="line2d_17">
      <path clip-path="url(#p6344d830a2)" d="M 52.160938 93.294468 
L 386.960938 93.294468 
" style="fill:none;stroke:#b0b0b0;stroke-linecap:square;stroke-width:0.8;"/>
     </g>
     <g id="line2d_18">
      <g>
       <use style="stroke:#000000;stroke-width:0.8;" x="52.160938" xlink:href="#m9c827c7923" y="93.294468"/>
      </g>
     </g>
     <g id="text_10">
      <!-- 0.0 -->
      <g transform="translate(29.257812 97.093687)scale(0.1 -0.1)">
       <use xlink:href="#DejaVuSans-30"/>
       <use x="63.623047" xlink:href="#DejaVuSans-2e"/>
       <use x="95.410156" xlink:href="#DejaVuSans-30"/>
      </g>
     </g>
    </g>
    <g id="ytick_5">
     <g id="line2d_19">
      <path clip-path="url(#p6344d830a2)" d="M 52.160938 69.262704 
L 386.960938 69.262704 
" style="fill:none;stroke:#b0b0b0;stroke-linecap:square;stroke-width:0.8;"/>
     </g>
     <g id="line2d_20">
      <g>
       <use style="stroke:#000000;stroke-width:0.8;" x="52.160938" xlink:href="#m9c827c7923" y="69.262704"/>
      </g>
     </g>
     <g id="text_11">
      <!-- 0.5 -->
      <g transform="translate(29.257812 73.061923)scale(0.1 -0.1)">
       <use xlink:href="#DejaVuSans-30"/>
       <use x="63.623047" xlink:href="#DejaVuSans-2e"/>
       <use x="95.410156" xlink:href="#DejaVuSans-35"/>
      </g>
     </g>
    </g>
    <g id="ytick_6">
     <g id="line2d_21">
      <path clip-path="url(#p6344d830a2)" d="M 52.160938 45.23094 
L 386.960938 45.23094 
" style="fill:none;stroke:#b0b0b0;stroke-linecap:square;stroke-width:0.8;"/>
     </g>
     <g id="line2d_22">
      <g>
       <use style="stroke:#000000;stroke-width:0.8;" x="52.160938" xlink:href="#m9c827c7923" y="45.23094"/>
      </g>
     </g>
     <g id="text_12">
      <!-- 1.0 -->
      <g transform="translate(29.257812 49.030159)scale(0.1 -0.1)">
       <use xlink:href="#DejaVuSans-31"/>
       <use x="63.623047" xlink:href="#DejaVuSans-2e"/>
       <use x="95.410156" xlink:href="#DejaVuSans-30"/>
      </g>
     </g>
    </g>
    <g id="ytick_7">
     <g id="line2d_23">
      <path clip-path="url(#p6344d830a2)" d="M 52.160938 21.199176 
L 386.960938 21.199176 
" style="fill:none;stroke:#b0b0b0;stroke-linecap:square;stroke-width:0.8;"/>
     </g>
     <g id="line2d_24">
      <g>
       <use style="stroke:#000000;stroke-width:0.8;" x="52.160938" xlink:href="#m9c827c7923" y="21.199176"/>
      </g>
     </g>
     <g id="text_13">
      <!-- 1.5 -->
      <g transform="translate(29.257812 24.998395)scale(0.1 -0.1)">
       <use xlink:href="#DejaVuSans-31"/>
       <use x="63.623047" xlink:href="#DejaVuSans-2e"/>
       <use x="95.410156" xlink:href="#DejaVuSans-35"/>
      </g>
     </g>
    </g>
    <g id="text_14">
     <!-- x -->
     <g transform="translate(14.798438 91.699375)rotate(-90)scale(0.1 -0.1)">
      <defs>
       <path d="M 3513 3500 
L 2247 1797 
L 3578 0 
L 2900 0 
L 1881 1375 
L 863 0 
L 184 0 
L 1544 1831 
L 300 3500 
L 978 3500 
L 1906 2253 
L 2834 3500 
L 3513 3500 
z
" id="DejaVuSans-78" transform="scale(0.015625)"/>
      </defs>
      <use xlink:href="#DejaVuSans-78"/>
     </g>
    </g>
   </g>
   <g id="line2d_25">
    <path clip-path="url(#p6344d830a2)" d="M 52.160938 84.560645 
L 52.496073 79.168951 
L 52.831208 93.834113 
L 53.166343 102.200572 
L 53.501478 90.25661 
L 53.836613 88.720993 
L 54.171748 97.996178 
L 54.506883 77.056933 
L 55.177154 88.633044 
L 55.512289 92.657038 
L 55.847424 89.591223 
L 56.182559 78.926548 
L 56.517694 86.675966 
L 56.852829 90.287321 
L 57.187965 96.69651 
L 57.5231 68.873236 
L 57.858235 78.27062 
L 58.19337 92.029942 
L 58.528505 81.072309 
L 58.86364 78.292207 
L 59.198775 92.167553 
L 59.869046 63.863192 
L 60.204181 88.909376 
L 60.539316 85.452989 
L 60.874451 80.621643 
L 61.209586 65.019028 
L 61.544721 73.001854 
L 61.879856 86.977319 
L 62.214992 85.944995 
L 62.550127 70.676996 
L 62.885262 69.19914 
L 63.220397 81.772853 
L 63.555532 65.192455 
L 63.890667 71.997482 
L 64.225802 90.190956 
L 64.560938 69.763659 
L 64.896073 82.578192 
L 65.231208 79.33306 
L 65.566343 60.451404 
L 65.901478 75.110265 
L 66.236613 68.803458 
L 66.571748 80.885271 
L 66.906883 73.172955 
L 67.242019 73.404288 
L 67.577154 50.078445 
L 68.247424 89.04158 
L 68.582559 70.234687 
L 68.917694 74.449598 
L 69.252829 67.42916 
L 69.587965 75.326059 
L 69.9231 70.834286 
L 70.258235 62.924872 
L 70.59337 77.231874 
L 70.928505 69.935777 
L 71.26364 69.220887 
L 71.598775 60.514739 
L 71.93391 58.333909 
L 72.269046 67.860839 
L 72.604181 65.369844 
L 72.939316 65.346828 
L 73.274451 64.926577 
L 73.609586 83.990528 
L 74.279856 64.813919 
L 74.614992 53.078648 
L 74.950127 70.848024 
L 75.285262 60.274044 
L 75.620397 39.821338 
L 75.955532 51.053809 
L 76.290667 55.719584 
L 76.625802 67.179189 
L 76.960938 49.855978 
L 77.296073 60.813739 
L 77.631208 55.841542 
L 77.966343 75.838358 
L 78.301478 57.85169 
L 78.636613 50.226357 
L 78.971748 60.275662 
L 79.306883 56.396435 
L 79.642019 39.590996 
L 79.977154 59.624073 
L 80.312289 54.674456 
L 80.647424 53.554412 
L 80.982559 59.25567 
L 81.317694 51.119092 
L 81.652829 58.901955 
L 81.987965 59.77871 
L 82.3231 48.634581 
L 82.658235 46.728388 
L 82.99337 64.478407 
L 83.328505 61.245443 
L 83.66364 51.684273 
L 83.998775 74.127585 
L 84.33391 47.548861 
L 84.669046 61.343363 
L 85.004181 48.175403 
L 85.339316 51.168762 
L 85.674451 43.849856 
L 86.344721 61.799667 
L 86.679856 31.887735 
L 87.014992 48.574634 
L 87.350127 57.433528 
L 87.685262 59.266072 
L 88.020397 54.720419 
L 88.355532 64.988758 
L 88.690667 42.167055 
L 89.360938 65.06137 
L 89.696073 53.602682 
L 90.031208 52.256384 
L 90.366343 47.295454 
L 90.701478 39.384168 
L 91.036613 48.750445 
L 91.371748 71.85692 
L 91.706883 42.42734 
L 92.042019 58.394597 
L 92.377154 34.61948 
L 92.712289 34.886348 
L 93.047424 57.948775 
L 93.382559 64.174751 
L 94.052829 42.293955 
L 94.387965 47.538215 
L 95.058235 65.034329 
L 95.39337 40.268655 
L 96.06364 51.154642 
L 96.398775 52.924553 
L 96.73391 28.572302 
L 97.069046 36.367879 
L 97.404181 34.227081 
L 97.739316 37.373667 
L 98.074451 55.927082 
L 98.409586 32.379015 
L 98.744721 49.418292 
L 99.079856 39.226357 
L 99.750127 55.733243 
L 100.085262 60.592135 
L 100.420397 49.656321 
L 100.755532 33.929284 
L 101.090667 34.072714 
L 101.425802 62.112615 
L 101.760938 46.470412 
L 102.096073 59.798159 
L 102.431208 46.354321 
L 102.766343 38.285026 
L 103.101478 41.886189 
L 103.436613 58.555046 
L 104.106883 49.505422 
L 104.442019 54.684537 
L 104.777154 24.981613 
L 105.112289 41.874512 
L 105.447424 30.509704 
L 105.782559 48.882126 
L 106.117694 45.652732 
L 106.452829 26.522663 
L 106.787965 39.765176 
L 107.1231 44.421351 
L 107.458235 36.642368 
L 107.79337 56.674242 
L 108.128505 36.351744 
L 108.46364 46.935929 
L 108.798775 39.267771 
L 109.13391 40.363245 
L 109.469046 46.584236 
L 110.139316 39.924316 
L 110.474451 33.567694 
L 110.809586 43.35103 
L 111.144721 49.865838 
L 111.479856 65.482325 
L 111.814992 44.113745 
L 112.150127 43.162938 
L 112.485262 27.705302 
L 112.820397 55.96368 
L 113.155532 50.876116 
L 113.490667 39.683535 
L 113.825802 43.213748 
L 114.160938 14.612727 
L 114.496073 54.878419 
L 114.831208 58.462542 
L 115.836613 45.953408 
L 116.171748 58.456084 
L 116.506883 57.513112 
L 116.842019 68.026923 
L 117.177154 61.680711 
L 117.512289 42.302263 
L 117.847424 42.672408 
L 118.182559 32.113963 
L 118.852829 63.934193 
L 119.5231 22.894204 
L 119.858235 45.589156 
L 120.19337 53.854687 
L 120.528505 42.180606 
L 120.86364 52.758818 
L 121.198775 43.44735 
L 121.53391 51.297183 
L 121.869046 37.558883 
L 122.204181 49.724981 
L 122.539316 54.116832 
L 122.874451 52.124646 
L 123.209586 56.899312 
L 123.544721 38.83947 
L 123.879856 68.421528 
L 124.214992 48.813511 
L 124.550127 48.411701 
L 124.885262 47.188067 
L 125.220397 39.261061 
L 125.555532 47.508292 
L 125.890667 35.581735 
L 126.225802 64.623332 
L 126.560938 69.879856 
L 126.896073 65.597249 
L 127.231208 52.498249 
L 127.566343 54.231092 
L 127.901478 45.399655 
L 128.236613 48.51904 
L 128.571748 43.445459 
L 129.242019 64.724806 
L 129.577154 70.065484 
L 129.912289 61.260071 
L 130.247424 60.508591 
L 130.917694 67.933 
L 131.9231 60.605184 
L 132.258235 69.879787 
L 132.59337 62.848788 
L 132.928505 63.843571 
L 133.26364 55.010776 
L 133.598775 57.303663 
L 133.93391 49.719232 
L 134.269046 81.528522 
L 134.604181 49.556837 
L 134.939316 69.426738 
L 135.609586 49.585777 
L 135.944721 67.909901 
L 136.279856 68.068159 
L 136.614992 67.484457 
L 136.950127 75.376328 
L 137.620397 48.443297 
L 137.955532 70.006839 
L 138.290667 80.119311 
L 138.625802 58.217145 
L 138.960938 80.745571 
L 139.296073 80.062575 
L 139.631208 70.927657 
L 139.966343 85.590878 
L 140.301478 73.238652 
L 140.636613 75.454943 
L 140.971748 68.574743 
L 141.306883 72.065832 
L 141.642019 69.892875 
L 141.977154 61.561237 
L 142.312289 56.75435 
L 142.647424 48.331017 
L 142.982559 82.079197 
L 143.317694 66.297128 
L 143.652829 76.911777 
L 143.987965 80.960928 
L 144.3231 64.773691 
L 144.658235 61.889894 
L 144.99337 78.213116 
L 145.328505 83.266559 
L 145.66364 66.371756 
L 145.998775 72.857993 
L 146.33391 77.081013 
L 146.669046 90.091997 
L 147.004181 65.667489 
L 147.339316 76.878252 
L 147.674451 78.123628 
L 148.009586 86.914234 
L 148.344721 91.27245 
L 149.350127 76.798786 
L 149.685262 94.1776 
L 150.355532 70.934074 
L 150.690667 74.37398 
L 151.025802 97.938762 
L 151.360938 79.089378 
L 151.696073 83.018945 
L 152.031208 89.096103 
L 152.366343 84.494024 
L 152.701478 77.142397 
L 153.036613 92.698678 
L 153.371748 88.288963 
L 153.706883 106.151552 
L 154.042019 82.431413 
L 154.377154 97.500425 
L 154.712289 102.880633 
L 155.047424 100.910681 
L 155.382559 73.027713 
L 155.717694 104.600462 
L 156.387965 109.192485 
L 156.7231 95.545291 
L 157.058235 90.507094 
L 157.728505 115.547766 
L 158.06364 95.053245 
L 158.398775 96.822015 
L 158.73391 90.608151 
L 159.069046 95.523226 
L 159.404181 108.668537 
L 159.739316 83.837462 
L 160.074451 87.393185 
L 160.409586 104.503144 
L 160.744721 102.845846 
L 161.079856 94.028377 
L 161.414992 99.231809 
L 161.750127 93.271284 
L 162.085262 94.845121 
L 162.420397 97.77865 
L 162.755532 108.106427 
L 163.090667 104.582468 
L 163.425802 97.977475 
L 163.760938 99.556706 
L 164.096073 92.07662 
L 164.431208 109.725205 
L 164.766343 110.273107 
L 165.101478 114.711346 
L 165.436613 91.64193 
L 165.771748 104.687426 
L 166.106883 99.076693 
L 166.442019 101.426063 
L 166.777154 105.29936 
L 167.112289 112.827026 
L 167.447424 116.518469 
L 167.782559 108.622547 
L 168.117694 109.742908 
L 168.452829 117.399362 
L 168.787965 130.371481 
L 169.1231 114.511768 
L 169.458235 92.721951 
L 169.79337 134.989708 
L 170.128505 110.111416 
L 170.46364 104.18935 
L 170.798775 117.872941 
L 171.13391 108.068639 
L 171.469046 124.923942 
L 171.804181 100.318459 
L 172.139316 96.659998 
L 172.474451 114.947623 
L 172.809586 106.486988 
L 173.144721 123.848461 
L 173.479856 119.349871 
L 173.814992 110.569542 
L 174.150127 122.042116 
L 174.485262 122.008351 
L 174.820397 120.651729 
L 175.155532 89.96725 
L 175.490667 119.91865 
L 176.160938 122.601132 
L 176.496073 102.704838 
L 176.831208 126.796608 
L 177.166343 123.619079 
L 177.501478 112.235821 
L 177.836613 119.438777 
L 178.171748 142.510928 
L 178.506883 133.131662 
L 178.842019 115.002727 
L 179.177154 128.211145 
L 179.512289 120.149247 
L 179.847424 130.269545 
L 180.182559 126.585695 
L 180.517694 120.288285 
L 180.852829 127.961666 
L 181.187965 117.701058 
L 181.858235 111.584553 
L 182.19337 141.964076 
L 182.528505 135.555548 
L 182.86364 102.8216 
L 183.198775 123.11827 
L 183.53391 123.647655 
L 184.204181 145.923701 
L 184.874451 120.772025 
L 185.209586 135.893464 
L 185.544721 128.182044 
L 185.879856 129.479015 
L 186.214992 124.947717 
L 186.550127 130.004822 
L 186.885262 129.190523 
L 187.220397 115.140752 
L 187.555532 134.274199 
L 187.890667 135.376466 
L 188.225802 132.469985 
L 188.560938 126.492847 
L 189.231208 108.773957 
L 189.566343 153.373191 
L 189.901478 127.761006 
L 190.236613 145.939875 
L 190.571748 123.288947 
L 190.906883 132.556706 
L 191.242019 147.774499 
L 191.577154 140.216092 
L 191.912289 152.759302 
L 192.247424 140.012905 
L 192.582559 152.820409 
L 192.917694 126.795239 
L 193.252829 148.918951 
L 193.587965 135.159975 
L 193.9231 130.992336 
L 194.258235 148.32295 
L 194.59337 149.436398 
L 195.26364 137.723739 
L 195.598775 137.977109 
L 195.93391 149.354299 
L 196.269046 123.62855 
L 196.604181 127.849503 
L 197.274451 131.85595 
L 197.609586 142.265081 
L 197.944721 133.040959 
L 198.279856 136.576372 
L 198.614992 132.325381 
L 198.950127 152.315492 
L 199.285262 129.454352 
L 199.620397 143.836779 
L 199.955532 134.73358 
L 200.290667 147.436079 
L 200.625802 131.601191 
L 200.960938 143.99864 
L 201.631208 139.426439 
L 201.966343 129.9817 
L 202.301478 147.845638 
L 202.636613 131.807779 
L 202.971748 134.927221 
L 203.306883 142.690597 
L 203.642019 127.633725 
L 203.977154 123.514536 
L 204.312289 137.45598 
L 204.647424 129.480995 
L 204.982559 147.140569 
L 205.317694 145.43399 
L 205.652829 151.619051 
L 206.3231 132.681904 
L 206.658235 156.23831 
L 206.99337 122.633828 
L 207.328505 131.905563 
L 207.66364 146.739638 
L 207.998775 147.735022 
L 208.33391 134.293365 
L 208.669046 162.867273 
L 209.004181 149.23412 
L 209.339316 147.148768 
L 209.674451 130.568445 
L 210.009586 132.83218 
L 210.344721 141.280902 
L 210.679856 130.445206 
L 211.014992 153.31401 
L 211.350127 141.787013 
L 211.685262 153.766443 
L 212.020397 139.822186 
L 212.355532 141.765092 
L 212.690667 140.42832 
L 213.025802 159.597769 
L 213.360938 141.873336 
L 213.696073 134.931707 
L 214.031208 136.871756 
L 214.366343 133.039942 
L 214.701478 144.270723 
L 215.036613 137.930833 
L 215.371748 154.859202 
L 215.706883 150.251339 
L 216.042019 141.727528 
L 216.377154 158.255199 
L 216.712289 139.511695 
L 217.047424 143.065497 
L 217.717694 153.420552 
L 218.052829 144.660274 
L 218.387965 132.649815 
L 218.7231 148.644296 
L 219.058235 129.908868 
L 219.39337 141.668324 
L 219.728505 128.264809 
L 220.06364 125.591592 
L 220.398775 125.32607 
L 220.73391 152.825456 
L 221.069046 143.94995 
L 221.404181 140.913258 
L 221.739316 133.284703 
L 222.074451 142.208295 
L 222.409586 117.798049 
L 222.744721 146.560725 
L 223.079856 128.653048 
L 223.414992 147.304476 
L 223.750127 142.117022 
L 224.085262 121.829203 
L 224.420397 140.86665 
L 224.755532 138.571757 
L 225.090667 134.485041 
L 225.425802 143.743942 
L 225.760938 120.444136 
L 226.096073 147.620562 
L 226.431208 153.517291 
L 226.766343 129.26263 
L 227.101478 148.210105 
L 227.436613 141.103272 
L 227.771748 129.876029 
L 228.106883 125.638532 
L 228.442019 109.19015 
L 229.112289 134.073594 
L 229.447424 131.320535 
L 230.117694 146.381956 
L 230.452829 133.550565 
L 230.787965 139.205513 
L 231.1231 132.805016 
L 231.458235 142.494237 
L 231.79337 126.959513 
L 232.128505 139.745882 
L 232.46364 124.042827 
L 232.798775 132.571417 
L 233.13391 135.43563 
L 233.469046 133.819256 
L 233.804181 130.407494 
L 234.139316 136.99366 
L 234.474451 135.995852 
L 234.809586 117.210004 
L 235.144721 133.419377 
L 235.479856 122.503883 
L 235.814992 115.366068 
L 236.150127 132.380798 
L 236.485262 112.870438 
L 236.820397 124.097006 
L 237.155532 129.019439 
L 237.490667 117.003643 
L 237.825802 124.97397 
L 238.160938 124.647448 
L 238.496073 123.129274 
L 238.831208 118.428869 
L 239.166343 136.676886 
L 239.836613 108.544412 
L 240.171748 126.315538 
L 240.842019 110.175579 
L 241.177154 121.771956 
L 241.512289 116.776355 
L 241.847424 100.166531 
L 242.182559 156.107503 
L 242.517694 111.510577 
L 243.187965 126.187358 
L 243.5231 129.643025 
L 243.858235 98.747231 
L 244.19337 107.462776 
L 244.528505 105.878888 
L 244.86364 96.899264 
L 245.198775 126.891519 
L 245.53391 112.101485 
L 245.869046 138.717215 
L 246.204181 113.243135 
L 246.539316 105.775136 
L 246.874451 124.746676 
L 247.209586 130.892183 
L 247.879856 102.523461 
L 248.214992 120.912756 
L 248.550127 94.122222 
L 248.885262 121.927741 
L 249.220397 106.108193 
L 249.890667 121.699499 
L 250.560938 117.5769 
L 250.896073 109.614861 
L 251.231208 114.978438 
L 251.566343 125.544603 
L 251.901478 91.568247 
L 252.236613 106.013339 
L 252.571748 98.51915 
L 252.906883 116.432299 
L 253.242019 107.931614 
L 253.577154 118.745831 
L 253.912289 100.778525 
L 254.247424 109.408466 
L 254.582559 114.232972 
L 254.917694 102.843536 
L 255.252829 121.806021 
L 255.587965 110.589697 
L 255.9231 108.063836 
L 256.258235 85.331589 
L 256.59337 107.895386 
L 256.928505 89.496913 
L 257.26364 87.828188 
L 257.598775 102.890611 
L 257.93391 99.45519 
L 258.269046 85.545109 
L 258.604181 100.477961 
L 258.939316 103.981567 
L 259.274451 86.535452 
L 259.609586 101.014268 
L 259.944721 84.669456 
L 260.279856 94.734726 
L 260.614992 78.168277 
L 260.950127 100.373969 
L 261.285262 88.951909 
L 261.620397 83.515259 
L 261.955532 86.495258 
L 262.290667 112.344993 
L 262.625802 89.312064 
L 262.960938 85.319204 
L 263.296073 98.859965 
L 263.631208 105.233415 
L 263.966343 91.138416 
L 264.301478 93.323347 
L 264.636613 89.64762 
L 264.971748 80.504163 
L 265.306883 78.929753 
L 265.642019 93.341151 
L 265.977154 102.700693 
L 266.312289 84.330006 
L 266.647424 86.577178 
L 266.982559 94.933541 
L 267.317694 84.956586 
L 267.652829 91.139554 
L 267.987965 80.150032 
L 268.3231 83.690947 
L 268.658235 96.326639 
L 268.99337 89.703647 
L 269.328505 94.872756 
L 269.66364 80.017439 
L 269.998775 77.510458 
L 270.33391 78.145962 
L 270.669046 94.974 
L 271.004181 89.005725 
L 271.339316 77.03227 
L 271.674451 74.107854 
L 272.009586 72.378668 
L 272.344721 81.478858 
L 272.679856 69.855431 
L 273.014992 88.897706 
L 273.350127 80.936322 
L 273.685262 85.480724 
L 274.020397 63.217401 
L 274.355532 80.204761 
L 274.690667 79.960223 
L 275.025802 69.095841 
L 275.360937 74.397944 
L 275.696073 94.061302 
L 276.031208 62.313507 
L 276.366343 67.025864 
L 276.701478 87.40455 
L 277.036613 75.965962 
L 277.371748 92.181484 
L 278.377154 70.882876 
L 278.712289 67.372924 
L 279.047424 67.968429 
L 279.382559 79.719405 
L 279.717694 63.994686 
L 280.052829 78.470506 
L 280.387965 85.585812 
L 280.7231 87.643097 
L 281.058235 66.056834 
L 281.39337 75.293679 
L 281.728505 70.567238 
L 282.06364 70.766156 
L 282.398775 80.683435 
L 283.069046 67.528503 
L 283.404181 82.681822 
L 283.739316 60.421856 
L 284.074451 79.403142 
L 284.409586 69.368794 
L 284.744721 71.03336 
L 285.079856 81.992461 
L 285.414992 45.883063 
L 285.750127 64.601811 
L 286.085262 76.969048 
L 286.420397 71.125762 
L 286.755532 43.269205 
L 287.090667 61.856917 
L 287.425802 56.193203 
L 287.760938 38.227725 
L 288.096073 69.476492 
L 288.431208 53.268355 
L 288.766343 52.579796 
L 289.436613 61.535823 
L 289.771748 59.651466 
L 290.106883 45.014447 
L 290.442019 75.285083 
L 290.777154 52.682926 
L 291.112289 44.624357 
L 291.447424 51.414342 
L 291.782559 55.031374 
L 292.117694 53.842965 
L 292.452829 43.156807 
L 293.1231 52.483332 
L 293.458235 52.498719 
L 293.79337 59.522358 
L 294.128505 29.969361 
L 294.46364 63.24478 
L 294.798775 56.010855 
L 295.13391 51.535086 
L 295.469046 67.523284 
L 295.804181 60.272036 
L 296.139316 39.189705 
L 296.474451 43.097878 
L 296.809586 50.375603 
L 297.144721 54.642126 
L 297.479856 56.239899 
L 297.814992 60.420682 
L 298.150127 71.59762 
L 298.485262 59.53478 
L 298.820397 32.323415 
L 299.155532 49.400298 
L 299.490667 50.285716 
L 299.825802 48.287431 
L 300.160938 56.629072 
L 301.166343 50.499583 
L 301.501478 51.272852 
L 301.836613 55.163547 
L 302.171748 42.311064 
L 302.506883 68.825408 
L 302.842019 51.18692 
L 303.177154 43.21133 
L 303.512289 40.283856 
L 303.847424 52.490207 
L 304.182559 52.027712 
L 304.517694 46.901482 
L 304.852829 36.164317 
L 305.187965 52.019737 
L 305.5231 52.335404 
L 305.858235 42.041703 
L 306.19337 59.874002 
L 306.528505 45.43028 
L 306.86364 49.023905 
L 307.198775 21.813999 
L 307.53391 41.246088 
L 307.869046 46.371682 
L 308.204181 62.786568 
L 308.539316 38.676285 
L 308.874451 41.053808 
L 309.209586 41.677391 
L 309.544721 29.53858 
L 309.879856 27.803216 
L 310.214992 44.607764 
L 310.550127 48.532335 
L 310.885262 49.009553 
L 311.220397 30.814623 
L 311.555532 37.422541 
L 311.890667 58.035722 
L 312.225802 54.97492 
L 312.560938 33.153826 
L 312.896073 35.052026 
L 313.231208 61.558006 
L 313.566343 35.384195 
L 313.901478 50.260778 
L 314.571748 40.670891 
L 314.906883 46.634204 
L 315.242019 46.508903 
L 315.577154 32.034585 
L 315.912289 60.240686 
L 316.247424 45.55866 
L 316.582559 37.174128 
L 316.917694 53.579926 
L 317.252829 37.486352 
L 317.587965 42.241116 
L 317.9231 36.71585 
L 318.258235 58.26348 
L 318.59337 30.166586 
L 318.928505 52.765596 
L 319.26364 49.353278 
L 319.598775 70.457379 
L 319.93391 43.13881 
L 320.269046 51.879066 
L 320.604181 36.342462 
L 320.939316 57.523801 
L 321.274451 67.237198 
L 321.609586 43.925957 
L 321.944721 49.329646 
L 322.279856 44.520605 
L 322.614992 51.321823 
L 322.950127 46.484475 
L 323.285262 47.576291 
L 323.620397 25.651841 
L 323.955532 56.829763 
L 324.290667 44.185829 
L 324.625802 54.026527 
L 324.960938 50.773172 
L 325.296073 57.293674 
L 325.631208 45.351612 
L 325.966343 43.812218 
L 326.301478 56.746108 
L 326.636613 50.730149 
L 326.971748 66.724552 
L 327.642019 36.109948 
L 327.977154 35.756494 
L 328.312289 59.461578 
L 328.647424 62.109754 
L 328.982559 43.078294 
L 329.317694 55.651825 
L 329.652829 60.767467 
L 329.987965 49.540917 
L 330.3231 53.100945 
L 330.658235 58.444914 
L 330.99337 52.560839 
L 331.328505 67.283872 
L 331.66364 75.184581 
L 331.998775 37.461514 
L 332.33391 58.984278 
L 332.669046 60.795359 
L 333.004181 48.166651 
L 333.339316 54.770407 
L 333.674451 49.495301 
L 334.009586 40.281111 
L 334.344721 51.81594 
L 334.679856 55.341776 
L 335.014992 64.108282 
L 335.350127 65.007356 
L 335.685262 54.34141 
L 336.020397 57.639049 
L 336.355532 41.78289 
L 336.690667 66.719321 
L 337.025802 51.919285 
L 337.360937 62.799325 
L 337.696073 57.493457 
L 338.031208 59.024033 
L 338.366343 61.593847 
L 338.701478 58.046677 
L 339.036613 41.672469 
L 339.371748 59.55591 
L 339.706883 65.132486 
L 340.042019 51.370302 
L 340.377154 57.86818 
L 340.712289 55.504846 
L 341.047424 62.569839 
L 341.382559 58.357655 
L 341.717694 50.205384 
L 342.052829 54.983156 
L 342.387965 49.673985 
L 342.7231 72.929777 
L 343.058235 60.763531 
L 343.39337 71.301535 
L 343.728505 71.157518 
L 344.06364 64.964496 
L 344.398775 43.679262 
L 344.73391 67.721792 
L 345.404181 47.325122 
L 346.074451 56.757834 
L 346.409586 58.726147 
L 346.744721 51.280083 
L 347.079856 77.460416 
L 347.414992 61.909764 
L 347.750127 73.654558 
L 348.085262 61.489989 
L 348.420397 57.587889 
L 348.755532 67.6841 
L 349.090667 71.254135 
L 349.425802 73.346857 
L 350.096073 65.07484 
L 350.431208 67.884213 
L 350.766343 66.157841 
L 351.101478 76.232253 
L 351.436613 73.127181 
L 351.771748 49.266724 
L 352.442019 77.503997 
L 352.777154 66.776528 
L 353.447424 73.980712 
L 353.782559 90.042854 
L 354.117694 74.881481 
L 354.452829 82.949143 
L 354.787965 66.713597 
L 355.1231 62.208867 
L 355.458235 69.446472 
L 355.79337 89.850211 
L 356.128505 87.508455 
L 356.46364 62.698549 
L 356.798775 63.089768 
L 357.13391 66.569319 
L 357.469046 79.373653 
L 357.804181 75.574138 
L 358.474451 83.417902 
L 358.809586 88.678793 
L 359.144721 87.126544 
L 359.479856 74.01147 
L 359.814992 89.299656 
L 360.150127 83.304304 
L 360.485262 93.100322 
L 360.820397 80.217573 
L 361.155532 96.665097 
L 361.490667 89.362763 
L 361.825802 71.47783 
L 362.160938 92.71387 
L 362.496073 73.199563 
L 363.166343 101.014367 
L 363.501478 99.791268 
L 364.171748 78.313778 
L 364.506883 81.099248 
L 364.842019 102.46211 
L 365.177154 80.116958 
L 365.847424 107.968061 
L 366.182559 87.228548 
L 366.517694 107.697029 
L 367.187965 85.105294 
L 367.5231 89.532834 
L 367.858235 86.793892 
L 368.19337 97.413956 
L 368.528505 95.623381 
L 368.86364 104.353452 
L 369.198775 108.882398 
L 369.53391 104.676493 
L 369.869046 107.419294 
L 370.204181 95.308881 
L 370.539316 107.007342 
L 370.874451 95.303876 
L 371.209586 111.832235 
L 371.544721 104.461887 
L 371.879856 91.433868 
L 372.214992 113.93732 
L 372.550127 102.400515 
L 372.885262 122.098547 
L 373.220397 101.297354 
L 373.555532 106.449811 
L 373.890667 99.707807 
L 374.225802 106.779747 
L 374.560938 107.108063 
L 374.896073 102.576539 
L 375.231208 107.939902 
L 375.566343 99.332967 
L 375.901478 102.466675 
L 376.236613 121.246249 
L 376.571748 102.146875 
L 376.906883 96.690491 
L 377.242019 118.771007 
L 377.577154 110.287699 
L 377.912289 113.663734 
L 378.247424 107.934639 
L 378.582559 96.385578 
L 378.917694 107.399894 
L 379.252829 110.450882 
L 379.587965 116.548187 
L 379.9231 110.902716 
L 380.258235 113.227587 
L 380.59337 128.783746 
L 380.928505 111.345615 
L 381.26364 123.52466 
L 381.598775 95.433828 
L 381.93391 118.611019 
L 382.269046 128.218393 
L 382.604181 120.54089 
L 382.939316 97.892834 
L 383.274451 139.353306 
L 383.609586 114.799495 
L 383.944721 115.087189 
L 384.279856 115.026254 
L 384.614992 129.309501 
L 385.285262 96.2258 
L 385.620397 107.538149 
L 385.955532 114.778595 
L 386.290667 130.413943 
L 386.625802 130.630717 
L 386.960938 102.805605 
L 386.960938 102.805605 
" style="fill:none;stroke:#1f77b4;stroke-linecap:square;stroke-width:1.5;"/>
   </g>
   <g id="patch_3">
    <path d="M 52.160938 170.28 
L 52.160938 7.2 
" style="fill:none;stroke:#000000;stroke-linecap:square;stroke-linejoin:miter;stroke-width:0.8;"/>
   </g>
   <g id="patch_4">
    <path d="M 386.960938 170.28 
L 386.960938 7.2 
" style="fill:none;stroke:#000000;stroke-linecap:square;stroke-linejoin:miter;stroke-width:0.8;"/>
   </g>
   <g id="patch_5">
    <path d="M 52.160938 170.28 
L 386.960938 170.28 
" style="fill:none;stroke:#000000;stroke-linecap:square;stroke-linejoin:miter;stroke-width:0.8;"/>
   </g>
   <g id="patch_6">
    <path d="M 52.160938 7.2 
L 386.960938 7.2 
" style="fill:none;stroke:#000000;stroke-linecap:square;stroke-linejoin:miter;stroke-width:0.8;"/>
   </g>
  </g>
 </g>
 <defs>
  <clipPath id="p6344d830a2">
   <rect height="163.08" width="334.8" x="52.160938" y="7.2"/>
  </clipPath>
 </defs>
</svg>
