<?xml version="1.0" encoding="utf-8" standalone="no"?>
<!DOCTYPE svg PUBLIC "-//W3C//DTD SVG 1.1//EN"
  "http://www.w3.org/Graphics/SVG/1.1/DTD/svg11.dtd">
<svg height="207.83625pt" version="1.1" viewBox="0 0 406.885938 207.83625" width="406.885938pt" xmlns="http://www.w3.org/2000/svg" xmlns:xlink="http://www.w3.org/1999/xlink">
 <metadata>
  <rdf:RDF xmlns:cc="http://creativecommons.org/ns#" xmlns:dc="http://purl.org/dc/elements/1.1/" xmlns:rdf="http://www.w3.org/1999/02/22-rdf-syntax-ns#">
   <cc:Work>
    <dc:type rdf:resource="http://purl.org/dc/dcmitype/StillImage"/>
    <dc:date>2022-03-15T01:10:10.767877</dc:date>
    <dc:format>image/svg+xml</dc:format>
    <dc:creator>
     <cc:Agent>
      <dc:title>Matplotlib v3.4.0, https://matplotlib.org/</dc:title>
     </cc:Agent>
    </dc:creator>
   </cc:Work>
  </rdf:RDF>
 </metadata>
 <defs>
  <style type="text/css">*{stroke-linecap:butt;stroke-linejoin:round;}</style>
 </defs>
 <g id="figure_1">
  <g id="patch_1">
   <path d="M 0 207.83625 
L 406.885938 207.83625 
L 406.885938 0 
L 0 0 
z
" style="fill:none;"/>
  </g>
  <g id="axes_1">
   <g id="patch_2">
    <path d="M 52.160938 170.28 
L 386.960938 170.28 
L 386.960938 7.2 
L 52.160938 7.2 
z
" style="fill:#ffffff;"/>
   </g>
   <g id="matplotlib.axis_1">
    <g id="xtick_1">
     <g id="line2d_1">
      <path clip-path="url(#pf5fb7ff160)" d="M 117.775008 170.28 
L 117.775008 7.2 
" style="fill:none;stroke:#b0b0b0;stroke-linecap:square;stroke-width:0.8;"/>
     </g>
     <g id="line2d_2">
      <defs>
       <path d="M 0 0 
L 0 3.5 
" id="m3d9b7823f2" style="stroke:#000000;stroke-width:0.8;"/>
      </defs>
      <g>
       <use style="stroke:#000000;stroke-width:0.8;" x="117.775008" xlink:href="#m3d9b7823f2" y="170.28"/>
      </g>
     </g>
     <g id="text_1">
      <!-- 200 -->
      <g transform="translate(108.231258 184.878438)scale(0.1 -0.1)">
       <defs>
        <path d="M 1228 531 
L 3431 531 
L 3431 0 
L 469 0 
L 469 531 
Q 828 903 1448 1529 
Q 2069 2156 2228 2338 
Q 2531 2678 2651 2914 
Q 2772 3150 2772 3378 
Q 2772 3750 2511 3984 
Q 2250 4219 1831 4219 
Q 1534 4219 1204 4116 
Q 875 4013 500 3803 
L 500 4441 
Q 881 4594 1212 4672 
Q 1544 4750 1819 4750 
Q 2544 4750 2975 4387 
Q 3406 4025 3406 3419 
Q 3406 3131 3298 2873 
Q 3191 2616 2906 2266 
Q 2828 2175 2409 1742 
Q 1991 1309 1228 531 
z
" id="DejaVuSans-32" transform="scale(0.015625)"/>
        <path d="M 2034 4250 
Q 1547 4250 1301 3770 
Q 1056 3291 1056 2328 
Q 1056 1369 1301 889 
Q 1547 409 2034 409 
Q 2525 409 2770 889 
Q 3016 1369 3016 2328 
Q 3016 3291 2770 3770 
Q 2525 4250 2034 4250 
z
M 2034 4750 
Q 2819 4750 3233 4129 
Q 3647 3509 3647 2328 
Q 3647 1150 3233 529 
Q 2819 -91 2034 -91 
Q 1250 -91 836 529 
Q 422 1150 422 2328 
Q 422 3509 836 4129 
Q 1250 4750 2034 4750 
z
" id="DejaVuSans-30" transform="scale(0.015625)"/>
       </defs>
       <use xlink:href="#DejaVuSans-32"/>
       <use x="63.623047" xlink:href="#DejaVuSans-30"/>
       <use x="127.246094" xlink:href="#DejaVuSans-30"/>
      </g>
     </g>
    </g>
    <g id="xtick_2">
     <g id="line2d_3">
      <path clip-path="url(#pf5fb7ff160)" d="M 185.07149 170.28 
L 185.07149 7.2 
" style="fill:none;stroke:#b0b0b0;stroke-linecap:square;stroke-width:0.8;"/>
     </g>
     <g id="line2d_4">
      <g>
       <use style="stroke:#000000;stroke-width:0.8;" x="185.07149" xlink:href="#m3d9b7823f2" y="170.28"/>
      </g>
     </g>
     <g id="text_2">
      <!-- 400 -->
      <g transform="translate(175.52774 184.878438)scale(0.1 -0.1)">
       <defs>
        <path d="M 2419 4116 
L 825 1625 
L 2419 1625 
L 2419 4116 
z
M 2253 4666 
L 3047 4666 
L 3047 1625 
L 3713 1625 
L 3713 1100 
L 3047 1100 
L 3047 0 
L 2419 0 
L 2419 1100 
L 313 1100 
L 313 1709 
L 2253 4666 
z
" id="DejaVuSans-34" transform="scale(0.015625)"/>
       </defs>
       <use xlink:href="#DejaVuSans-34"/>
       <use x="63.623047" xlink:href="#DejaVuSans-30"/>
       <use x="127.246094" xlink:href="#DejaVuSans-30"/>
      </g>
     </g>
    </g>
    <g id="xtick_3">
     <g id="line2d_5">
      <path clip-path="url(#pf5fb7ff160)" d="M 252.367973 170.28 
L 252.367973 7.2 
" style="fill:none;stroke:#b0b0b0;stroke-linecap:square;stroke-width:0.8;"/>
     </g>
     <g id="line2d_6">
      <g>
       <use style="stroke:#000000;stroke-width:0.8;" x="252.367973" xlink:href="#m3d9b7823f2" y="170.28"/>
      </g>
     </g>
     <g id="text_3">
      <!-- 600 -->
      <g transform="translate(242.824223 184.878438)scale(0.1 -0.1)">
       <defs>
        <path d="M 2113 2584 
Q 1688 2584 1439 2293 
Q 1191 2003 1191 1497 
Q 1191 994 1439 701 
Q 1688 409 2113 409 
Q 2538 409 2786 701 
Q 3034 994 3034 1497 
Q 3034 2003 2786 2293 
Q 2538 2584 2113 2584 
z
M 3366 4563 
L 3366 3988 
Q 3128 4100 2886 4159 
Q 2644 4219 2406 4219 
Q 1781 4219 1451 3797 
Q 1122 3375 1075 2522 
Q 1259 2794 1537 2939 
Q 1816 3084 2150 3084 
Q 2853 3084 3261 2657 
Q 3669 2231 3669 1497 
Q 3669 778 3244 343 
Q 2819 -91 2113 -91 
Q 1303 -91 875 529 
Q 447 1150 447 2328 
Q 447 3434 972 4092 
Q 1497 4750 2381 4750 
Q 2619 4750 2861 4703 
Q 3103 4656 3366 4563 
z
" id="DejaVuSans-36" transform="scale(0.015625)"/>
       </defs>
       <use xlink:href="#DejaVuSans-36"/>
       <use x="63.623047" xlink:href="#DejaVuSans-30"/>
       <use x="127.246094" xlink:href="#DejaVuSans-30"/>
      </g>
     </g>
    </g>
    <g id="xtick_4">
     <g id="line2d_7">
      <path clip-path="url(#pf5fb7ff160)" d="M 319.664455 170.28 
L 319.664455 7.2 
" style="fill:none;stroke:#b0b0b0;stroke-linecap:square;stroke-width:0.8;"/>
     </g>
     <g id="line2d_8">
      <g>
       <use style="stroke:#000000;stroke-width:0.8;" x="319.664455" xlink:href="#m3d9b7823f2" y="170.28"/>
      </g>
     </g>
     <g id="text_4">
      <!-- 800 -->
      <g transform="translate(310.120705 184.878438)scale(0.1 -0.1)">
       <defs>
        <path d="M 2034 2216 
Q 1584 2216 1326 1975 
Q 1069 1734 1069 1313 
Q 1069 891 1326 650 
Q 1584 409 2034 409 
Q 2484 409 2743 651 
Q 3003 894 3003 1313 
Q 3003 1734 2745 1975 
Q 2488 2216 2034 2216 
z
M 1403 2484 
Q 997 2584 770 2862 
Q 544 3141 544 3541 
Q 544 4100 942 4425 
Q 1341 4750 2034 4750 
Q 2731 4750 3128 4425 
Q 3525 4100 3525 3541 
Q 3525 3141 3298 2862 
Q 3072 2584 2669 2484 
Q 3125 2378 3379 2068 
Q 3634 1759 3634 1313 
Q 3634 634 3220 271 
Q 2806 -91 2034 -91 
Q 1263 -91 848 271 
Q 434 634 434 1313 
Q 434 1759 690 2068 
Q 947 2378 1403 2484 
z
M 1172 3481 
Q 1172 3119 1398 2916 
Q 1625 2713 2034 2713 
Q 2441 2713 2670 2916 
Q 2900 3119 2900 3481 
Q 2900 3844 2670 4047 
Q 2441 4250 2034 4250 
Q 1625 4250 1398 4047 
Q 1172 3844 1172 3481 
z
" id="DejaVuSans-38" transform="scale(0.015625)"/>
       </defs>
       <use xlink:href="#DejaVuSans-38"/>
       <use x="63.623047" xlink:href="#DejaVuSans-30"/>
       <use x="127.246094" xlink:href="#DejaVuSans-30"/>
      </g>
     </g>
    </g>
    <g id="xtick_5">
     <g id="line2d_9">
      <path clip-path="url(#pf5fb7ff160)" d="M 386.960938 170.28 
L 386.960938 7.2 
" style="fill:none;stroke:#b0b0b0;stroke-linecap:square;stroke-width:0.8;"/>
     </g>
     <g id="line2d_10">
      <g>
       <use style="stroke:#000000;stroke-width:0.8;" x="386.960938" xlink:href="#m3d9b7823f2" y="170.28"/>
      </g>
     </g>
     <g id="text_5">
      <!-- 1000 -->
      <g transform="translate(374.235938 184.878438)scale(0.1 -0.1)">
       <defs>
        <path d="M 794 531 
L 1825 531 
L 1825 4091 
L 703 3866 
L 703 4441 
L 1819 4666 
L 2450 4666 
L 2450 531 
L 3481 531 
L 3481 0 
L 794 0 
L 794 531 
z
" id="DejaVuSans-31" transform="scale(0.015625)"/>
       </defs>
       <use xlink:href="#DejaVuSans-31"/>
       <use x="63.623047" xlink:href="#DejaVuSans-30"/>
       <use x="127.246094" xlink:href="#DejaVuSans-30"/>
       <use x="190.869141" xlink:href="#DejaVuSans-30"/>
      </g>
     </g>
    </g>
    <g id="text_6">
     <!-- time -->
     <g transform="translate(208.264844 198.556563)scale(0.1 -0.1)">
      <defs>
       <path d="M 1172 4494 
L 1172 3500 
L 2356 3500 
L 2356 3053 
L 1172 3053 
L 1172 1153 
Q 1172 725 1289 603 
Q 1406 481 1766 481 
L 2356 481 
L 2356 0 
L 1766 0 
Q 1100 0 847 248 
Q 594 497 594 1153 
L 594 3053 
L 172 3053 
L 172 3500 
L 594 3500 
L 594 4494 
L 1172 4494 
z
" id="DejaVuSans-74" transform="scale(0.015625)"/>
       <path d="M 603 3500 
L 1178 3500 
L 1178 0 
L 603 0 
L 603 3500 
z
M 603 4863 
L 1178 4863 
L 1178 4134 
L 603 4134 
L 603 4863 
z
" id="DejaVuSans-69" transform="scale(0.015625)"/>
       <path d="M 3328 2828 
Q 3544 3216 3844 3400 
Q 4144 3584 4550 3584 
Q 5097 3584 5394 3201 
Q 5691 2819 5691 2113 
L 5691 0 
L 5113 0 
L 5113 2094 
Q 5113 2597 4934 2840 
Q 4756 3084 4391 3084 
Q 3944 3084 3684 2787 
Q 3425 2491 3425 1978 
L 3425 0 
L 2847 0 
L 2847 2094 
Q 2847 2600 2669 2842 
Q 2491 3084 2119 3084 
Q 1678 3084 1418 2786 
Q 1159 2488 1159 1978 
L 1159 0 
L 581 0 
L 581 3500 
L 1159 3500 
L 1159 2956 
Q 1356 3278 1631 3431 
Q 1906 3584 2284 3584 
Q 2666 3584 2933 3390 
Q 3200 3197 3328 2828 
z
" id="DejaVuSans-6d" transform="scale(0.015625)"/>
       <path d="M 3597 1894 
L 3597 1613 
L 953 1613 
Q 991 1019 1311 708 
Q 1631 397 2203 397 
Q 2534 397 2845 478 
Q 3156 559 3463 722 
L 3463 178 
Q 3153 47 2828 -22 
Q 2503 -91 2169 -91 
Q 1331 -91 842 396 
Q 353 884 353 1716 
Q 353 2575 817 3079 
Q 1281 3584 2069 3584 
Q 2775 3584 3186 3129 
Q 3597 2675 3597 1894 
z
M 3022 2063 
Q 3016 2534 2758 2815 
Q 2500 3097 2075 3097 
Q 1594 3097 1305 2825 
Q 1016 2553 972 2059 
L 3022 2063 
z
" id="DejaVuSans-65" transform="scale(0.015625)"/>
      </defs>
      <use xlink:href="#DejaVuSans-74"/>
      <use x="39.208984" xlink:href="#DejaVuSans-69"/>
      <use x="66.992188" xlink:href="#DejaVuSans-6d"/>
      <use x="164.404297" xlink:href="#DejaVuSans-65"/>
     </g>
    </g>
   </g>
   <g id="matplotlib.axis_2">
    <g id="ytick_1">
     <g id="line2d_11">
      <path clip-path="url(#pf5fb7ff160)" d="M 52.160938 153.559786 
L 386.960938 153.559786 
" style="fill:none;stroke:#b0b0b0;stroke-linecap:square;stroke-width:0.8;"/>
     </g>
     <g id="line2d_12">
      <defs>
       <path d="M 0 0 
L -3.5 0 
" id="m8dd854bfa0" style="stroke:#000000;stroke-width:0.8;"/>
      </defs>
      <g>
       <use style="stroke:#000000;stroke-width:0.8;" x="52.160938" xlink:href="#m8dd854bfa0" y="153.559786"/>
      </g>
     </g>
     <g id="text_7">
      <!-- −1.0 -->
      <g transform="translate(20.878125 157.359005)scale(0.1 -0.1)">
       <defs>
        <path d="M 678 2272 
L 4684 2272 
L 4684 1741 
L 678 1741 
L 678 2272 
z
" id="DejaVuSans-2212" transform="scale(0.015625)"/>
        <path d="M 684 794 
L 1344 794 
L 1344 0 
L 684 0 
L 684 794 
z
" id="DejaVuSans-2e" transform="scale(0.015625)"/>
       </defs>
       <use xlink:href="#DejaVuSans-2212"/>
       <use x="83.789062" xlink:href="#DejaVuSans-31"/>
       <use x="147.412109" xlink:href="#DejaVuSans-2e"/>
       <use x="179.199219" xlink:href="#DejaVuSans-30"/>
      </g>
     </g>
    </g>
    <g id="ytick_2">
     <g id="line2d_13">
      <path clip-path="url(#pf5fb7ff160)" d="M 52.160938 119.977362 
L 386.960938 119.977362 
" style="fill:none;stroke:#b0b0b0;stroke-linecap:square;stroke-width:0.8;"/>
     </g>
     <g id="line2d_14">
      <g>
       <use style="stroke:#000000;stroke-width:0.8;" x="52.160938" xlink:href="#m8dd854bfa0" y="119.977362"/>
      </g>
     </g>
     <g id="text_8">
      <!-- −0.5 -->
      <g transform="translate(20.878125 123.776581)scale(0.1 -0.1)">
       <defs>
        <path d="M 691 4666 
L 3169 4666 
L 3169 4134 
L 1269 4134 
L 1269 2991 
Q 1406 3038 1543 3061 
Q 1681 3084 1819 3084 
Q 2600 3084 3056 2656 
Q 3513 2228 3513 1497 
Q 3513 744 3044 326 
Q 2575 -91 1722 -91 
Q 1428 -91 1123 -41 
Q 819 9 494 109 
L 494 744 
Q 775 591 1075 516 
Q 1375 441 1709 441 
Q 2250 441 2565 725 
Q 2881 1009 2881 1497 
Q 2881 1984 2565 2268 
Q 2250 2553 1709 2553 
Q 1456 2553 1204 2497 
Q 953 2441 691 2322 
L 691 4666 
z
" id="DejaVuSans-35" transform="scale(0.015625)"/>
       </defs>
       <use xlink:href="#DejaVuSans-2212"/>
       <use x="83.789062" xlink:href="#DejaVuSans-30"/>
       <use x="147.412109" xlink:href="#DejaVuSans-2e"/>
       <use x="179.199219" xlink:href="#DejaVuSans-35"/>
      </g>
     </g>
    </g>
    <g id="ytick_3">
     <g id="line2d_15">
      <path clip-path="url(#pf5fb7ff160)" d="M 52.160938 86.394937 
L 386.960938 86.394937 
" style="fill:none;stroke:#b0b0b0;stroke-linecap:square;stroke-width:0.8;"/>
     </g>
     <g id="line2d_16">
      <g>
       <use style="stroke:#000000;stroke-width:0.8;" x="52.160938" xlink:href="#m8dd854bfa0" y="86.394937"/>
      </g>
     </g>
     <g id="text_9">
      <!-- 0.0 -->
      <g transform="translate(29.257812 90.194156)scale(0.1 -0.1)">
       <use xlink:href="#DejaVuSans-30"/>
       <use x="63.623047" xlink:href="#DejaVuSans-2e"/>
       <use x="95.410156" xlink:href="#DejaVuSans-30"/>
      </g>
     </g>
    </g>
    <g id="ytick_4">
     <g id="line2d_17">
      <path clip-path="url(#pf5fb7ff160)" d="M 52.160938 52.812513 
L 386.960938 52.812513 
" style="fill:none;stroke:#b0b0b0;stroke-linecap:square;stroke-width:0.8;"/>
     </g>
     <g id="line2d_18">
      <g>
       <use style="stroke:#000000;stroke-width:0.8;" x="52.160938" xlink:href="#m8dd854bfa0" y="52.812513"/>
      </g>
     </g>
     <g id="text_10">
      <!-- 0.5 -->
      <g transform="translate(29.257812 56.611731)scale(0.1 -0.1)">
       <use xlink:href="#DejaVuSans-30"/>
       <use x="63.623047" xlink:href="#DejaVuSans-2e"/>
       <use x="95.410156" xlink:href="#DejaVuSans-35"/>
      </g>
     </g>
    </g>
    <g id="ytick_5">
     <g id="line2d_19">
      <path clip-path="url(#pf5fb7ff160)" d="M 52.160938 19.230088 
L 386.960938 19.230088 
" style="fill:none;stroke:#b0b0b0;stroke-linecap:square;stroke-width:0.8;"/>
     </g>
     <g id="line2d_20">
      <g>
       <use style="stroke:#000000;stroke-width:0.8;" x="52.160938" xlink:href="#m8dd854bfa0" y="19.230088"/>
      </g>
     </g>
     <g id="text_11">
      <!-- 1.0 -->
      <g transform="translate(29.257812 23.029307)scale(0.1 -0.1)">
       <use xlink:href="#DejaVuSans-31"/>
       <use x="63.623047" xlink:href="#DejaVuSans-2e"/>
       <use x="95.410156" xlink:href="#DejaVuSans-30"/>
      </g>
     </g>
    </g>
    <g id="text_12">
     <!-- x -->
     <g transform="translate(14.798438 91.699375)rotate(-90)scale(0.1 -0.1)">
      <defs>
       <path d="M 3513 3500 
L 2247 1797 
L 3578 0 
L 2900 0 
L 1881 1375 
L 863 0 
L 184 0 
L 1544 1831 
L 300 3500 
L 978 3500 
L 1906 2253 
L 2834 3500 
L 3513 3500 
z
" id="DejaVuSans-78" transform="scale(0.015625)"/>
      </defs>
      <use xlink:href="#DejaVuSans-78"/>
     </g>
    </g>
   </g>
   <g id="line2d_21">
    <path clip-path="url(#pf5fb7ff160)" d="M 52.160938 84.535505 
L 52.49742 81.634593 
L 52.833902 91.779716 
L 53.170385 93.110171 
L 53.506867 78.668325 
L 53.84335 81.110177 
L 54.179832 81.381839 
L 54.516314 73.689105 
L 54.852797 77.658669 
L 55.189279 77.681508 
L 55.525762 79.701822 
L 55.862244 78.492012 
L 56.198726 78.246578 
L 56.535209 77.078575 
L 56.871691 77.615746 
L 57.208174 77.645334 
L 57.544656 64.19396 
L 57.881139 69.636252 
L 58.217621 78.080165 
L 58.554103 68.090922 
L 58.890586 69.088345 
L 59.227068 70.684137 
L 59.563551 67.002945 
L 59.900033 66.652277 
L 60.236515 66.799784 
L 60.572998 63.74995 
L 61.245963 60.852661 
L 61.582445 64.707764 
L 61.918927 66.546761 
L 62.25541 63.353723 
L 62.591892 51.24226 
L 62.928375 53.644981 
L 63.264857 64.40574 
L 63.60134 56.113404 
L 64.274304 70.358355 
L 64.610787 56.941454 
L 64.947269 61.636114 
L 65.283752 52.906769 
L 65.620234 52.831144 
L 65.956716 55.685291 
L 66.293199 56.101258 
L 66.629681 49.802424 
L 66.966164 49.474979 
L 67.302646 58.507992 
L 67.639128 52.355828 
L 67.975611 60.658769 
L 68.312093 60.148872 
L 68.648576 53.612061 
L 68.985058 52.49725 
L 69.321541 48.87393 
L 69.658023 55.043708 
L 69.994505 49.076607 
L 70.330988 50.756239 
L 70.66747 48.2723 
L 71.003953 41.785665 
L 71.340435 43.954893 
L 71.676917 39.384047 
L 72.0134 42.580472 
L 72.349882 43.287509 
L 72.686365 52.858163 
L 73.022847 52.400497 
L 73.359329 55.810464 
L 74.032294 48.669147 
L 74.368777 37.512399 
L 74.705259 34.279905 
L 75.041742 36.728298 
L 75.378224 32.312065 
L 75.714706 32.360281 
L 76.051189 31.366108 
L 76.387671 35.168365 
L 76.724154 36.234358 
L 77.060636 40.137852 
L 77.397118 38.582195 
L 77.733601 39.720648 
L 78.070083 41.944326 
L 78.743048 26.908456 
L 79.07953 33.206882 
L 79.416013 31.194453 
L 79.752495 27.71617 
L 80.088978 33.450237 
L 80.42546 30.476438 
L 81.098425 34.13769 
L 81.434907 29.566288 
L 81.77139 29.35114 
L 82.107872 35.451818 
L 82.444355 32.229083 
L 82.780837 32.823074 
L 83.117319 45.169622 
L 83.453802 34.846161 
L 83.790284 36.623034 
L 84.126767 36.903716 
L 84.463249 27.855982 
L 84.799731 29.004892 
L 85.136214 26.840248 
L 85.472696 30.546761 
L 85.809179 23.192823 
L 86.145661 26.557956 
L 86.482144 33.936739 
L 86.818626 26.921403 
L 87.155108 30.471739 
L 87.491591 36.644708 
L 87.828073 30.926373 
L 88.164556 30.393826 
L 88.501038 38.931198 
L 88.83752 28.602364 
L 89.174003 31.694366 
L 89.510485 31.395004 
L 89.846968 25.283286 
L 90.18345 25.610591 
L 90.519932 32.692213 
L 90.856415 26.582369 
L 91.192897 32.391555 
L 91.52938 30.561605 
L 91.865862 20.173739 
L 92.202345 31.587012 
L 92.538827 28.064684 
L 93.211792 30.84111 
L 93.548274 30.120286 
L 93.884757 28.837745 
L 94.221239 31.362409 
L 94.557721 27.996195 
L 94.894204 28.746941 
L 95.230686 32.466113 
L 95.903651 20.39799 
L 96.240133 22.40154 
L 96.576616 19.588747 
L 96.913098 15.650592 
L 97.249581 22.016435 
L 97.586063 18.576279 
L 98.259028 24.597482 
L 98.59551 20.390415 
L 98.931993 27.353964 
L 99.268475 28.707204 
L 99.604958 28.17054 
L 99.94144 26.897952 
L 100.277922 24.955084 
L 100.614405 28.826952 
L 100.950887 23.292795 
L 101.28737 28.53538 
L 101.623852 31.287515 
L 101.960334 22.930324 
L 102.296817 25.227191 
L 102.633299 26.034152 
L 102.969782 26.380392 
L 103.306264 26.187039 
L 103.642747 31.199489 
L 103.979229 22.529382 
L 104.315711 22.318094 
L 104.988676 17.495458 
L 105.325159 22.906144 
L 105.661641 14.612727 
L 105.998123 19.96635 
L 106.334606 20.886549 
L 106.671088 16.139704 
L 107.007571 23.944946 
L 107.344053 22.781504 
L 107.680535 21.179153 
L 108.017018 24.700504 
L 108.3535 19.490705 
L 108.689983 23.317783 
L 109.026465 21.871954 
L 109.362948 20.958096 
L 109.69943 20.568227 
L 110.035912 20.372713 
L 110.372395 22.61342 
L 110.708877 28.05245 
L 111.04536 26.027506 
L 111.381842 26.205462 
L 111.718324 25.49045 
L 112.054807 22.647657 
L 112.391289 25.504174 
L 112.727772 18.289976 
L 113.064254 25.633057 
L 113.400736 17.444928 
L 113.737219 19.1583 
L 114.073701 25.454564 
L 114.410184 22.462342 
L 114.746666 29.955796 
L 115.083149 29.075359 
L 115.756113 31.095643 
L 116.092596 35.657577 
L 116.429078 37.443834 
L 116.765561 34.563737 
L 117.102043 32.872043 
L 117.438525 23.917459 
L 117.775008 21.470836 
L 118.11149 27.200724 
L 118.447973 21.527835 
L 118.784455 23.193776 
L 119.120937 28.27036 
L 119.793902 17.897193 
L 120.130385 26.17093 
L 120.466867 27.058982 
L 120.80335 24.905331 
L 121.139832 24.942914 
L 121.476314 24.076504 
L 121.812797 27.656568 
L 122.149279 25.102751 
L 122.485762 30.112767 
L 122.822244 26.473238 
L 123.158726 34.724007 
L 123.495209 32.273416 
L 123.831691 27.717219 
L 124.168174 32.443614 
L 124.504656 23.807808 
L 124.841139 24.546752 
L 125.177621 22.243824 
L 125.514103 26.583946 
L 126.187068 38.64299 
L 126.523551 40.850558 
L 126.860033 37.487947 
L 127.196515 31.38092 
L 127.532998 27.370041 
L 127.86948 26.602041 
L 128.205963 26.695879 
L 129.21541 40.818351 
L 129.888375 42.536195 
L 130.224857 40.336137 
L 130.56134 42.377823 
L 130.897822 43.375182 
L 131.234304 41.217456 
L 131.570787 43.983053 
L 131.907269 40.952619 
L 132.243752 42.535578 
L 132.916716 35.336393 
L 133.253199 32.515882 
L 133.589681 44.545406 
L 133.926164 37.736542 
L 134.599128 49.107224 
L 134.935611 34.508792 
L 135.272093 43.425632 
L 135.608576 38.944057 
L 135.945058 42.707001 
L 136.281541 50.418645 
L 136.954505 44.23172 
L 137.290988 47.796876 
L 137.62747 47.635333 
L 137.963953 44.672067 
L 138.300435 56.582755 
L 138.636917 61.189415 
L 138.9734 55.750654 
L 139.309882 67.147898 
L 139.646365 61.508737 
L 139.982847 59.455942 
L 140.319329 59.152007 
L 140.655812 53.860166 
L 140.992294 52.227701 
L 142.001742 34.921672 
L 142.338224 47.672889 
L 142.674706 41.033582 
L 143.347671 62.392568 
L 143.684154 53.65347 
L 144.020636 54.019779 
L 144.357118 56.240994 
L 144.693601 53.292337 
L 145.030083 54.83162 
L 145.366566 60.562266 
L 145.703048 59.128702 
L 146.03953 61.221986 
L 146.376013 58.763133 
L 146.712495 64.963913 
L 147.048978 65.78567 
L 147.38546 60.583482 
L 147.721943 70.786102 
L 148.058425 72.575457 
L 148.394907 75.953085 
L 148.73139 73.829792 
L 149.067872 76.809301 
L 149.404355 72.20403 
L 149.740837 72.562713 
L 150.077319 70.985263 
L 150.413802 71.331779 
L 150.750284 66.380871 
L 151.423249 81.75283 
L 151.759731 70.117709 
L 152.096214 70.094758 
L 152.432696 77.964882 
L 152.769179 76.393104 
L 153.105661 84.170753 
L 153.442144 86.116757 
L 153.778626 92.721391 
L 154.115108 101.676029 
L 154.451591 88.790632 
L 154.788073 95.711443 
L 155.124556 97.102284 
L 155.461038 102.234903 
L 155.79752 95.704461 
L 156.134003 107.326467 
L 156.470485 104.198247 
L 156.806968 102.719659 
L 157.14345 104.929949 
L 157.479932 102.289324 
L 157.816415 108.376582 
L 158.152897 104.144807 
L 158.48938 89.705311 
L 158.825862 98.400587 
L 159.162345 90.345829 
L 159.498827 97.046782 
L 159.835309 98.209061 
L 160.171792 89.927656 
L 160.508274 94.405569 
L 160.844757 100.589659 
L 161.181239 96.916522 
L 161.517721 90.781658 
L 162.863651 103.816173 
L 163.200133 104.214553 
L 163.536616 98.947903 
L 163.873098 99.459886 
L 164.209581 107.693573 
L 164.546063 107.270236 
L 164.882546 112.499767 
L 165.219028 109.735499 
L 165.55551 108.29212 
L 165.891993 97.383743 
L 166.228475 104.425537 
L 166.564958 106.41405 
L 167.237922 114.04176 
L 167.574405 116.168317 
L 167.910887 115.579798 
L 168.24737 120.528798 
L 168.583852 123.332983 
L 168.920334 124.888904 
L 169.256817 118.385917 
L 169.593299 122.198397 
L 169.929782 122.29278 
L 170.266264 120.921501 
L 170.602747 112.928604 
L 170.939229 114.77285 
L 171.275711 119.013144 
L 171.612194 116.129781 
L 171.948676 114.788959 
L 172.285159 107.679365 
L 172.621641 112.098565 
L 172.958123 120.540399 
L 173.294606 120.750262 
L 173.631088 123.600374 
L 173.967571 122.360372 
L 174.304053 123.363096 
L 174.640535 124.738114 
L 174.977018 114.497933 
L 175.3135 126.284659 
L 175.649983 116.001666 
L 175.986465 125.458579 
L 176.322948 120.681589 
L 176.65943 127.281859 
L 176.995912 122.202961 
L 177.332395 126.250038 
L 177.668877 131.948933 
L 178.00536 134.358125 
L 178.341842 139.667951 
L 179.014807 131.231535 
L 179.351289 128.215805 
L 179.687772 132.914994 
L 180.024254 132.535414 
L 180.360736 132.845472 
L 181.033701 127.987102 
L 181.370184 124.941203 
L 181.706666 126.326062 
L 182.043149 133.19538 
L 182.379631 136.092106 
L 182.716113 128.682682 
L 183.052596 130.870033 
L 183.389078 125.158449 
L 183.725561 138.451465 
L 184.062043 143.888453 
L 184.398525 146.33988 
L 184.735008 138.926221 
L 185.07149 137.180429 
L 185.407973 136.750631 
L 185.744455 138.896092 
L 186.080938 135.701044 
L 186.41742 135.782504 
L 186.753902 134.766185 
L 187.090385 131.626512 
L 187.426867 134.89711 
L 187.76335 136.469893 
L 188.099832 142.782523 
L 188.436314 138.128011 
L 188.772797 130.325339 
L 189.109279 131.946819 
L 189.445762 136.136623 
L 190.118726 150.296066 
L 190.455209 141.08197 
L 191.128174 144.942379 
L 191.464656 153.157563 
L 191.801139 158.634144 
L 192.137621 156.207602 
L 192.474103 158.309434 
L 192.810586 149.028177 
L 193.147068 152.473513 
L 193.483551 147.701191 
L 193.820033 146.630659 
L 194.82948 156.899482 
L 195.165963 152.108297 
L 195.502445 150.192644 
L 195.838927 151.218227 
L 196.17541 143.897749 
L 196.848375 134.970876 
L 197.52134 143.66413 
L 197.857822 145.94636 
L 198.194304 146.087558 
L 198.530787 145.249612 
L 198.867269 149.680393 
L 199.203752 148.343679 
L 199.540234 150.649296 
L 199.876716 147.745724 
L 200.213199 152.229269 
L 200.549681 148.209823 
L 200.886164 151.195416 
L 201.222646 150.269043 
L 201.559128 150.598022 
L 201.895611 146.181356 
L 202.232093 148.42437 
L 202.568576 146.757701 
L 202.905058 146.78048 
L 203.241541 145.519709 
L 203.578023 142.685634 
L 203.914505 138.023772 
L 204.250988 136.951751 
L 204.58747 140.596181 
L 204.923953 148.958935 
L 205.260435 153.311788 
L 205.596917 159.801781 
L 206.269882 150.621697 
L 206.606365 152.199373 
L 206.942847 145.174933 
L 207.615812 146.037036 
L 207.952294 153.334238 
L 208.288777 153.629477 
L 208.625259 160.806451 
L 208.961742 162.867273 
L 209.298224 160.801775 
L 209.634706 149.231571 
L 209.971189 145.013447 
L 210.307671 143.825152 
L 210.644154 145.970645 
L 210.980636 152.142901 
L 211.317118 155.496441 
L 211.653601 160.702284 
L 211.990083 155.742518 
L 212.326566 153.975557 
L 212.663048 153.140533 
L 212.99953 159.102471 
L 213.336013 157.955699 
L 214.008978 146.890531 
L 214.34546 145.336156 
L 215.018425 151.045579 
L 215.354907 158.084646 
L 215.69139 160.78095 
L 216.027872 159.409543 
L 216.364355 162.401348 
L 216.700837 157.25196 
L 217.037319 156.129849 
L 217.373802 156.775971 
L 217.710284 161.531559 
L 218.046767 158.583078 
L 218.383249 151.648377 
L 218.719731 151.858184 
L 219.056214 147.162654 
L 219.392696 148.425491 
L 219.729179 141.919924 
L 220.065661 138.020506 
L 220.402144 137.770706 
L 220.738626 146.870146 
L 221.075108 152.806839 
L 221.411591 154.149398 
L 221.748073 148.341501 
L 222.084556 147.36692 
L 222.421038 139.247609 
L 222.75752 143.190751 
L 223.094003 142.241632 
L 223.430485 151.408858 
L 223.766968 149.25668 
L 224.10345 143.355561 
L 224.439932 143.958864 
L 224.776415 143.468527 
L 225.112897 147.717012 
L 225.44938 147.743883 
L 225.785862 141.462423 
L 226.122345 151.991095 
L 226.458827 150.670578 
L 226.795309 151.878001 
L 227.131792 153.636434 
L 227.804757 145.927761 
L 228.477721 126.087463 
L 228.814204 129.907399 
L 229.150686 129.948569 
L 229.823651 145.250372 
L 230.160133 149.067202 
L 230.496616 149.224765 
L 230.833098 148.420895 
L 231.169581 145.611113 
L 231.506063 147.378146 
L 231.842546 143.357082 
L 232.179028 144.796866 
L 232.51551 139.168735 
L 232.851993 140.712966 
L 233.188475 139.393594 
L 233.524958 143.278721 
L 233.86144 142.348329 
L 234.197922 143.040874 
L 234.534405 142.693209 
L 234.870887 136.269534 
L 235.20737 135.389216 
L 235.543852 130.977155 
L 235.880334 129.872282 
L 236.216817 127.911039 
L 236.553299 127.248871 
L 236.889782 130.42861 
L 237.226264 127.303164 
L 237.562747 130.591753 
L 237.899229 129.803793 
L 238.235711 128.420271 
L 238.572194 130.525947 
L 238.908676 129.72122 
L 239.245159 131.781425 
L 239.581641 131.884351 
L 239.918123 125.921669 
L 240.254606 123.400599 
L 240.591088 122.511034 
L 240.927571 123.655556 
L 241.264053 120.776948 
L 241.600535 119.460029 
L 241.937018 127.947093 
L 242.2735 130.229171 
L 242.609983 139.571919 
L 242.946465 134.44816 
L 243.282948 126.206482 
L 243.61943 129.353842 
L 243.955912 120.436497 
L 244.292395 118.402555 
L 244.628877 104.253553 
L 244.96536 112.60899 
L 245.301842 116.156083 
L 245.974807 130.360016 
L 246.311289 128.621863 
L 246.647772 124.028707 
L 246.984254 125.85551 
L 247.320736 125.378912 
L 247.657219 129.208601 
L 247.993701 119.759458 
L 248.330184 114.092715 
L 248.666666 114.619762 
L 249.003149 118.768993 
L 249.339631 113.774049 
L 249.676113 121.404239 
L 250.012596 119.272072 
L 250.349078 123.960146 
L 250.685561 124.335395 
L 251.022043 120.301088 
L 251.358525 120.79606 
L 252.367973 113.882764 
L 252.704455 103.465617 
L 253.040938 110.965012 
L 253.37742 111.797425 
L 253.713902 116.303109 
L 254.050385 113.345224 
L 254.386867 116.11948 
L 254.72335 109.310164 
L 255.396314 116.305175 
L 255.732797 115.129507 
L 256.069279 114.654479 
L 256.405762 105.498823 
L 256.742244 101.171328 
L 257.078726 92.97991 
L 257.415209 98.218519 
L 257.751691 91.413206 
L 258.088174 90.84195 
L 258.424656 96.736491 
L 258.761139 99.515646 
L 259.097621 89.456003 
L 259.434103 97.901274 
L 259.770586 93.212272 
L 260.107068 86.81049 
L 260.443551 85.565638 
L 260.780033 83.488902 
L 261.116515 87.480156 
L 261.452998 81.949518 
L 261.78948 84.995455 
L 262.125963 90.083782 
L 262.462445 86.068637 
L 262.798927 97.51235 
L 263.13541 98.590835 
L 263.471892 92.312168 
L 263.808375 89.469564 
L 264.144857 98.106361 
L 264.48134 94.307567 
L 264.817822 79.990323 
L 265.154304 77.195143 
L 265.490787 77.60675 
L 265.827269 81.709885 
L 266.163752 81.056862 
L 266.500234 90.191836 
L 266.836716 90.141154 
L 267.173199 76.383346 
L 267.509681 81.045721 
L 267.846164 80.034363 
L 268.182646 74.609868 
L 268.519128 81.561917 
L 268.855611 76.332344 
L 269.192093 82.63917 
L 269.528576 83.878636 
L 270.201541 72.987484 
L 270.538023 72.572054 
L 270.874505 72.987089 
L 271.210988 75.963502 
L 271.54747 75.405352 
L 271.883953 64.72987 
L 272.220435 61.33135 
L 272.556917 54.823107 
L 272.8934 64.996132 
L 273.229882 67.983683 
L 273.902847 65.536863 
L 274.239329 66.097943 
L 274.575812 65.139083 
L 274.912294 55.745602 
L 275.585259 67.68804 
L 275.921742 58.105244 
L 276.258224 64.747237 
L 276.594706 68.857247 
L 276.931189 54.344466 
L 277.604154 76.32787 
L 277.940636 70.712575 
L 278.277118 70.663934 
L 278.950083 52.151382 
L 279.286566 54.219808 
L 279.623048 48.930165 
L 280.296013 63.4695 
L 280.632495 63.318064 
L 280.968978 65.080609 
L 281.30546 68.408731 
L 281.978425 51.154074 
L 282.314907 58.558414 
L 282.65139 54.458445 
L 282.987872 54.836484 
L 283.324355 62.510412 
L 283.660837 50.606522 
L 283.997319 55.821006 
L 284.333802 57.525333 
L 284.670284 51.73453 
L 285.006767 60.720146 
L 285.343249 46.206542 
L 285.679731 50.118235 
L 286.016214 55.903857 
L 286.352696 44.883179 
L 286.689179 47.108186 
L 287.025661 47.500837 
L 287.362144 39.320867 
L 287.698626 25.326121 
L 288.035108 39.621726 
L 288.371591 33.635932 
L 288.708073 31.096403 
L 289.044556 37.82711 
L 289.381038 33.458364 
L 289.71752 33.923688 
L 290.054003 31.338701 
L 290.390485 43.849225 
L 290.726968 35.887221 
L 291.06345 34.152591 
L 291.399932 38.156224 
L 291.736415 29.371309 
L 292.40938 26.569134 
L 292.745862 27.748893 
L 293.082345 28.235923 
L 293.418827 26.630801 
L 293.755309 30.765519 
L 294.091792 24.411351 
L 294.428274 31.631529 
L 294.764757 34.745405 
L 295.101239 27.298165 
L 295.437721 39.947997 
L 295.774204 34.650085 
L 296.110686 31.535681 
L 296.447169 32.357967 
L 296.783651 29.552941 
L 297.120133 25.785745 
L 297.456616 28.029551 
L 297.793098 32.459339 
L 298.129581 39.164877 
L 298.466063 38.965799 
L 298.802546 37.269565 
L 299.139028 36.971108 
L 299.811993 21.990325 
L 300.148475 29.094326 
L 300.484958 29.823518 
L 300.82144 28.426618 
L 301.157922 29.970617 
L 301.494405 29.388019 
L 301.830887 29.840348 
L 302.16737 26.194573 
L 302.503852 34.554534 
L 302.840334 31.745728 
L 303.176817 27.760006 
L 303.513299 30.607724 
L 303.849782 25.911249 
L 304.186264 26.448241 
L 304.522747 24.154473 
L 304.859229 23.980776 
L 305.532194 26.737194 
L 305.868676 21.588238 
L 306.205159 29.361309 
L 306.541641 28.144711 
L 306.878123 25.051068 
L 307.214606 23.569665 
L 307.551088 19.001169 
L 307.887571 22.260702 
L 308.224053 23.398435 
L 308.560535 23.361708 
L 308.897018 23.677363 
L 309.2335 26.943454 
L 309.569983 17.307373 
L 309.906465 15.987705 
L 310.57943 19.852807 
L 310.915912 20.624098 
L 311.252395 20.377076 
L 311.588877 20.740419 
L 311.92536 26.952421 
L 312.598324 21.352097 
L 313.271289 31.434757 
L 313.607772 19.81291 
L 313.944254 22.952951 
L 314.280736 28.788303 
L 314.617219 20.165396 
L 314.953701 24.882039 
L 315.290184 24.66967 
L 315.626666 19.25342 
L 315.963149 25.99114 
L 316.299631 26.450779 
L 316.636113 18.200045 
L 316.972596 30.468536 
L 317.309078 23.058111 
L 317.645561 20.100221 
L 317.982043 22.649618 
L 318.318525 23.593309 
L 318.655008 20.563391 
L 318.99149 23.119586 
L 319.327973 28.798568 
L 319.664455 31.073304 
L 320.000938 29.751642 
L 320.33742 30.520643 
L 320.673902 29.064157 
L 321.010385 25.914716 
L 321.346867 33.426586 
L 321.68335 27.20122 
L 322.019832 31.313192 
L 322.356314 30.825105 
L 322.692797 25.529051 
L 323.029279 26.52384 
L 323.365762 24.884329 
L 323.702244 20.654636 
L 324.038726 24.04535 
L 324.375209 24.839692 
L 324.711691 22.87921 
L 325.048174 29.768664 
L 325.384656 28.849314 
L 325.721139 28.360715 
L 326.057621 25.529139 
L 326.394103 30.679352 
L 326.730586 27.256931 
L 327.067068 33.374154 
L 327.403551 31.800959 
L 327.740033 28.33856 
L 328.076515 28.161109 
L 328.74948 28.114245 
L 329.085963 25.892538 
L 329.422445 31.854115 
L 329.758927 35.653498 
L 330.09541 27.115205 
L 330.768375 33.627757 
L 331.104857 29.289433 
L 331.777822 42.832266 
L 332.114304 35.673066 
L 332.450787 42.18192 
L 332.787269 44.721825 
L 333.123752 27.218427 
L 333.460234 31.883916 
L 333.796716 30.919936 
L 334.133199 24.249488 
L 334.469681 27.24119 
L 334.806164 28.366552 
L 335.142646 31.200594 
L 335.479128 35.995467 
L 335.815611 36.440478 
L 336.152093 35.878397 
L 336.488576 30.606955 
L 336.825058 35.02531 
L 337.161541 32.411996 
L 337.498023 33.396633 
L 337.834505 36.773295 
L 338.170988 34.099555 
L 338.50747 36.772791 
L 338.843953 34.51864 
L 339.180435 30.917662 
L 339.516917 34.139308 
L 339.8534 35.694436 
L 340.189882 30.873954 
L 340.526365 34.578033 
L 340.862847 34.821056 
L 341.199329 34.093666 
L 341.535812 34.248423 
L 341.872294 31.979876 
L 342.208777 32.728187 
L 342.545259 30.576162 
L 342.881742 36.951576 
L 343.218224 35.049518 
L 343.554706 43.764022 
L 343.891189 48.993738 
L 344.227671 46.576939 
L 344.564154 42.235592 
L 344.900636 44.427667 
L 345.573601 30.44687 
L 345.910083 34.037046 
L 346.246566 30.89341 
L 346.583048 30.673194 
L 346.91953 29.756206 
L 347.256013 43.244149 
L 347.592495 38.282513 
L 347.928978 47.388712 
L 348.26546 47.234515 
L 348.601943 42.378764 
L 348.938425 45.95394 
L 349.274907 42.180622 
L 349.61139 47.154949 
L 349.947872 49.841284 
L 350.284355 48.592675 
L 350.620837 48.740326 
L 350.957319 44.788965 
L 351.293802 49.144391 
L 351.630284 50.208158 
L 351.966767 47.016634 
L 352.639731 50.17521 
L 352.976214 43.942031 
L 353.312696 50.457854 
L 353.985661 60.121275 
L 354.322144 60.041871 
L 354.658626 66.204706 
L 354.995108 65.091168 
L 355.331591 54.91875 
L 355.668073 52.368467 
L 356.341038 60.222499 
L 356.67752 68.292906 
L 357.014003 65.383425 
L 357.350485 52.119135 
L 357.686968 48.385691 
L 358.02345 51.270908 
L 358.696415 65.383333 
L 359.36938 71.708752 
L 359.705862 69.471975 
L 360.042345 76.537335 
L 360.378827 73.773016 
L 360.715309 73.254429 
L 361.051792 76.225379 
L 361.724757 85.073604 
L 362.061239 78.781958 
L 362.397721 82.931521 
L 362.734204 71.269908 
L 363.070686 67.779306 
L 363.407169 85.082922 
L 363.743651 79.247574 
L 364.080133 89.447185 
L 364.416616 91.25949 
L 364.753098 81.848468 
L 365.089581 82.213452 
L 365.426063 73.877483 
L 365.762546 84.457174 
L 365.762546 84.457174 
" style="fill:none;stroke:#1f77b4;stroke-linecap:square;stroke-width:1.5;"/>
   </g>
   <g id="line2d_22">
    <path clip-path="url(#pf5fb7ff160)" d="M 53.170385 93.899811 
L 53.506867 88.9773 
L 53.84335 87.52133 
L 54.179832 93.223153 
L 54.516314 74.909391 
L 54.852797 73.901595 
L 55.525762 78.97127 
L 55.862244 79.833825 
L 56.198726 72.710806 
L 56.871691 77.390344 
L 57.208174 86.040128 
L 57.544656 69.813029 
L 57.881139 66.314561 
L 58.217621 76.513002 
L 58.554103 67.239843 
L 58.890586 65.486477 
L 59.227068 77.435048 
L 59.900033 58.174434 
L 60.236515 69.843989 
L 60.572998 69.536815 
L 60.90948 66.910558 
L 61.245963 57.390457 
L 61.582445 53.480744 
L 61.918927 63.946802 
L 62.25541 67.456543 
L 62.591892 59.829756 
L 62.928375 55.345652 
L 63.264857 59.715499 
L 63.60134 46.712948 
L 63.937822 48.677062 
L 64.274304 67.939167 
L 64.610787 54.734401 
L 64.947269 63.481168 
L 65.283752 63.513665 
L 65.620234 49.99036 
L 65.956716 53.58003 
L 66.293199 46.437935 
L 66.629681 54.744809 
L 66.966164 53.090394 
L 67.302646 52.468298 
L 67.639128 40.340869 
L 67.975611 43.208455 
L 68.312093 63.267579 
L 68.648576 53.197854 
L 68.985058 55.493385 
L 69.321541 49.859455 
L 69.658023 50.613452 
L 69.994505 48.245274 
L 70.330988 42.723915 
L 70.66747 51.543327 
L 71.003953 46.772366 
L 71.340435 45.90369 
L 72.0134 34.935996 
L 72.349882 38.525828 
L 72.686365 37.104475 
L 73.022847 37.947154 
L 73.359329 37.966434 
L 73.695812 55.810063 
L 74.032294 54.498014 
L 74.368777 49.806479 
L 74.705259 40.251579 
L 75.041742 42.164077 
L 75.714706 28.636873 
L 76.051189 28.940046 
L 76.387671 29.98169 
L 76.724154 35.899679 
L 77.060636 30.395363 
L 77.397118 33.083948 
L 77.733601 31.577925 
L 78.070083 43.308727 
L 78.406566 36.280188 
L 78.743048 32.799367 
L 79.07953 33.538331 
L 79.416013 31.313993 
L 79.752495 25.452627 
L 80.088978 31.361112 
L 80.42546 30.291925 
L 80.761943 30.037248 
L 81.098425 31.948313 
L 81.434907 29.48213 
L 81.77139 31.868407 
L 82.107872 32.410178 
L 82.444355 28.767486 
L 82.780837 27.56594 
L 83.117319 33.582788 
L 83.453802 33.390155 
L 83.790284 30.32974 
L 84.126767 42.775927 
L 84.463249 32.165406 
L 84.799731 33.843717 
L 85.136214 29.699855 
L 85.472696 28.883246 
L 85.809179 26.406838 
L 86.145661 28.438828 
L 86.482144 31.806403 
L 86.818626 23.380211 
L 87.491591 30.181537 
L 87.828073 31.188904 
L 88.164556 30.752949 
L 88.501038 34.768624 
L 88.83752 27.960469 
L 89.174003 29.602902 
L 89.510485 34.505012 
L 89.846968 30.807963 
L 90.18345 30.024542 
L 90.519932 27.891564 
L 90.856415 24.551324 
L 91.192897 26.956993 
L 91.52938 38.248805 
L 91.865862 28.59672 
L 92.202345 32.147615 
L 92.538827 24.167492 
L 92.875309 22.481294 
L 93.211792 29.60781 
L 93.548274 33.337735 
L 93.884757 30.970026 
L 94.221239 26.90507 
L 94.557721 27.162668 
L 94.894204 29.695227 
L 95.230686 34.223242 
L 95.567169 27.106101 
L 95.903651 26.93973 
L 96.240133 28.210598 
L 96.576616 28.969014 
L 96.913098 20.920121 
L 97.249581 22.390843 
L 97.586063 21.287523 
L 97.922546 22.173405 
L 98.259028 27.992248 
L 98.59551 21.866814 
L 98.931993 26.685743 
L 99.268475 23.961288 
L 100.277922 31.618126 
L 100.614405 28.960391 
L 100.950887 23.38138 
L 101.28737 21.947401 
L 101.623852 30.491819 
L 101.960334 27.119032 
L 102.296817 31.810014 
L 102.969782 24.316184 
L 103.306264 24.620501 
L 103.642747 29.642439 
L 103.979229 29.744452 
L 104.315711 28.598729 
L 104.652194 30.037384 
L 104.988676 20.033374 
L 105.325159 23.956468 
L 105.661641 20.19482 
L 105.998123 25.765864 
L 106.334606 25.87184 
L 106.671088 19.35239 
L 107.007571 22.786452 
L 107.344053 24.676996 
L 107.680535 22.626936 
L 108.017018 29.045598 
L 108.3535 23.34989 
L 108.689983 26.185157 
L 109.026465 24.019977 
L 109.362948 23.964651 
L 109.69943 25.997185 
L 110.372395 24.101517 
L 110.708877 21.648584 
L 111.381842 26.941252 
L 111.718324 33.643951 
L 112.054807 27.566717 
L 112.391289 26.421699 
L 112.727772 20.125811 
L 113.064254 28.130707 
L 113.400736 28.079513 
L 113.737219 24.543189 
L 114.073701 25.289531 
L 114.410184 15.065144 
L 114.746666 26.631257 
L 115.083149 29.257382 
L 115.419631 29.841493 
L 115.756113 29.314534 
L 116.092596 27.285306 
L 116.429078 30.954821 
L 116.765561 31.258707 
L 117.102043 37.148048 
L 117.438525 35.337787 
L 117.775008 29.131373 
L 118.11149 26.423564 
L 118.447973 21.481965 
L 119.120937 32.065059 
L 119.793902 19.377291 
L 120.130385 24.606377 
L 120.466867 27.382219 
L 120.80335 25.173346 
L 121.139832 28.655745 
L 121.476314 26.003902 
L 121.812797 28.197123 
L 122.149279 23.898571 
L 122.485762 27.166279 
L 122.822244 29.058144 
L 123.158726 29.046647 
L 123.495209 30.845426 
L 123.831691 24.966582 
L 124.168174 36.089157 
L 124.504656 29.985429 
L 125.177621 27.48657 
L 125.514103 24.327889 
L 125.850586 26.49733 
L 126.187068 22.767309 
L 126.860033 38.819249 
L 127.196515 38.019494 
L 127.532998 34.028263 
L 127.86948 31.385716 
L 128.205963 27.350649 
L 128.542445 27.59896 
L 128.878927 25.913851 
L 129.551892 33.835054 
L 129.888375 39.495436 
L 130.224857 36.718962 
L 130.56134 35.591158 
L 130.897822 36.410084 
L 131.234304 38.775316 
L 131.907269 37.843227 
L 132.243752 35.110685 
L 132.580234 40.58404 
L 132.916716 37.02826 
L 133.253199 37.23934 
L 133.589681 32.630338 
L 133.926164 31.863595 
L 134.262646 29.088177 
L 134.599128 47.96056 
L 134.935611 35.322742 
L 135.272093 41.331599 
L 135.608576 38.698124 
L 135.945058 30.44518 
L 136.281541 37.539134 
L 136.618023 38.92862 
L 136.954505 39.817709 
L 137.290988 48.784715 
L 137.963953 35.449264 
L 138.300435 40.640695 
L 138.636917 51.070573 
L 138.9734 41.25381 
L 139.309882 55.987611 
L 139.646365 59.753785 
L 139.982847 52.973751 
L 140.319329 65.700109 
L 140.655812 56.946683 
L 140.992294 55.967242 
L 141.328777 50.495826 
L 142.001742 46.396813 
L 143.011189 29.395529 
L 143.347671 49.492545 
L 143.684154 42.360224 
L 144.357118 59.790013 
L 144.693601 48.872236 
L 145.030083 44.440262 
L 145.703048 58.946518 
L 146.03953 50.873256 
L 146.712495 54.398563 
L 147.048978 67.169016 
L 147.38546 54.60179 
L 147.721943 58.542789 
L 148.058425 58.819528 
L 148.394907 64.955382 
L 148.73139 75.050637 
L 149.067872 75.009447 
L 149.404355 72.369947 
L 149.740837 65.624598 
L 150.077319 79.074295 
L 151.086767 58.964433 
L 151.423249 79.776878 
L 151.759731 69.551117 
L 152.096214 71.630114 
L 152.432696 77.245701 
L 153.105661 65.562871 
L 153.442144 78.267645 
L 153.778626 76.705044 
L 154.115108 100.202627 
L 154.451591 85.590561 
L 154.788073 95.833293 
L 155.124556 101.629498 
L 155.461038 101.938131 
L 155.79752 86.966564 
L 156.134003 102.552483 
L 156.470485 105.339114 
L 156.806968 109.650036 
L 157.479932 100.72956 
L 157.816415 104.517429 
L 158.152897 112.449725 
L 158.48938 105.868708 
L 158.825862 106.477347 
L 159.498827 91.147993 
L 159.835309 105.890842 
L 160.171792 90.554889 
L 160.508274 90.482326 
L 160.844757 100.654309 
L 161.181239 102.132129 
L 161.517721 98.413878 
L 161.854204 102.508351 
L 162.190686 94.339197 
L 162.527169 92.515391 
L 162.863651 95.415715 
L 163.200133 106.076989 
L 163.536616 106.164014 
L 163.873098 104.984883 
L 164.209581 104.788403 
L 164.546063 96.083601 
L 164.882546 107.632045 
L 165.55551 114.930765 
L 165.891993 107.886446 
L 166.228475 110.930691 
L 166.564958 104.999599 
L 166.90144 103.392375 
L 167.237922 107.014975 
L 167.910887 116.984813 
L 168.24737 115.430966 
L 168.583852 116.047904 
L 168.920334 119.273357 
L 169.256817 128.97005 
L 169.593299 124.232581 
L 169.929782 113.932253 
L 170.266264 129.732806 
L 170.602747 121.224161 
L 170.939229 117.610655 
L 171.275711 121.531705 
L 171.612194 114.071913 
L 171.948676 123.483436 
L 172.285159 115.445707 
L 172.621641 110.641414 
L 172.958123 116.548974 
L 173.294606 110.354535 
L 173.631088 121.52265 
L 173.967571 123.711258 
L 174.304053 120.343123 
L 174.640535 125.699075 
L 174.977018 125.893621 
L 175.3135 126.695978 
L 175.649983 114.006307 
L 175.986465 121.418483 
L 176.322948 125.140033 
L 176.65943 124.752318 
L 176.995912 118.158608 
L 177.332395 127.20385 
L 177.668877 128.390158 
L 178.00536 122.414017 
L 178.341842 125.900531 
L 178.678324 138.202858 
L 179.014807 139.557523 
L 179.351289 132.074798 
L 179.687772 134.810462 
L 180.024254 129.456167 
L 180.360736 133.764046 
L 180.697219 134.185269 
L 181.033701 131.147761 
L 181.370184 134.108549 
L 181.706666 128.509466 
L 182.379631 121.136872 
L 182.716113 135.395422 
L 183.052596 139.506152 
L 183.389078 124.616861 
L 183.725561 130.017419 
L 184.062043 129.434541 
L 184.398525 135.10554 
L 184.735008 145.061343 
L 185.07149 144.598076 
L 185.407973 137.854776 
L 185.744455 140.468546 
L 186.080938 137.381773 
L 186.41742 138.245189 
L 186.753902 136.196289 
L 187.090385 137.138547 
L 187.426867 137.007205 
L 187.76335 129.361104 
L 188.099832 136.188467 
L 188.436314 139.06657 
L 188.772797 140.494544 
L 189.109279 139.220474 
L 189.782244 122.853503 
L 190.118726 141.571217 
L 190.455209 138.326977 
L 190.791691 149.302494 
L 191.128174 141.293898 
L 191.464656 141.444888 
L 191.801139 146.647585 
L 192.137621 148.747984 
L 192.474103 156.16708 
L 192.810586 153.970056 
L 193.147068 157.411717 
L 193.483551 147.431863 
L 193.820033 151.803699 
L 194.156515 148.65256 
L 194.492998 144.437655 
L 195.165963 153.284413 
L 195.502445 154.342359 
L 196.17541 149.303455 
L 196.511892 152.336831 
L 196.848375 142.625985 
L 197.52134 138.234989 
L 197.857822 138.357875 
L 198.194304 144.405052 
L 198.530787 144.040115 
L 198.867269 146.146895 
L 199.203752 144.029579 
L 199.540234 150.646174 
L 199.876716 145.300438 
L 200.213199 149.920809 
L 200.549681 147.429749 
L 200.886164 151.285643 
L 201.222646 147.058543 
L 201.559128 149.947447 
L 201.895611 150.197288 
L 202.232093 149.910232 
L 202.568576 145.061022 
L 202.905058 149.423387 
L 203.241541 145.585988 
L 203.578023 145.868447 
L 203.914505 147.650717 
L 204.58747 137.314189 
L 204.923953 140.485761 
L 205.260435 138.42843 
L 205.596917 147.142758 
L 205.9334 151.116334 
L 206.269882 156.454135 
L 206.606365 154.75941 
L 206.942847 148.855801 
L 207.279329 154.223476 
L 207.615812 142.875232 
L 207.952294 142.962337 
L 208.625259 151.306372 
L 208.961742 149.530972 
L 209.298224 158.69092 
L 209.634706 159.319884 
L 209.971189 159.130446 
L 210.307671 150.299661 
L 210.644154 145.423901 
L 210.980636 146.083795 
L 211.317118 142.616713 
L 211.653601 151.550848 
L 211.990083 152.12427 
L 212.326566 157.867153 
L 212.663048 154.759458 
L 213.336013 151.165431 
L 213.672495 157.690878 
L 214.008978 155.835139 
L 214.681943 148.262219 
L 215.018425 144.839358 
L 215.354907 148.159277 
L 215.69139 148.323622 
L 216.027872 155.399856 
L 216.364355 158.031138 
L 216.700837 155.942164 
L 217.037319 160.602257 
L 217.373802 155.772887 
L 217.710284 154.137644 
L 218.046767 155.132401 
L 218.383249 158.405602 
L 218.719731 157.371003 
L 219.056214 150.572432 
L 219.392696 152.58732 
L 219.729179 146.011527 
L 220.065661 148.517111 
L 220.738626 138.220817 
L 221.075108 135.536387 
L 221.411591 146.076653 
L 221.748073 150.426375 
L 222.084556 152.213849 
L 222.421038 148.472682 
L 222.75752 149.011051 
L 223.094003 137.021897 
L 223.430485 144.993854 
L 223.766968 140.89969 
L 224.10345 148.894586 
L 224.439932 150.641666 
L 224.776415 140.589735 
L 225.112897 145.021029 
L 225.44938 145.03902 
L 225.785862 144.813248 
L 226.122345 149.210433 
L 226.458827 138.863633 
L 227.131792 153.455363 
L 227.468274 146.379842 
L 227.804757 152.77229 
L 228.141239 151.222214 
L 228.814204 139.854298 
L 229.150686 126.514731 
L 229.487169 126.61375 
L 229.823651 134.261781 
L 230.160133 136.086253 
L 230.833098 149.135835 
L 231.169581 147.060897 
L 231.506063 148.525174 
L 231.842546 145.448545 
L 232.179028 147.952841 
L 232.51551 142.128994 
L 232.851993 145.712389 
L 233.188475 139.012821 
L 233.86144 141.830105 
L 234.197922 142.18352 
L 234.534405 141.740831 
L 234.870887 143.86818 
L 235.20737 144.474549 
L 235.543852 134.472708 
L 235.880334 138.599877 
L 236.553299 127.520153 
L 236.889782 134.253662 
L 237.226264 125.124036 
L 237.899229 132.946893 
L 238.235711 127.407459 
L 238.572194 131.533619 
L 239.245159 130.467146 
L 239.581641 128.561141 
L 239.918123 136.263161 
L 240.254606 131.656313 
L 240.591088 124.114819 
L 240.927571 128.881992 
L 241.600535 120.827999 
L 241.937018 125.506995 
L 242.2735 122.546335 
L 242.609983 114.237872 
L 242.946465 140.388664 
L 243.282948 130.350256 
L 243.61943 133.567386 
L 243.955912 132.422688 
L 244.292395 132.655834 
L 244.628877 119.223528 
L 244.96536 118.051455 
L 245.301842 113.321348 
L 245.638324 104.748714 
L 245.974807 122.345144 
L 246.311289 118.366769 
L 246.647772 134.437335 
L 247.320736 121.15849 
L 247.993701 131.72674 
L 248.330184 126.830266 
L 248.666666 119.278573 
L 249.003149 123.261107 
L 249.339631 110.448781 
L 249.676113 122.324446 
L 250.012596 115.536662 
L 250.349078 118.214931 
L 250.685561 124.16928 
L 251.022043 124.076082 
L 251.358525 124.997194 
L 251.695008 120.540007 
L 252.03149 120.477074 
L 252.367973 126.243625 
L 252.704455 112.317843 
L 253.040938 115.144343 
L 253.37742 107.676615 
L 253.713902 113.51089 
L 254.050385 112.599918 
L 254.386867 118.989036 
L 254.72335 112.837212 
L 255.396314 117.193103 
L 255.732797 110.59592 
L 256.069279 120.495073 
L 256.405762 117.040568 
L 256.742244 115.627762 
L 257.078726 107.041777 
L 257.415209 110.008066 
L 258.088174 89.317323 
L 258.424656 100.667444 
L 258.761139 98.635302 
L 259.097621 88.204896 
L 259.434103 100.031986 
L 259.770586 102.813649 
L 260.107068 90.567245 
L 260.443551 102.034616 
L 260.780033 86.879827 
L 261.116515 89.401345 
L 261.452998 76.523106 
L 261.78948 91.958979 
L 262.462445 78.438329 
L 262.798927 77.934469 
L 263.13541 106.251683 
L 263.471892 94.64931 
L 263.808375 91.691054 
L 264.48134 102.477008 
L 264.817822 94.941771 
L 265.154304 96.739542 
L 265.490787 88.520587 
L 265.827269 74.784793 
L 266.163752 68.295755 
L 266.500234 78.325739 
L 266.836716 93.628481 
L 267.173199 84.070189 
L 267.509681 83.89035 
L 267.846164 87.235408 
L 268.182646 76.837238 
L 268.519128 81.997755 
L 268.855611 73.717382 
L 269.192093 70.960884 
L 269.528576 84.028445 
L 269.865058 80.836867 
L 270.201541 87.933952 
L 270.874505 68.412686 
L 271.210988 63.717991 
L 271.54747 77.741098 
L 271.883953 77.562377 
L 272.556917 63.703313 
L 272.8934 54.939237 
L 273.229882 59.135659 
L 273.566365 50.863232 
L 273.902847 67.485393 
L 274.239329 66.185872 
L 274.575812 68.988272 
L 274.912294 56.863273 
L 275.248777 60.795943 
L 275.585259 60.958755 
L 275.921742 51.653415 
L 276.258224 53.945259 
L 276.594706 73.607739 
L 276.931189 54.587228 
L 277.267671 53.871001 
L 277.604154 66.84832 
L 277.940636 57.532777 
L 278.277118 74.333117 
L 278.613601 73.984965 
L 279.286566 59.8007 
L 279.623048 50.375101 
L 279.95953 44.546579 
L 280.296013 53.701282 
L 280.632495 44.466932 
L 281.30546 64.345158 
L 281.641943 69.273856 
L 281.978425 59.027153 
L 282.314907 58.350757 
L 282.65139 50.6431 
L 282.987872 47.030965 
L 283.324355 56.778915 
L 283.997319 48.974858 
L 284.333802 60.134526 
L 284.670284 44.919349 
L 285.006767 55.19958 
L 285.343249 49.968702 
L 285.679731 47.710684 
L 286.016214 58.72824 
L 286.352696 40.556192 
L 286.689179 43.001703 
L 287.025661 50.961962 
L 287.362144 46.248962 
L 287.698626 38.339088 
L 288.035108 38.293434 
L 288.708073 25.121999 
L 289.044556 37.176199 
L 289.381038 31.758563 
L 289.71752 30.36754 
L 290.390485 32.965289 
L 290.726968 32.848416 
L 291.06345 27.908114 
L 291.399932 42.782384 
L 291.736415 33.743602 
L 292.072897 29.049113 
L 292.40938 29.093037 
L 292.745862 29.803622 
L 293.082345 29.836561 
L 293.418827 26.349558 
L 294.091792 28.726059 
L 294.428274 29.096144 
L 294.764757 31.738611 
L 295.101239 22.622668 
L 295.437721 32.666344 
L 296.110686 29.586505 
L 296.447169 36.749071 
L 296.783651 33.974106 
L 297.120133 27.586966 
L 297.456616 26.170649 
L 298.802546 32.4362 
L 299.139028 40.622332 
L 299.47551 35.982844 
L 299.811993 28.114622 
L 300.148475 28.027781 
L 300.82144 27.44801 
L 301.157922 30.340325 
L 301.494405 30.177285 
L 302.16737 28.848473 
L 302.503852 28.867657 
L 302.840334 30.085569 
L 303.176817 25.993366 
L 303.513299 36.446567 
L 303.849782 30.791101 
L 304.186264 27.030782 
L 304.522747 24.844632 
L 304.859229 28.105422 
L 305.195711 28.623142 
L 305.532194 27.304683 
L 305.868676 23.343132 
L 306.205159 27.750302 
L 306.541641 28.546157 
L 306.878123 25.524335 
L 307.214606 31.280909 
L 307.551088 27.132227 
L 307.887571 27.806069 
L 308.224053 18.346824 
L 308.560535 22.981583 
L 308.897018 25.260787 
L 309.2335 31.321079 
L 309.569983 25.239361 
L 309.906465 25.133305 
L 310.242948 24.643376 
L 310.57943 20.136372 
L 310.915912 18.808056 
L 311.252395 23.93738 
L 311.588877 26.038563 
L 311.92536 27.315356 
L 312.261842 21.332785 
L 312.598324 22.480614 
L 312.934807 29.03635 
L 313.271289 29.379068 
L 313.607772 22.982736 
L 313.944254 22.620658 
L 314.280736 30.753686 
L 314.617219 23.45316 
L 314.953701 27.5794 
L 315.290184 26.558869 
L 315.626666 24.58528 
L 315.963149 26.308428 
L 316.299631 26.480027 
L 316.636113 21.504928 
L 316.972596 30.129421 
L 317.645561 23.595415 
L 317.982043 28.553924 
L 318.318525 23.627842 
L 318.655008 24.631759 
L 318.99149 22.853773 
L 319.327973 29.261682 
L 319.664455 21.506802 
L 320.000938 27.938995 
L 320.33742 27.629674 
L 320.673902 37.594223 
L 321.010385 28.924977 
L 321.346867 29.714956 
L 321.68335 23.757286 
L 322.356314 35.933387 
L 322.692797 28.425601 
L 323.029279 28.721752 
L 323.365762 26.468121 
L 323.702244 28.218052 
L 324.038726 27.001486 
L 324.375209 27.192565 
L 324.711691 19.445644 
L 325.048174 28.60708 
L 325.384656 25.833873 
L 325.721139 29.147435 
L 326.057621 28.65179 
L 326.394103 30.842127 
L 326.730586 27.210076 
L 327.067068 26.08312 
L 327.403551 30.039859 
L 327.740033 28.688981 
L 328.076515 35.444676 
L 328.74948 24.67389 
L 329.085963 22.84165 
L 329.422445 29.818322 
L 329.758927 32.269573 
L 330.09541 27.250013 
L 330.431892 30.409351 
L 330.768375 32.360729 
L 331.104857 28.85885 
L 331.44134 29.703162 
L 331.777822 31.427647 
L 332.114304 29.807681 
L 332.450787 36.235175 
L 332.787269 45.203218 
L 333.123752 31.819198 
L 333.460234 35.678599 
L 333.796716 34.443621 
L 334.133199 28.583533 
L 334.469681 30.227727 
L 334.806164 28.509207 
L 335.142646 24.982411 
L 335.479128 28.142253 
L 335.815611 29.706164 
L 336.152093 33.584429 
L 336.488576 35.588291 
L 336.825058 32.384333 
L 337.161541 32.082161 
L 337.498023 26.402595 
L 337.834505 35.08715 
L 338.170988 30.5646 
L 338.50747 33.673415 
L 338.843953 32.479612 
L 339.180435 32.45532 
L 339.516917 33.466891 
L 339.8534 32.308277 
L 340.189882 26.821936 
L 340.862847 34.97231 
L 341.199329 30.376851 
L 341.535812 31.948129 
L 341.872294 30.986095 
L 342.208777 33.392253 
L 342.545259 32.428273 
L 342.881742 29.509088 
L 343.218224 30.405884 
L 343.554706 28.638338 
L 343.891189 39.882987 
L 344.227671 35.527477 
L 344.564154 42.289413 
L 344.900636 45.504453 
L 345.237118 41.547747 
L 345.573601 33.303867 
L 345.910083 37.679819 
L 346.583048 28.673864 
L 346.91953 29.269384 
L 347.592495 31.665726 
L 347.928978 29.539257 
L 348.26546 44.536398 
L 348.601943 37.770839 
L 348.938425 46.37236 
L 349.61139 35.814768 
L 350.284355 42.128351 
L 350.620837 46.827428 
L 350.957319 45.28973 
L 351.293802 42.398464 
L 351.630284 42.051207 
L 351.966767 39.645962 
L 352.303249 48.707835 
L 352.639731 49.373118 
L 352.976214 39.376893 
L 353.312696 39.868403 
L 353.649179 48.929628 
L 353.985661 42.752751 
L 354.658626 49.899456 
L 354.995108 66.01025 
L 355.331591 59.861989 
L 355.668073 65.610092 
L 356.341038 45.59424 
L 356.67752 44.051362 
L 357.014003 63.224512 
L 357.350485 70.627996 
L 358.359932 42.236993 
L 358.696415 50.724196 
L 359.032897 52.852154 
L 359.36938 57.680939 
L 360.042345 71.153744 
L 360.378827 73.457934 
L 360.715309 64.514507 
L 361.051792 74.368703 
L 361.388274 70.347449 
L 361.724757 79.543698 
L 362.061239 72.620719 
L 362.397721 86.344053 
L 362.734204 83.235534 
L 363.070686 70.375502 
L 363.407169 80.91564 
L 363.743651 64.115899 
L 364.080133 70.308558 
L 364.416616 90.134484 
L 364.753098 94.853658 
L 365.089581 91.238194 
L 365.762546 71.324858 
L 366.099028 90.658651 
L 366.43551 76.098642 
L 366.771993 88.179677 
L 366.771993 88.179677 
" style="fill:none;stroke:#bf00bf;stroke-dasharray:5.55,2.4;stroke-dashoffset:0;stroke-width:1.5;"/>
   </g>
   <g id="line2d_23">
    <path clip-path="url(#pf5fb7ff160)" d="M 57.208174 103.539818 
L 57.544656 102.999752 
L 57.881139 102.942789 
L 58.217621 105.541275 
L 58.554103 73.682695 
L 58.890586 67.32496 
L 59.227068 65.261143 
L 59.563551 68.637732 
L 59.900033 73.742036 
L 60.236515 66.740963 
L 60.572998 65.255891 
L 60.90948 66.764008 
L 61.245963 81.464343 
L 61.918927 53.916763 
L 62.25541 61.121194 
L 62.591892 52.234635 
L 62.928375 51.11103 
L 63.264857 65.013237 
L 63.937822 41.016969 
L 64.274304 50.307336 
L 64.610787 53.281716 
L 64.947269 52.476621 
L 65.283752 39.533212 
L 65.620234 33.184984 
L 65.956716 39.635517 
L 66.293199 48.651112 
L 66.629681 43.875107 
L 66.966164 35.205689 
L 67.302646 35.623144 
L 67.639128 31.159039 
L 67.975611 31.173716 
L 68.312093 44.741345 
L 68.648576 35.791525 
L 68.985058 43.833008 
L 69.321541 44.023883 
L 69.658023 32.450516 
L 69.994505 32.759197 
L 70.330988 30.759106 
L 70.66747 32.266739 
L 71.003953 32.791312 
L 71.340435 32.505554 
L 71.676917 30.137636 
L 72.0134 30.165163 
L 72.349882 37.963631 
L 72.686365 34.422456 
L 73.022847 34.962186 
L 73.359329 31.653596 
L 74.032294 31.049716 
L 74.368777 30.274502 
L 74.705259 31.412379 
L 75.041742 30.844465 
L 75.378224 30.713588 
L 75.714706 30.000218 
L 76.051189 29.670975 
L 76.387671 29.807169 
L 77.060636 29.827289 
L 77.397118 29.821757 
L 77.733601 32.398601 
L 78.070083 33.538423 
L 78.406566 32.068205 
L 78.743048 30.026487 
L 79.07953 30.017007 
L 79.752495 29.484932 
L 80.42546 29.390493 
L 80.761943 29.591749 
L 81.098425 29.488455 
L 81.77139 29.5041 
L 82.107872 30.004629 
L 82.780837 29.617739 
L 83.453802 29.476709 
L 83.790284 29.299009 
L 84.126767 29.438573 
L 85.472696 29.418861 
L 86.145661 29.507439 
L 86.818626 29.350428 
L 87.155108 29.523044 
L 87.828073 29.476853 
L 88.164556 29.98695 
L 88.501038 29.612935 
L 88.83752 29.614792 
L 89.510485 29.372807 
L 90.18345 29.327985 
L 90.519932 29.437476 
L 90.856415 29.248015 
L 92.202345 29.455387 
L 92.538827 29.597274 
L 92.875309 29.415626 
L 93.211792 29.4083 
L 93.548274 29.577521 
L 94.221239 29.449262 
L 95.230686 29.265541 
L 95.567169 29.6285 
L 95.903651 29.447557 
L 96.240133 29.522059 
L 96.913098 29.143503 
L 97.586063 29.475396 
L 98.259028 29.369612 
L 98.931993 29.359483 
L 99.268475 29.529369 
L 99.94144 29.334078 
L 100.614405 29.340772 
L 100.950887 29.122102 
L 101.960334 29.06467 
L 102.296817 29.241473 
L 102.633299 29.121701 
L 102.969782 29.227694 
L 103.642747 29.22586 
L 104.315711 29.437733 
L 104.652194 29.396955 
L 105.325159 29.130517 
L 105.661641 29.344991 
L 105.998123 29.293564 
L 106.334606 29.452353 
L 107.344053 29.201448 
L 108.017018 29.378507 
L 108.689983 29.410686 
L 109.026465 29.116793 
L 109.362948 29.149564 
L 109.69943 29.036911 
L 110.372395 29.218606 
L 110.708877 29.025485 
L 112.054807 29.299762 
L 112.391289 29.180086 
L 113.064254 29.19188 
L 113.737219 29.220712 
L 115.419631 29.233306 
L 115.756113 29.467469 
L 116.765561 29.095399 
L 117.438525 29.302364 
L 117.775008 29.206532 
L 118.11149 29.230664 
L 118.447973 28.906162 
L 119.120937 29.311547 
L 119.793902 29.409405 
L 120.130385 29.339114 
L 120.80335 29.449294 
L 121.139832 29.68674 
L 121.476314 29.686724 
L 122.485762 29.119884 
L 122.822244 29.192024 
L 123.158726 29.394264 
L 124.168174 29.152375 
L 125.177621 29.328097 
L 126.187068 29.210767 
L 127.532998 29.429958 
L 127.86948 29.272635 
L 128.205963 29.602654 
L 128.878927 29.394753 
L 130.224857 29.152055 
L 131.234304 29.851077 
L 132.243752 29.358226 
L 133.253199 29.343134 
L 133.589681 29.509577 
L 133.926164 29.822173 
L 134.935611 29.72044 
L 135.608576 29.865561 
L 136.281541 29.674394 
L 136.618023 29.924667 
L 137.963953 29.513652 
L 138.300435 29.419309 
L 138.636917 30.382144 
L 138.9734 29.85894 
L 139.309882 30.096298 
L 139.982847 29.504412 
L 140.319329 29.734564 
L 140.992294 29.958351 
L 141.328777 30.837339 
L 142.001742 29.758352 
L 142.338224 29.907196 
L 142.674706 31.148735 
L 143.011189 30.294287 
L 143.684154 36.842853 
L 144.020636 33.620455 
L 144.357118 44.976149 
L 144.693601 36.285617 
L 145.030083 34.929815 
L 145.366566 31.930346 
L 145.703048 31.080518 
L 146.03953 30.690249 
L 146.376013 30.032741 
L 147.048978 29.449967 
L 147.38546 30.59079 
L 147.721943 30.357347 
L 148.058425 31.740908 
L 148.394907 36.503887 
L 148.73139 31.854867 
L 149.067872 30.493629 
L 149.404355 31.511077 
L 149.740837 34.950504 
L 150.077319 32.934191 
L 150.413802 32.665928 
L 150.750284 32.660667 
L 151.086767 44.724871 
L 151.423249 36.510332 
L 151.759731 37.966334 
L 152.096214 36.262662 
L 152.432696 42.428505 
L 152.769179 61.360374 
L 153.105661 65.524217 
L 153.442144 63.303013 
L 153.778626 51.913884 
L 154.115108 66.946486 
L 154.451591 60.807385 
L 154.788073 52.050333 
L 155.124556 39.193933 
L 155.461038 64.856472 
L 155.79752 59.682761 
L 156.134003 62.233642 
L 156.470485 66.462881 
L 157.14345 51.948504 
L 157.479932 66.940671 
L 157.816415 67.269265 
L 158.152897 110.33736 
L 158.48938 104.662546 
L 159.162345 114.177161 
L 159.498827 113.443634 
L 159.835309 108.843399 
L 160.508274 116.599869 
L 160.844757 118.854084 
L 161.181239 119.012211 
L 161.517721 115.179749 
L 161.854204 115.092948 
L 162.190686 120.688306 
L 162.863651 118.595752 
L 163.200133 113.147275 
L 163.536616 103.851006 
L 163.873098 115.88669 
L 164.546063 107.592012 
L 164.882546 111.783005 
L 165.219028 113.209655 
L 165.55551 113.66224 
L 165.891993 114.606127 
L 166.564958 106.943792 
L 166.90144 109.204728 
L 167.237922 115.887183 
L 167.574405 117.644764 
L 167.910887 117.654324 
L 168.24737 116.768049 
L 168.583852 112.155536 
L 169.256817 120.693327 
L 169.593299 123.546841 
L 170.266264 120.479332 
L 170.602747 117.030443 
L 170.939229 115.271866 
L 171.275711 117.564493 
L 171.948676 124.941236 
L 172.285159 124.914757 
L 172.621641 124.489811 
L 172.958123 126.147865 
L 173.294606 132.781026 
L 173.631088 132.062483 
L 173.967571 125.964432 
L 174.304053 131.963017 
L 174.640535 130.701717 
L 174.977018 127.093053 
L 175.3135 127.18818 
L 175.649983 123.952267 
L 175.986465 128.632296 
L 176.322948 126.931118 
L 176.65943 122.454851 
L 176.995912 123.190432 
L 177.332395 121.116231 
L 177.668877 127.171495 
L 178.00536 130.438874 
L 178.341842 128.643866 
L 178.678324 130.481942 
L 179.351289 132.572348 
L 179.687772 126.579785 
L 180.024254 126.840419 
L 180.360736 130.411251 
L 180.697219 131.143678 
L 181.033701 128.510907 
L 181.706666 133.476534 
L 182.043149 130.427809 
L 182.379631 131.011656 
L 182.716113 139.469658 
L 183.052596 142.067719 
L 183.389078 137.757414 
L 183.725561 136.981255 
L 184.062043 134.840343 
L 184.735008 138.018632 
L 185.07149 136.164246 
L 185.407973 136.955178 
L 186.080938 131.566742 
L 186.41742 128.387004 
L 186.753902 136.886112 
L 187.090385 141.569232 
L 187.426867 134.689817 
L 187.76335 133.416468 
L 188.099832 133.784487 
L 188.436314 137.619556 
L 188.772797 145.103346 
L 189.109279 145.642059 
L 189.445762 141.15407 
L 189.782244 141.215673 
L 190.118726 140.597846 
L 190.455209 140.72279 
L 190.791691 139.518226 
L 191.128174 139.445229 
L 191.464656 139.83907 
L 191.801139 135.420635 
L 192.137621 137.663656 
L 192.474103 141.026291 
L 192.810586 142.677235 
L 193.147068 141.862172 
L 193.820033 130.381322 
L 194.156515 141.542762 
L 194.492998 142.227372 
L 194.82948 146.735602 
L 195.502445 142.30117 
L 195.838927 145.819463 
L 196.17541 146.983673 
L 196.511892 149.521404 
L 196.848375 149.068779 
L 197.184857 149.985992 
L 197.52134 147.014587 
L 197.857822 147.5972 
L 198.194304 147.07137 
L 198.530787 145.265825 
L 199.203752 148.656587 
L 199.540234 149.084808 
L 200.213199 147.063435 
L 200.549681 148.117346 
L 200.886164 145.276514 
L 201.222646 141.465145 
L 201.559128 140.296075 
L 201.895611 140.679482 
L 202.232093 144.71933 
L 202.905058 145.74882 
L 203.241541 145.130728 
L 203.578023 147.324493 
L 203.914505 146.165671 
L 204.250988 146.991736 
L 204.58747 146.520583 
L 204.923953 147.646353 
L 205.260435 146.58 
L 205.9334 147.499615 
L 206.269882 147.325358 
L 206.606365 145.696488 
L 206.942847 146.894519 
L 207.279329 146.06168 
L 207.615812 145.563409 
L 207.952294 146.383989 
L 208.288777 144.43141 
L 208.625259 140.237858 
L 208.961742 141.442126 
L 209.298224 141.385431 
L 209.634706 145.913301 
L 210.307671 149.725158 
L 210.644154 149.332807 
L 210.980636 146.99955 
L 211.317118 148.682793 
L 211.990083 143.179406 
L 212.663048 147.872318 
L 212.99953 147.413127 
L 213.336013 150.304865 
L 213.672495 151.1668 
L 214.008978 150.838654 
L 214.681943 145.265777 
L 215.018425 145.726641 
L 215.354907 144.618229 
L 215.69139 147.635504 
L 216.027872 148.362975 
L 216.364355 150.170457 
L 217.373802 147.818553 
L 217.710284 150.072832 
L 218.046767 149.858942 
L 218.719731 146.56458 
L 219.056214 145.466536 
L 219.392696 146.490406 
L 219.729179 146.807342 
L 220.065661 149.190785 
L 220.402144 150.524889 
L 220.738626 149.724285 
L 221.075108 151.1762 
L 221.748073 148.839484 
L 222.084556 149.259994 
L 222.421038 150.519236 
L 222.75752 150.299405 
L 223.094003 147.753651 
L 223.430485 148.109515 
L 223.766968 146.292873 
L 224.10345 146.498156 
L 224.439932 144.991028 
L 224.776415 140.865069 
L 225.112897 138.631743 
L 225.44938 145.241189 
L 225.785862 147.70425 
L 226.122345 148.202617 
L 226.458827 146.859177 
L 226.795309 146.831074 
L 227.131792 141.554339 
L 227.468274 144.272333 
L 227.804757 143.645683 
L 228.141239 146.584821 
L 228.477721 147.725659 
L 228.814204 143.808538 
L 229.487169 145.474655 
L 229.823651 145.490548 
L 230.160133 146.922038 
L 230.496616 142.856064 
L 231.169581 148.746126 
L 231.506063 146.638569 
L 231.842546 148.02924 
L 232.179028 147.971136 
L 232.51551 145.925855 
L 232.851993 141.944352 
L 233.188475 133.545648 
L 233.524958 131.191445 
L 233.86144 136.719085 
L 234.197922 139.284928 
L 234.534405 144.135099 
L 234.870887 146.934512 
L 235.20737 146.515987 
L 235.543852 146.627216 
L 235.880334 145.753536 
L 236.216817 146.422717 
L 236.553299 144.568436 
L 236.889782 145.350424 
L 237.226264 142.44577 
L 237.562747 141.732528 
L 237.899229 143.116634 
L 238.235711 143.717871 
L 238.572194 143.523036 
L 239.245159 145.177015 
L 239.581641 139.43354 
L 239.918123 139.576931 
L 240.254606 137.767655 
L 240.591088 133.574576 
L 240.927571 136.275948 
L 241.264053 132.855673 
L 241.600535 133.566329 
L 241.937018 136.18492 
L 242.2735 134.036113 
L 242.609983 135.121697 
L 242.946465 135.344843 
L 243.282948 135.279909 
L 243.61943 134.048955 
L 243.955912 137.97277 
L 244.292395 137.228862 
L 244.628877 131.720014 
L 244.96536 132.247293 
L 245.301842 131.658122 
L 245.638324 128.971691 
L 245.974807 130.317717 
L 246.311289 129.667015 
L 246.647772 125.553106 
L 246.984254 140.572001 
L 247.657219 137.014483 
L 247.993701 135.425102 
L 248.330184 136.427738 
L 249.003149 126.075301 
L 249.676113 117.741676 
L 250.012596 126.96007 
L 250.349078 127.521178 
L 250.685561 136.178026 
L 251.022043 135.065955 
L 251.358525 129.552904 
L 251.695008 130.428209 
L 252.03149 135.220051 
L 252.367973 133.887797 
L 252.704455 128.814928 
L 253.040938 128.246775 
L 253.37742 123.914572 
L 253.713902 127.413208 
L 254.050385 125.465376 
L 254.386867 125.585028 
L 254.72335 129.657182 
L 255.396314 131.345422 
L 255.732797 128.522156 
L 256.069279 127.228454 
L 256.405762 130.94066 
L 256.742244 126.280816 
L 257.078726 123.605162 
L 257.415209 119.012255 
L 257.751691 121.294172 
L 258.088174 122.6959 
L 258.424656 125.917481 
L 258.761139 124.330318 
L 259.097621 123.413266 
L 259.434103 124.707873 
L 259.770586 121.878443 
L 260.107068 126.250199 
L 260.443551 126.172502 
L 260.780033 124.743343 
L 261.116515 120.914903 
L 261.452998 119.019598 
L 261.78948 114.133813 
L 262.125963 107.131 
L 262.462445 112.108613 
L 262.798927 111.624938 
L 263.13541 107.724895 
L 263.471892 112.221603 
L 263.808375 114.775284 
L 264.144857 110.037719 
L 264.48134 113.824988 
L 264.817822 103.804363 
L 265.154304 100.215684 
L 265.490787 76.174034 
L 265.827269 98.345264 
L 266.163752 94.436054 
L 266.500234 77.373005 
L 266.836716 71.794115 
L 267.173199 114.198491 
L 268.182646 109.615727 
L 268.519128 113.168616 
L 268.855611 112.05229 
L 269.192093 112.300133 
L 269.528576 102.838013 
L 269.865058 70.166268 
L 270.201541 56.677658 
L 270.538023 66.112383 
L 270.874505 102.121752 
L 271.54747 92.084694 
L 271.883953 89.549837 
L 272.220435 70.952423 
L 272.556917 77.994142 
L 273.229882 59.153614 
L 273.566365 76.333131 
L 273.902847 75.550812 
L 274.239329 92.363226 
L 274.575812 78.137782 
L 274.912294 58.592242 
L 275.248777 46.099473 
L 275.585259 63.130813 
L 275.921742 68.886409 
L 276.258224 64.789046 
L 276.931189 34.592045 
L 277.267671 35.598584 
L 277.604154 32.140161 
L 277.940636 46.990436 
L 278.277118 49.082255 
L 278.613601 53.447974 
L 278.950083 39.347457 
L 279.286566 39.619059 
L 279.623048 38.901117 
L 279.95953 33.075717 
L 280.296013 33.250223 
L 280.632495 54.79106 
L 280.968978 37.857723 
L 281.30546 34.361613 
L 281.641943 42.637439 
L 281.978425 36.439769 
L 282.314907 58.432946 
L 282.65139 63.496498 
L 282.987872 54.871393 
L 283.660837 31.869624 
L 283.997319 30.409431 
L 284.333802 31.920426 
L 284.670284 30.656132 
L 285.006767 32.434743 
L 285.679731 51.452063 
L 286.016214 43.350345 
L 286.689179 31.765913 
L 287.025661 30.810933 
L 287.362144 33.598337 
L 288.035108 31.569349 
L 288.371591 36.002941 
L 288.708073 30.825097 
L 289.044556 33.111595 
L 289.381038 31.682147 
L 289.71752 31.001116 
L 290.054003 34.780362 
L 290.390485 30.500619 
L 290.726968 30.255478 
L 291.06345 31.18101 
L 291.399932 30.736823 
L 291.736415 30.068098 
L 292.745862 29.291883 
L 293.082345 29.670935 
L 293.755309 29.469215 
L 294.764757 29.540698 
L 295.101239 29.396618 
L 295.437721 29.962498 
L 296.110686 29.479984 
L 296.783651 29.37974 
L 297.456616 29.30692 
L 298.466063 29.359435 
L 298.802546 29.454747 
L 299.139028 29.223778 
L 299.47551 29.474379 
L 300.148475 29.413328 
L 300.484958 29.673841 
L 300.82144 29.612382 
L 301.494405 29.320539 
L 302.16737 29.343206 
L 302.840334 29.49514 
L 303.176817 29.867467 
L 303.513299 29.752339 
L 304.186264 29.371413 
L 304.859229 29.292187 
L 305.532194 29.413488 
L 307.214606 29.292123 
L 307.551088 29.608011 
L 308.560535 29.257558 
L 309.569983 29.310218 
L 309.906465 29.192 
L 310.57943 29.320195 
L 310.915912 29.249592 
L 311.252395 29.415826 
L 312.598324 29.080275 
L 312.934807 29.162383 
L 313.271289 29.368883 
L 314.953701 28.973145 
L 315.963149 29.267014 
L 316.299631 29.118162 
L 316.636113 29.105111 
L 317.309078 29.349171 
L 317.982043 29.167467 
L 318.318525 29.364191 
L 318.655008 29.188789 
L 319.327973 29.281258 
L 319.664455 29.200111 
L 320.33742 29.258119 
L 320.673902 29.108554 
L 321.010385 29.335616 
L 323.029279 29.142919 
L 323.365762 29.30065 
L 323.702244 29.133895 
L 324.711691 29.625457 
L 325.048174 29.458262 
L 325.384656 29.436011 
L 325.721139 29.231769 
L 326.057621 29.343182 
L 326.394103 29.589067 
L 326.730586 29.431231 
L 328.412998 29.295926 
L 328.74948 29.063028 
L 329.085963 29.265301 
L 329.422445 29.241529 
L 330.431892 29.420118 
L 331.104857 29.277015 
L 331.44134 29.377787 
L 331.777822 29.356345 
L 332.114304 29.583214 
L 333.123752 29.178485 
L 333.796716 29.456268 
L 334.133199 29.367194 
L 334.806164 29.493003 
L 335.142646 29.388011 
L 336.152093 29.416259 
L 336.488576 29.635225 
L 336.825058 30.289306 
L 337.161541 29.731457 
L 337.834505 29.615289 
L 338.170988 29.390069 
L 338.843953 29.375633 
L 339.180435 29.246974 
L 340.189882 29.512867 
L 340.526365 29.661879 
L 341.535812 29.337745 
L 341.872294 29.57355 
L 342.208777 29.47771 
L 342.881742 29.541547 
L 344.564154 29.456925 
L 344.900636 29.591549 
L 345.237118 29.478551 
L 346.583048 29.531227 
L 347.256013 29.437797 
L 347.592495 29.381454 
L 347.928978 29.762619 
L 348.26546 29.712362 
L 348.938425 30.449472 
L 349.274907 30.141583 
L 349.61139 29.672248 
L 349.947872 29.764637 
L 350.620837 29.424738 
L 351.966767 29.418933 
L 352.303249 30.086874 
L 352.639731 29.906724 
L 352.976214 30.521724 
L 353.649179 29.724804 
L 354.322144 30.055143 
L 354.658626 30.624842 
L 354.995108 30.580669 
L 355.331591 30.193178 
L 356.004556 29.939735 
L 356.341038 30.762012 
L 356.67752 31.223685 
L 357.014003 30.099436 
L 357.350485 29.906259 
L 357.686968 30.692723 
L 358.02345 30.331886 
L 358.359932 30.638654 
L 358.696415 31.21206 
L 359.032897 42.314482 
L 359.36938 40.774751 
L 359.705862 48.068062 
L 360.042345 35.997869 
L 360.378827 30.731411 
L 360.715309 30.288266 
L 361.051792 38.032132 
L 361.388274 53.977392 
L 361.724757 47.254552 
L 362.061239 32.778429 
L 362.397721 30.110694 
L 363.070686 32.293169 
L 363.407169 35.147348 
L 363.743651 43.106802 
L 364.080133 54.802239 
L 364.416616 61.400695 
L 364.753098 52.003654 
L 365.089581 61.755059 
L 365.426063 56.496768 
L 365.762546 69.307636 
L 366.099028 64.555103 
L 366.43551 83.89998 
L 366.771993 84.076307 
L 367.108475 66.628643 
L 367.444958 73.47503 
L 367.78144 49.863366 
L 368.117922 54.890441 
L 368.454405 91.864056 
L 368.790887 105.970144 
L 369.12737 107.996029 
L 369.463852 90.205069 
L 369.800334 62.036581 
L 370.136817 90.134248 
L 370.473299 74.489717 
L 370.809782 95.487518 
L 370.809782 95.487518 
" style="fill:none;stroke:#008000;stroke-dasharray:9.6,2.4,1.5,2.4;stroke-dashoffset:0;stroke-width:1.5;"/>
   </g>
   <g id="line2d_24">
    <path clip-path="url(#pf5fb7ff160)" d="M 73.359329 134.916903 
L 73.695812 134.781045 
L 74.032294 134.783455 
L 74.368777 135.465056 
L 74.705259 29.436772 
L 75.714706 29.398516 
L 76.387671 29.395313 
L 77.060636 29.395201 
L 77.397118 33.44834 
L 77.733601 29.395834 
L 84.799731 29.390141 
L 173.967571 29.395922 
L 174.304053 136.840058 
L 174.640535 135.265721 
L 175.3135 137.920879 
L 175.649983 137.713202 
L 175.986465 136.432166 
L 176.65943 138.606979 
L 176.995912 139.238881 
L 177.332395 139.280428 
L 177.668877 138.195387 
L 178.00536 138.175123 
L 178.341842 139.760524 
L 179.014807 139.158014 
L 179.351289 137.624952 
L 179.687772 135.008531 
L 180.024254 138.404578 
L 180.697219 136.058558 
L 181.033701 137.244034 
L 181.370184 137.650942 
L 181.706666 137.772659 
L 182.043149 138.034918 
L 182.716113 135.883092 
L 183.052596 136.510783 
L 183.389078 138.40461 
L 183.725561 138.896756 
L 184.062043 138.8971 
L 184.398525 138.646379 
L 184.735008 137.349907 
L 185.407973 139.760076 
L 185.744455 140.561712 
L 186.41742 139.689849 
L 186.753902 138.724452 
L 187.090385 138.225332 
L 187.426867 138.874578 
L 188.099832 140.956873 
L 188.772797 140.82586 
L 189.109279 141.297381 
L 189.445762 143.171463 
L 189.782244 142.960584 
L 190.118726 141.240005 
L 190.455209 142.939542 
L 190.791691 142.578193 
L 191.128174 141.55542 
L 191.464656 141.590225 
L 191.801139 140.675134 
L 192.137621 141.998253 
L 192.474103 141.512657 
L 192.810586 140.246113 
L 193.147068 140.462581 
L 193.483551 139.87606 
L 193.820033 141.58635 
L 194.156515 142.507758 
L 194.492998 141.99473 
L 195.165963 142.84889 
L 195.502445 143.106337 
L 195.838927 141.414967 
L 196.17541 141.486795 
L 196.511892 142.505388 
L 196.848375 142.703601 
L 197.184857 141.957972 
L 197.857822 143.367411 
L 198.194304 142.497734 
L 198.530787 142.667251 
L 198.867269 145.051606 
L 199.203752 145.499972 
L 199.540234 144.565369 
L 199.876716 144.351903 
L 200.213199 143.74796 
L 200.886164 144.644932 
L 201.222646 144.118076 
L 201.559128 144.345178 
L 202.232093 142.820595 
L 202.568576 141.925617 
L 202.905058 144.330349 
L 203.241541 145.441227 
L 203.578023 143.699503 
L 203.914505 143.341701 
L 204.250988 143.454683 
L 204.923953 145.675238 
L 205.260435 145.68708 
L 205.596917 145.379328 
L 205.9334 145.391121 
L 206.269882 145.288748 
L 206.606365 145.309501 
L 206.942847 145.057419 
L 207.615812 145.134716 
L 207.952294 143.907485 
L 208.625259 145.363098 
L 208.961742 145.558637 
L 209.298224 145.475848 
L 209.634706 144.294271 
L 209.971189 142.485996 
L 210.307671 145.439314 
L 210.644154 145.516266 
L 210.980636 145.711068 
L 211.653601 145.523968 
L 211.990083 145.690955 
L 213.672495 145.717233 
L 216.700837 145.741413 
L 217.037319 145.679066 
L 217.710284 145.232429 
L 218.046767 145.303256 
L 218.383249 145.666559 
L 222.421038 145.724023 
L 223.766968 145.685343 
L 224.439932 145.657976 
L 224.776415 145.217545 
L 225.112897 145.424173 
L 225.44938 145.414645 
L 225.785862 145.693005 
L 226.795309 145.7681 
L 228.141239 145.596925 
L 228.814204 145.736025 
L 231.842546 145.730821 
L 234.197922 145.779653 
L 235.543852 145.705696 
L 240.254606 145.705856 
L 240.591088 145.672748 
L 240.927571 145.333441 
L 241.264053 144.816699 
L 241.600535 145.678241 
L 242.2735 145.743287 
L 242.946465 145.713174 
L 243.282948 145.436543 
L 243.61943 145.652972 
L 244.292395 145.707745 
L 244.628877 145.732814 
L 244.96536 145.632891 
L 246.311289 145.715176 
L 246.647772 145.573049 
L 247.320736 145.755225 
L 247.993701 145.739468 
L 248.666666 145.693309 
L 249.003149 145.485472 
L 249.339631 143.378484 
L 249.676113 142.717709 
L 250.012596 144.283174 
L 250.685561 145.647719 
L 251.358525 145.706264 
L 253.040938 145.680659 
L 253.713902 145.460443 
L 254.386867 145.62884 
L 255.396314 145.676864 
L 255.732797 145.034304 
L 256.069279 145.073409 
L 256.405762 144.573544 
L 256.742244 143.386394 
L 257.078726 144.155892 
L 257.415209 143.18469 
L 257.751691 143.386891 
L 258.088174 144.131087 
L 258.424656 143.517031 
L 258.761139 143.826633 
L 259.434103 143.870302 
L 259.770586 143.52226 
L 260.107068 144.634883 
L 260.443551 144.419608 
L 260.780033 142.862334 
L 261.116515 143.01824 
L 261.452998 142.850956 
L 261.78948 142.087167 
L 262.125963 142.473217 
L 262.462445 142.288599 
L 262.798927 141.123404 
L 263.13541 145.288332 
L 264.144857 143.916741 
L 264.48134 144.197118 
L 265.154304 141.267508 
L 265.827269 138.921985 
L 266.163752 141.529278 
L 266.500234 141.682686 
L 266.836716 144.128197 
L 267.173199 143.807473 
L 267.509681 142.249823 
L 267.846164 142.505852 
L 268.182646 143.860478 
L 268.519128 143.474676 
L 268.855611 142.043419 
L 269.192093 141.887585 
L 269.528576 140.661899 
L 269.865058 141.649883 
L 270.201541 141.102427 
L 270.538023 141.134397 
L 270.874505 142.289016 
L 271.54747 142.759824 
L 271.883953 141.962039 
L 272.220435 141.600017 
L 272.556917 142.651286 
L 272.8934 141.328103 
L 273.229882 140.569895 
L 273.566365 139.283591 
L 273.902847 139.92828 
L 274.239329 140.322016 
L 274.575812 141.230782 
L 274.912294 140.779918 
L 275.248777 140.520253 
L 275.585259 140.892011 
L 275.921742 140.088277 
L 276.258224 141.325813 
L 276.594706 141.302321 
L 276.931189 140.89507 
L 277.267671 139.816587 
L 277.604154 139.280028 
L 277.940636 137.909902 
L 278.277118 135.940852 
L 278.613601 137.333533 
L 278.950083 137.201991 
L 279.286566 136.121179 
L 279.623048 137.359379 
L 279.95953 138.090268 
L 280.296013 136.757757 
L 280.632495 137.810683 
L 280.968978 135.023952 
L 281.30546 133.945413 
L 281.641943 29.52599 
L 281.978425 133.467439 
L 282.314907 132.321876 
L 282.65139 29.642679 
L 282.987872 29.412768 
L 283.324355 137.934162 
L 284.333802 136.618481 
L 284.670284 137.640221 
L 285.006767 137.324317 
L 285.343249 137.382174 
L 285.679731 134.753951 
L 286.016214 29.403712 
L 286.689179 29.394409 
L 287.025661 134.511397 
L 287.362144 133.124585 
L 288.035108 129.393082 
L 288.371591 29.407363 
L 288.708073 29.736678 
L 289.044556 29.395706 
L 289.381038 29.391102 
L 289.71752 29.527511 
L 290.054003 29.488383 
L 290.390485 131.251079 
L 290.726968 29.781443 
L 291.06345 29.391014 
L 339.8534 29.390093 
L 382.250184 29.393143 
L 382.586666 64.662108 
L 382.923149 82.892506 
L 383.259631 29.395233 
L 383.932596 29.390333 
L 384.269078 29.390573 
L 384.605561 131.018445 
L 384.942043 135.58839 
L 385.278525 136.18548 
L 385.615008 130.1196 
L 385.95149 29.391862 
L 386.287973 129.772463 
L 386.624455 29.455091 
L 386.960938 132.608691 
L 386.960938 132.608691 
" style="fill:none;stroke:#ff0000;stroke-dasharray:1.5,2.475;stroke-dashoffset:0;stroke-width:1.5;"/>
   </g>
   <g id="patch_3">
    <path d="M 52.160938 170.28 
L 52.160938 7.2 
" style="fill:none;stroke:#000000;stroke-linecap:square;stroke-linejoin:miter;stroke-width:0.8;"/>
   </g>
   <g id="patch_4">
    <path d="M 386.960938 170.28 
L 386.960938 7.2 
" style="fill:none;stroke:#000000;stroke-linecap:square;stroke-linejoin:miter;stroke-width:0.8;"/>
   </g>
   <g id="patch_5">
    <path d="M 52.160938 170.28 
L 386.960938 170.28 
" style="fill:none;stroke:#000000;stroke-linecap:square;stroke-linejoin:miter;stroke-width:0.8;"/>
   </g>
   <g id="patch_6">
    <path d="M 52.160938 7.2 
L 386.960938 7.2 
" style="fill:none;stroke:#000000;stroke-linecap:square;stroke-linejoin:miter;stroke-width:0.8;"/>
   </g>
   <g id="legend_1">
    <g id="patch_7">
     <path d="M 278.873438 165.28 
L 379.960938 165.28 
Q 381.960938 165.28 381.960938 163.28 
L 381.960938 105.5675 
Q 381.960938 103.5675 379.960938 103.5675 
L 278.873438 103.5675 
Q 276.873438 103.5675 276.873438 105.5675 
L 276.873438 163.28 
Q 276.873438 165.28 278.873438 165.28 
z
" style="fill:#ffffff;opacity:0.8;stroke:#cccccc;stroke-linejoin:miter;"/>
    </g>
    <g id="line2d_25">
     <path d="M 280.873438 111.665938 
L 300.873438 111.665938 
" style="fill:none;stroke:#1f77b4;stroke-linecap:square;stroke-width:1.5;"/>
    </g>
    <g id="line2d_26"/>
    <g id="text_13">
     <!-- 1-step preds -->
     <g transform="translate(308.873438 115.165938)scale(0.1 -0.1)">
      <defs>
       <path d="M 313 2009 
L 1997 2009 
L 1997 1497 
L 313 1497 
L 313 2009 
z
" id="DejaVuSans-2d" transform="scale(0.015625)"/>
       <path d="M 2834 3397 
L 2834 2853 
Q 2591 2978 2328 3040 
Q 2066 3103 1784 3103 
Q 1356 3103 1142 2972 
Q 928 2841 928 2578 
Q 928 2378 1081 2264 
Q 1234 2150 1697 2047 
L 1894 2003 
Q 2506 1872 2764 1633 
Q 3022 1394 3022 966 
Q 3022 478 2636 193 
Q 2250 -91 1575 -91 
Q 1294 -91 989 -36 
Q 684 19 347 128 
L 347 722 
Q 666 556 975 473 
Q 1284 391 1588 391 
Q 1994 391 2212 530 
Q 2431 669 2431 922 
Q 2431 1156 2273 1281 
Q 2116 1406 1581 1522 
L 1381 1569 
Q 847 1681 609 1914 
Q 372 2147 372 2553 
Q 372 3047 722 3315 
Q 1072 3584 1716 3584 
Q 2034 3584 2315 3537 
Q 2597 3491 2834 3397 
z
" id="DejaVuSans-73" transform="scale(0.015625)"/>
       <path d="M 1159 525 
L 1159 -1331 
L 581 -1331 
L 581 3500 
L 1159 3500 
L 1159 2969 
Q 1341 3281 1617 3432 
Q 1894 3584 2278 3584 
Q 2916 3584 3314 3078 
Q 3713 2572 3713 1747 
Q 3713 922 3314 415 
Q 2916 -91 2278 -91 
Q 1894 -91 1617 61 
Q 1341 213 1159 525 
z
M 3116 1747 
Q 3116 2381 2855 2742 
Q 2594 3103 2138 3103 
Q 1681 3103 1420 2742 
Q 1159 2381 1159 1747 
Q 1159 1113 1420 752 
Q 1681 391 2138 391 
Q 2594 391 2855 752 
Q 3116 1113 3116 1747 
z
" id="DejaVuSans-70" transform="scale(0.015625)"/>
       <path id="DejaVuSans-20" transform="scale(0.015625)"/>
       <path d="M 2631 2963 
Q 2534 3019 2420 3045 
Q 2306 3072 2169 3072 
Q 1681 3072 1420 2755 
Q 1159 2438 1159 1844 
L 1159 0 
L 581 0 
L 581 3500 
L 1159 3500 
L 1159 2956 
Q 1341 3275 1631 3429 
Q 1922 3584 2338 3584 
Q 2397 3584 2469 3576 
Q 2541 3569 2628 3553 
L 2631 2963 
z
" id="DejaVuSans-72" transform="scale(0.015625)"/>
       <path d="M 2906 2969 
L 2906 4863 
L 3481 4863 
L 3481 0 
L 2906 0 
L 2906 525 
Q 2725 213 2448 61 
Q 2172 -91 1784 -91 
Q 1150 -91 751 415 
Q 353 922 353 1747 
Q 353 2572 751 3078 
Q 1150 3584 1784 3584 
Q 2172 3584 2448 3432 
Q 2725 3281 2906 2969 
z
M 947 1747 
Q 947 1113 1208 752 
Q 1469 391 1925 391 
Q 2381 391 2643 752 
Q 2906 1113 2906 1747 
Q 2906 2381 2643 2742 
Q 2381 3103 1925 3103 
Q 1469 3103 1208 2742 
Q 947 2381 947 1747 
z
" id="DejaVuSans-64" transform="scale(0.015625)"/>
      </defs>
      <use xlink:href="#DejaVuSans-31"/>
      <use x="63.623047" xlink:href="#DejaVuSans-2d"/>
      <use x="99.707031" xlink:href="#DejaVuSans-73"/>
      <use x="151.806641" xlink:href="#DejaVuSans-74"/>
      <use x="191.015625" xlink:href="#DejaVuSans-65"/>
      <use x="252.539062" xlink:href="#DejaVuSans-70"/>
      <use x="316.015625" xlink:href="#DejaVuSans-20"/>
      <use x="347.802734" xlink:href="#DejaVuSans-70"/>
      <use x="411.279297" xlink:href="#DejaVuSans-72"/>
      <use x="450.142578" xlink:href="#DejaVuSans-65"/>
      <use x="511.666016" xlink:href="#DejaVuSans-64"/>
      <use x="575.142578" xlink:href="#DejaVuSans-73"/>
     </g>
    </g>
    <g id="line2d_27">
     <path d="M 280.873438 126.344063 
L 300.873438 126.344063 
" style="fill:none;stroke:#bf00bf;stroke-dasharray:5.55,2.4;stroke-dashoffset:0;stroke-width:1.5;"/>
    </g>
    <g id="line2d_28"/>
    <g id="text_14">
     <!-- 4-step preds -->
     <g transform="translate(308.873438 129.844063)scale(0.1 -0.1)">
      <use xlink:href="#DejaVuSans-34"/>
      <use x="63.623047" xlink:href="#DejaVuSans-2d"/>
      <use x="99.707031" xlink:href="#DejaVuSans-73"/>
      <use x="151.806641" xlink:href="#DejaVuSans-74"/>
      <use x="191.015625" xlink:href="#DejaVuSans-65"/>
      <use x="252.539062" xlink:href="#DejaVuSans-70"/>
      <use x="316.015625" xlink:href="#DejaVuSans-20"/>
      <use x="347.802734" xlink:href="#DejaVuSans-70"/>
      <use x="411.279297" xlink:href="#DejaVuSans-72"/>
      <use x="450.142578" xlink:href="#DejaVuSans-65"/>
      <use x="511.666016" xlink:href="#DejaVuSans-64"/>
      <use x="575.142578" xlink:href="#DejaVuSans-73"/>
     </g>
    </g>
    <g id="line2d_29">
     <path d="M 280.873438 141.022188 
L 300.873438 141.022188 
" style="fill:none;stroke:#008000;stroke-dasharray:9.6,2.4,1.5,2.4;stroke-dashoffset:0;stroke-width:1.5;"/>
    </g>
    <g id="line2d_30"/>
    <g id="text_15">
     <!-- 16-step preds -->
     <g transform="translate(308.873438 144.522188)scale(0.1 -0.1)">
      <use xlink:href="#DejaVuSans-31"/>
      <use x="63.623047" xlink:href="#DejaVuSans-36"/>
      <use x="127.246094" xlink:href="#DejaVuSans-2d"/>
      <use x="163.330078" xlink:href="#DejaVuSans-73"/>
      <use x="215.429688" xlink:href="#DejaVuSans-74"/>
      <use x="254.638672" xlink:href="#DejaVuSans-65"/>
      <use x="316.162109" xlink:href="#DejaVuSans-70"/>
      <use x="379.638672" xlink:href="#DejaVuSans-20"/>
      <use x="411.425781" xlink:href="#DejaVuSans-70"/>
      <use x="474.902344" xlink:href="#DejaVuSans-72"/>
      <use x="513.765625" xlink:href="#DejaVuSans-65"/>
      <use x="575.289062" xlink:href="#DejaVuSans-64"/>
      <use x="638.765625" xlink:href="#DejaVuSans-73"/>
     </g>
    </g>
    <g id="line2d_31">
     <path d="M 280.873438 155.700313 
L 300.873438 155.700313 
" style="fill:none;stroke:#ff0000;stroke-dasharray:1.5,2.475;stroke-dashoffset:0;stroke-width:1.5;"/>
    </g>
    <g id="line2d_32"/>
    <g id="text_16">
     <!-- 64-step preds -->
     <g transform="translate(308.873438 159.200313)scale(0.1 -0.1)">
      <use xlink:href="#DejaVuSans-36"/>
      <use x="63.623047" xlink:href="#DejaVuSans-34"/>
      <use x="127.246094" xlink:href="#DejaVuSans-2d"/>
      <use x="163.330078" xlink:href="#DejaVuSans-73"/>
      <use x="215.429688" xlink:href="#DejaVuSans-74"/>
      <use x="254.638672" xlink:href="#DejaVuSans-65"/>
      <use x="316.162109" xlink:href="#DejaVuSans-70"/>
      <use x="379.638672" xlink:href="#DejaVuSans-20"/>
      <use x="411.425781" xlink:href="#DejaVuSans-70"/>
      <use x="474.902344" xlink:href="#DejaVuSans-72"/>
      <use x="513.765625" xlink:href="#DejaVuSans-65"/>
      <use x="575.289062" xlink:href="#DejaVuSans-64"/>
      <use x="638.765625" xlink:href="#DejaVuSans-73"/>
     </g>
    </g>
   </g>
  </g>
 </g>
 <defs>
  <clipPath id="pf5fb7ff160">
   <rect height="163.08" width="334.8" x="52.160938" y="7.2"/>
  </clipPath>
 </defs>
</svg>
