<?xml version="1.0" encoding="utf-8" standalone="no"?>
<!DOCTYPE svg PUBLIC "-//W3C//DTD SVG 1.1//EN"
  "http://www.w3.org/Graphics/SVG/1.1/DTD/svg11.dtd">
<svg height="180.65625pt" version="1.1" viewBox="0 0 238.965625 180.65625" width="238.965625pt" xmlns="http://www.w3.org/2000/svg" xmlns:xlink="http://www.w3.org/1999/xlink">
 <metadata>
  <rdf:RDF xmlns:cc="http://creativecommons.org/ns#" xmlns:dc="http://purl.org/dc/elements/1.1/" xmlns:rdf="http://www.w3.org/1999/02/22-rdf-syntax-ns#">
   <cc:Work>
    <dc:type rdf:resource="http://purl.org/dc/dcmitype/StillImage"/>
    <dc:date>2022-03-15T01:06:20.212438</dc:date>
    <dc:format>image/svg+xml</dc:format>
    <dc:creator>
     <cc:Agent>
      <dc:title>Matplotlib v3.4.0, https://matplotlib.org/</dc:title>
     </cc:Agent>
    </dc:creator>
   </cc:Work>
  </rdf:RDF>
 </metadata>
 <defs>
  <style type="text/css">*{stroke-linecap:butt;stroke-linejoin:round;}</style>
 </defs>
 <g id="figure_1">
  <g id="patch_1">
   <path d="M 0 180.65625 
L 238.965625 180.65625 
L 238.965625 0 
L 0 0 
z
" style="fill:none;"/>
  </g>
  <g id="axes_1">
   <g id="patch_2">
    <path d="M 30.103125 143.1 
L 225.403125 143.1 
L 225.403125 7.2 
L 30.103125 7.2 
z
" style="fill:#ffffff;"/>
   </g>
   <g id="matplotlib.axis_1">
    <g id="xtick_1">
     <g id="line2d_1">
      <path clip-path="url(#pb025c58636)" d="M 71.218914 143.1 
L 71.218914 7.2 
" style="fill:none;stroke:#b0b0b0;stroke-linecap:square;stroke-width:0.8;"/>
     </g>
     <g id="line2d_2">
      <defs>
       <path d="M 0 0 
L 0 3.5 
" id="m79f66ab8a3" style="stroke:#000000;stroke-width:0.8;"/>
      </defs>
      <g>
       <use style="stroke:#000000;stroke-width:0.8;" x="71.218914" xlink:href="#m79f66ab8a3" y="143.1"/>
      </g>
     </g>
     <g id="text_1">
      <!-- 5 -->
      <g transform="translate(68.037664 157.698438)scale(0.1 -0.1)">
       <defs>
        <path d="M 691 4666 
L 3169 4666 
L 3169 4134 
L 1269 4134 
L 1269 2991 
Q 1406 3038 1543 3061 
Q 1681 3084 1819 3084 
Q 2600 3084 3056 2656 
Q 3513 2228 3513 1497 
Q 3513 744 3044 326 
Q 2575 -91 1722 -91 
Q 1428 -91 1123 -41 
Q 819 9 494 109 
L 494 744 
Q 775 591 1075 516 
Q 1375 441 1709 441 
Q 2250 441 2565 725 
Q 2881 1009 2881 1497 
Q 2881 1984 2565 2268 
Q 2250 2553 1709 2553 
Q 1456 2553 1204 2497 
Q 953 2441 691 2322 
L 691 4666 
z
" id="DejaVuSans-35" transform="scale(0.015625)"/>
       </defs>
       <use xlink:href="#DejaVuSans-35"/>
      </g>
     </g>
    </g>
    <g id="xtick_2">
     <g id="line2d_3">
      <path clip-path="url(#pb025c58636)" d="M 122.613651 143.1 
L 122.613651 7.2 
" style="fill:none;stroke:#b0b0b0;stroke-linecap:square;stroke-width:0.8;"/>
     </g>
     <g id="line2d_4">
      <g>
       <use style="stroke:#000000;stroke-width:0.8;" x="122.613651" xlink:href="#m79f66ab8a3" y="143.1"/>
      </g>
     </g>
     <g id="text_2">
      <!-- 10 -->
      <g transform="translate(116.251151 157.698438)scale(0.1 -0.1)">
       <defs>
        <path d="M 794 531 
L 1825 531 
L 1825 4091 
L 703 3866 
L 703 4441 
L 1819 4666 
L 2450 4666 
L 2450 531 
L 3481 531 
L 3481 0 
L 794 0 
L 794 531 
z
" id="DejaVuSans-31" transform="scale(0.015625)"/>
        <path d="M 2034 4250 
Q 1547 4250 1301 3770 
Q 1056 3291 1056 2328 
Q 1056 1369 1301 889 
Q 1547 409 2034 409 
Q 2525 409 2770 889 
Q 3016 1369 3016 2328 
Q 3016 3291 2770 3770 
Q 2525 4250 2034 4250 
z
M 2034 4750 
Q 2819 4750 3233 4129 
Q 3647 3509 3647 2328 
Q 3647 1150 3233 529 
Q 2819 -91 2034 -91 
Q 1250 -91 836 529 
Q 422 1150 422 2328 
Q 422 3509 836 4129 
Q 1250 4750 2034 4750 
z
" id="DejaVuSans-30" transform="scale(0.015625)"/>
       </defs>
       <use xlink:href="#DejaVuSans-31"/>
       <use x="63.623047" xlink:href="#DejaVuSans-30"/>
      </g>
     </g>
    </g>
    <g id="xtick_3">
     <g id="line2d_5">
      <path clip-path="url(#pb025c58636)" d="M 174.008388 143.1 
L 174.008388 7.2 
" style="fill:none;stroke:#b0b0b0;stroke-linecap:square;stroke-width:0.8;"/>
     </g>
     <g id="line2d_6">
      <g>
       <use style="stroke:#000000;stroke-width:0.8;" x="174.008388" xlink:href="#m79f66ab8a3" y="143.1"/>
      </g>
     </g>
     <g id="text_3">
      <!-- 15 -->
      <g transform="translate(167.645888 157.698438)scale(0.1 -0.1)">
       <use xlink:href="#DejaVuSans-31"/>
       <use x="63.623047" xlink:href="#DejaVuSans-35"/>
      </g>
     </g>
    </g>
    <g id="xtick_4">
     <g id="line2d_7">
      <path clip-path="url(#pb025c58636)" d="M 225.403125 143.1 
L 225.403125 7.2 
" style="fill:none;stroke:#b0b0b0;stroke-linecap:square;stroke-width:0.8;"/>
     </g>
     <g id="line2d_8">
      <g>
       <use style="stroke:#000000;stroke-width:0.8;" x="225.403125" xlink:href="#m79f66ab8a3" y="143.1"/>
      </g>
     </g>
     <g id="text_4">
      <!-- 20 -->
      <g transform="translate(219.040625 157.698438)scale(0.1 -0.1)">
       <defs>
        <path d="M 1228 531 
L 3431 531 
L 3431 0 
L 469 0 
L 469 531 
Q 828 903 1448 1529 
Q 2069 2156 2228 2338 
Q 2531 2678 2651 2914 
Q 2772 3150 2772 3378 
Q 2772 3750 2511 3984 
Q 2250 4219 1831 4219 
Q 1534 4219 1204 4116 
Q 875 4013 500 3803 
L 500 4441 
Q 881 4594 1212 4672 
Q 1544 4750 1819 4750 
Q 2544 4750 2975 4387 
Q 3406 4025 3406 3419 
Q 3406 3131 3298 2873 
Q 3191 2616 2906 2266 
Q 2828 2175 2409 1742 
Q 1991 1309 1228 531 
z
" id="DejaVuSans-32" transform="scale(0.015625)"/>
       </defs>
       <use xlink:href="#DejaVuSans-32"/>
       <use x="63.623047" xlink:href="#DejaVuSans-30"/>
      </g>
     </g>
    </g>
    <g id="text_5">
     <!-- epoch -->
     <g transform="translate(112.525 171.376563)scale(0.1 -0.1)">
      <defs>
       <path d="M 3597 1894 
L 3597 1613 
L 953 1613 
Q 991 1019 1311 708 
Q 1631 397 2203 397 
Q 2534 397 2845 478 
Q 3156 559 3463 722 
L 3463 178 
Q 3153 47 2828 -22 
Q 2503 -91 2169 -91 
Q 1331 -91 842 396 
Q 353 884 353 1716 
Q 353 2575 817 3079 
Q 1281 3584 2069 3584 
Q 2775 3584 3186 3129 
Q 3597 2675 3597 1894 
z
M 3022 2063 
Q 3016 2534 2758 2815 
Q 2500 3097 2075 3097 
Q 1594 3097 1305 2825 
Q 1016 2553 972 2059 
L 3022 2063 
z
" id="DejaVuSans-65" transform="scale(0.015625)"/>
       <path d="M 1159 525 
L 1159 -1331 
L 581 -1331 
L 581 3500 
L 1159 3500 
L 1159 2969 
Q 1341 3281 1617 3432 
Q 1894 3584 2278 3584 
Q 2916 3584 3314 3078 
Q 3713 2572 3713 1747 
Q 3713 922 3314 415 
Q 2916 -91 2278 -91 
Q 1894 -91 1617 61 
Q 1341 213 1159 525 
z
M 3116 1747 
Q 3116 2381 2855 2742 
Q 2594 3103 2138 3103 
Q 1681 3103 1420 2742 
Q 1159 2381 1159 1747 
Q 1159 1113 1420 752 
Q 1681 391 2138 391 
Q 2594 391 2855 752 
Q 3116 1113 3116 1747 
z
" id="DejaVuSans-70" transform="scale(0.015625)"/>
       <path d="M 1959 3097 
Q 1497 3097 1228 2736 
Q 959 2375 959 1747 
Q 959 1119 1226 758 
Q 1494 397 1959 397 
Q 2419 397 2687 759 
Q 2956 1122 2956 1747 
Q 2956 2369 2687 2733 
Q 2419 3097 1959 3097 
z
M 1959 3584 
Q 2709 3584 3137 3096 
Q 3566 2609 3566 1747 
Q 3566 888 3137 398 
Q 2709 -91 1959 -91 
Q 1206 -91 779 398 
Q 353 888 353 1747 
Q 353 2609 779 3096 
Q 1206 3584 1959 3584 
z
" id="DejaVuSans-6f" transform="scale(0.015625)"/>
       <path d="M 3122 3366 
L 3122 2828 
Q 2878 2963 2633 3030 
Q 2388 3097 2138 3097 
Q 1578 3097 1268 2742 
Q 959 2388 959 1747 
Q 959 1106 1268 751 
Q 1578 397 2138 397 
Q 2388 397 2633 464 
Q 2878 531 3122 666 
L 3122 134 
Q 2881 22 2623 -34 
Q 2366 -91 2075 -91 
Q 1284 -91 818 406 
Q 353 903 353 1747 
Q 353 2603 823 3093 
Q 1294 3584 2113 3584 
Q 2378 3584 2631 3529 
Q 2884 3475 3122 3366 
z
" id="DejaVuSans-63" transform="scale(0.015625)"/>
       <path d="M 3513 2113 
L 3513 0 
L 2938 0 
L 2938 2094 
Q 2938 2591 2744 2837 
Q 2550 3084 2163 3084 
Q 1697 3084 1428 2787 
Q 1159 2491 1159 1978 
L 1159 0 
L 581 0 
L 581 4863 
L 1159 4863 
L 1159 2956 
Q 1366 3272 1645 3428 
Q 1925 3584 2291 3584 
Q 2894 3584 3203 3211 
Q 3513 2838 3513 2113 
z
" id="DejaVuSans-68" transform="scale(0.015625)"/>
      </defs>
      <use xlink:href="#DejaVuSans-65"/>
      <use x="61.523438" xlink:href="#DejaVuSans-70"/>
      <use x="125" xlink:href="#DejaVuSans-6f"/>
      <use x="186.181641" xlink:href="#DejaVuSans-63"/>
      <use x="241.162109" xlink:href="#DejaVuSans-68"/>
     </g>
    </g>
   </g>
   <g id="matplotlib.axis_2">
    <g id="ytick_1">
     <g id="line2d_9">
      <path clip-path="url(#pb025c58636)" d="M 30.103125 115.769144 
L 225.403125 115.769144 
" style="fill:none;stroke:#b0b0b0;stroke-linecap:square;stroke-width:0.8;"/>
     </g>
     <g id="line2d_10">
      <defs>
       <path d="M 0 0 
L -3.5 0 
" id="m9e2658c5b2" style="stroke:#000000;stroke-width:0.8;"/>
      </defs>
      <g>
       <use style="stroke:#000000;stroke-width:0.8;" x="30.103125" xlink:href="#m9e2658c5b2" y="115.769144"/>
      </g>
     </g>
     <g id="text_6">
      <!-- 0.5 -->
      <g transform="translate(7.2 119.568363)scale(0.1 -0.1)">
       <defs>
        <path d="M 684 794 
L 1344 794 
L 1344 0 
L 684 0 
L 684 794 
z
" id="DejaVuSans-2e" transform="scale(0.015625)"/>
       </defs>
       <use xlink:href="#DejaVuSans-30"/>
       <use x="63.623047" xlink:href="#DejaVuSans-2e"/>
       <use x="95.410156" xlink:href="#DejaVuSans-35"/>
      </g>
     </g>
    </g>
    <g id="ytick_2">
     <g id="line2d_11">
      <path clip-path="url(#pb025c58636)" d="M 30.103125 87.086319 
L 225.403125 87.086319 
" style="fill:none;stroke:#b0b0b0;stroke-linecap:square;stroke-width:0.8;"/>
     </g>
     <g id="line2d_12">
      <g>
       <use style="stroke:#000000;stroke-width:0.8;" x="30.103125" xlink:href="#m9e2658c5b2" y="87.086319"/>
      </g>
     </g>
     <g id="text_7">
      <!-- 1.0 -->
      <g transform="translate(7.2 90.885538)scale(0.1 -0.1)">
       <use xlink:href="#DejaVuSans-31"/>
       <use x="63.623047" xlink:href="#DejaVuSans-2e"/>
       <use x="95.410156" xlink:href="#DejaVuSans-30"/>
      </g>
     </g>
    </g>
    <g id="ytick_3">
     <g id="line2d_13">
      <path clip-path="url(#pb025c58636)" d="M 30.103125 58.403494 
L 225.403125 58.403494 
" style="fill:none;stroke:#b0b0b0;stroke-linecap:square;stroke-width:0.8;"/>
     </g>
     <g id="line2d_14">
      <g>
       <use style="stroke:#000000;stroke-width:0.8;" x="30.103125" xlink:href="#m9e2658c5b2" y="58.403494"/>
      </g>
     </g>
     <g id="text_8">
      <!-- 1.5 -->
      <g transform="translate(7.2 62.202713)scale(0.1 -0.1)">
       <use xlink:href="#DejaVuSans-31"/>
       <use x="63.623047" xlink:href="#DejaVuSans-2e"/>
       <use x="95.410156" xlink:href="#DejaVuSans-35"/>
      </g>
     </g>
    </g>
    <g id="ytick_4">
     <g id="line2d_15">
      <path clip-path="url(#pb025c58636)" d="M 30.103125 29.72067 
L 225.403125 29.72067 
" style="fill:none;stroke:#b0b0b0;stroke-linecap:square;stroke-width:0.8;"/>
     </g>
     <g id="line2d_16">
      <g>
       <use style="stroke:#000000;stroke-width:0.8;" x="30.103125" xlink:href="#m9e2658c5b2" y="29.72067"/>
      </g>
     </g>
     <g id="text_9">
      <!-- 2.0 -->
      <g transform="translate(7.2 33.519888)scale(0.1 -0.1)">
       <use xlink:href="#DejaVuSans-32"/>
       <use x="63.623047" xlink:href="#DejaVuSans-2e"/>
       <use x="95.410156" xlink:href="#DejaVuSans-30"/>
      </g>
     </g>
    </g>
   </g>
   <g id="line2d_17">
    <path clip-path="url(#pb025c58636)" d="M 21.659704 13.506485 
L 23.49523 13.377273 
L 25.330757 13.518033 
L 27.166283 14.313733 
L 29.001809 14.512234 
L 30.103125 16.456025 
L 31.938651 31.016343 
L 33.774178 26.897428 
L 35.609704 27.7857 
L 37.44523 31.570976 
L 39.280757 31.630796 
L 40.382072 31.238969 
L 42.217599 46.102623 
L 44.053125 39.483509 
L 45.888651 39.900363 
L 47.724178 39.952617 
L 49.559704 39.139476 
L 50.66102 39.824903 
L 52.496546 33.43028 
L 54.332072 42.89305 
L 56.167599 45.845995 
L 58.003125 43.580573 
L 59.838651 42.642485 
L 60.939967 43.099573 
L 62.775493 51.899862 
L 64.61102 50.32356 
L 66.446546 48.449666 
L 68.282072 47.035085 
L 70.117599 47.575631 
L 71.218914 48.493028 
L 73.054441 47.502166 
L 74.889967 52.373122 
L 76.725493 53.301165 
L 78.56102 53.222408 
L 80.396546 52.243106 
L 81.497862 51.933643 
L 83.333388 54.659508 
L 85.168914 59.288583 
L 87.004441 59.332669 
L 88.839967 57.634638 
L 90.675493 56.868887 
L 91.776809 55.394916 
L 93.612336 58.995713 
L 95.447862 64.163852 
L 97.283388 61.047903 
L 99.118914 61.091727 
L 100.954441 62.059887 
L 102.055757 62.052133 
L 103.891283 73.744552 
L 105.726809 64.702816 
L 107.562336 62.579286 
L 109.397862 62.806964 
L 111.233388 62.712622 
L 112.334704 64.033314 
L 114.17023 77.22331 
L 116.005757 75.908878 
L 117.841283 75.669769 
L 119.676809 75.012325 
L 121.512336 74.97108 
L 122.613651 74.56417 
L 124.449178 69.105325 
L 126.284704 75.631061 
L 128.12023 74.791873 
L 129.955757 74.667927 
L 131.791283 74.226399 
L 132.892599 75.045603 
L 134.728125 77.701598 
L 136.563651 77.391689 
L 138.399178 76.651892 
L 140.234704 77.610032 
L 142.07023 76.592933 
L 143.171546 77.30773 
L 145.007072 79.417148 
L 146.842599 84.611832 
L 148.678125 84.08488 
L 150.513651 85.579714 
L 152.349178 82.244408 
L 153.450493 81.957644 
L 155.28602 81.622426 
L 157.121546 85.160313 
L 158.957072 85.405165 
L 160.792599 84.169833 
L 162.628125 86.100227 
L 163.729441 84.438317 
L 165.564967 84.086948 
L 167.400493 87.470701 
L 169.23602 85.558249 
L 171.071546 86.452942 
L 172.907072 84.998566 
L 174.008388 84.16246 
L 175.843914 88.722842 
L 177.679441 93.522554 
L 179.514967 92.807663 
L 181.350493 91.747781 
L 183.18602 91.544454 
L 184.287336 91.331462 
L 186.122862 95.988756 
L 187.958388 100.010399 
L 189.793914 96.438549 
L 191.629441 96.093301 
L 193.464967 96.189217 
L 194.566283 95.722829 
L 196.401809 96.907003 
L 198.237336 97.004011 
L 200.072862 97.064725 
L 201.908388 97.262687 
L 203.743914 98.070864 
L 204.84523 98.126798 
L 206.680757 106.840904 
L 208.516283 103.40183 
L 210.351809 102.874914 
L 212.187336 102.903804 
L 214.022862 101.526915 
L 215.124178 101.243975 
L 216.959704 102.261255 
L 218.79523 104.011652 
L 220.630757 101.906395 
L 222.466283 101.134556 
L 224.301809 101.102431 
L 225.403125 100.415455 
" style="fill:none;stroke:#1f77b4;stroke-linecap:square;stroke-width:1.5;"/>
   </g>
   <g id="line2d_18">
    <path clip-path="url(#pb025c58636)" d="M 21.659704 136.922727 
L 23.49523 136.026389 
L 25.330757 135.847121 
L 27.166283 135.130051 
L 29.001809 133.839324 
L 30.103125 133.311765 
L 31.938651 129.752021 
L 33.774178 130.648359 
L 35.609704 130.34958 
L 37.44523 129.03495 
L 39.280757 129.321779 
L 40.382072 129.342266 
L 42.217599 122.581315 
L 44.053125 125.091062 
L 45.888651 125.330086 
L 47.724178 125.001428 
L 49.559704 124.875941 
L 50.66102 124.860575 
L 52.496546 128.31788 
L 54.332072 123.836188 
L 56.167599 123.417897 
L 58.003125 124.373991 
L 59.838651 124.373991 
L 60.939967 124.092285 
L 62.775493 121.147174 
L 64.61102 122.043512 
L 66.446546 122.820338 
L 68.282072 123.567287 
L 70.117599 123.4418 
L 71.218914 123.067899 
L 73.054441 120.788638 
L 74.889967 120.071568 
L 76.725493 119.832544 
L 78.56102 120.340469 
L 80.396546 120.430103 
L 81.497862 120.250835 
L 83.333388 120.071568 
L 85.168914 117.024018 
L 87.004441 117.561821 
L 88.839967 118.637426 
L 90.675493 118.924255 
L 91.776809 119.482545 
L 93.612336 118.637426 
L 95.447862 116.486215 
L 97.283388 118.039868 
L 99.118914 118.189257 
L 100.954441 117.776942 
L 102.055757 117.817917 
L 103.891283 113.259397 
L 105.726809 115.769144 
L 107.562336 116.247191 
L 109.397862 116.127679 
L 111.233388 116.557922 
L 112.334704 116.153289 
L 114.17023 113.976467 
L 116.005757 113.259397 
L 117.841283 112.78135 
L 119.676809 112.900862 
L 121.512336 112.398912 
L 122.613651 112.503912 
L 124.449178 112.900862 
L 126.284704 111.46672 
L 128.12023 112.303303 
L 129.955757 112.452692 
L 131.791283 112.542326 
L 132.892599 112.311839 
L 134.728125 113.617932 
L 136.563651 112.363059 
L 138.399178 112.661838 
L 140.234704 111.825256 
L 142.07023 112.327205 
L 143.171546 111.735622 
L 145.007072 110.391114 
L 146.842599 109.315508 
L 148.678125 109.076485 
L 150.513651 108.688072 
L 152.349178 109.674044 
L 153.450493 109.878921 
L 155.28602 110.391114 
L 157.121546 108.956973 
L 158.957072 107.40332 
L 160.792599 108.329536 
L 162.628125 107.737953 
L 163.729441 108.342341 
L 165.564967 110.391114 
L 167.400493 108.777705 
L 169.23602 108.71795 
L 171.071546 108.867339 
L 172.907072 109.387215 
L 174.008388 109.494776 
L 175.843914 107.881367 
L 177.679441 105.192352 
L 179.514967 105.252108 
L 181.350493 105.999057 
L 183.18602 106.160398 
L 184.287336 106.037471 
L 186.122862 103.937479 
L 187.958388 103.04114 
L 189.793914 105.013085 
L 191.629441 105.281986 
L 193.464967 104.654549 
L 194.566283 104.885036 
L 196.401809 104.654549 
L 198.237336 104.116746 
L 200.072862 104.296014 
L 201.908388 104.027113 
L 203.743914 103.435529 
L 204.84523 103.348456 
L 206.680757 100.710661 
L 208.516283 102.144802 
L 210.351809 102.264314 
L 212.187336 102.234436 
L 214.022862 102.575045 
L 215.124178 102.772239 
L 216.959704 100.710661 
L 218.79523 100.889929 
L 220.630757 101.666755 
L 222.466283 101.517365 
L 224.301809 101.642853 
L 225.403125 102.003949 
" style="fill:none;stroke:#bf00bf;stroke-dasharray:5.55,2.4;stroke-dashoffset:0;stroke-width:1.5;"/>
   </g>
   <g id="line2d_19">
    <path clip-path="url(#pb025c58636)" d="M 30.103125 131.903233 
L 40.382072 126.525203 
L 50.66102 125.628865 
L 60.939967 127.421542 
L 71.218914 130.110556 
L 81.497862 127.421542 
L 91.776809 118.458159 
L 102.055757 120.250835 
L 112.334704 113.976467 
L 122.613651 119.354497 
L 132.892599 125.628865 
L 143.171546 123.836188 
L 153.450493 116.665482 
L 163.729441 120.250835 
L 174.008388 115.769144 
L 184.287336 113.080129 
L 194.566283 117.561821 
L 204.84523 117.561821 
L 215.124178 122.043512 
L 225.403125 111.287453 
" style="fill:none;stroke:#008000;stroke-dasharray:9.6,2.4,1.5,2.4;stroke-dashoffset:0;stroke-width:1.5;"/>
   </g>
   <g id="patch_3">
    <path d="M 30.103125 143.1 
L 30.103125 7.2 
" style="fill:none;stroke:#000000;stroke-linecap:square;stroke-linejoin:miter;stroke-width:0.8;"/>
   </g>
   <g id="patch_4">
    <path d="M 225.403125 143.1 
L 225.403125 7.2 
" style="fill:none;stroke:#000000;stroke-linecap:square;stroke-linejoin:miter;stroke-width:0.8;"/>
   </g>
   <g id="patch_5">
    <path d="M 30.103125 143.1 
L 225.403125 143.1 
" style="fill:none;stroke:#000000;stroke-linecap:square;stroke-linejoin:miter;stroke-width:0.8;"/>
   </g>
   <g id="patch_6">
    <path d="M 30.103125 7.2 
L 225.403125 7.2 
" style="fill:none;stroke:#000000;stroke-linecap:square;stroke-linejoin:miter;stroke-width:0.8;"/>
   </g>
   <g id="legend_1">
    <g id="patch_7">
     <path d="M 140.634375 59.234375 
L 218.403125 59.234375 
Q 220.403125 59.234375 220.403125 57.234375 
L 220.403125 14.2 
Q 220.403125 12.2 218.403125 12.2 
L 140.634375 12.2 
Q 138.634375 12.2 138.634375 14.2 
L 138.634375 57.234375 
Q 138.634375 59.234375 140.634375 59.234375 
z
" style="fill:#ffffff;opacity:0.8;stroke:#cccccc;stroke-linejoin:miter;"/>
    </g>
    <g id="line2d_20">
     <path d="M 142.634375 20.298438 
L 162.634375 20.298438 
" style="fill:none;stroke:#1f77b4;stroke-linecap:square;stroke-width:1.5;"/>
    </g>
    <g id="line2d_21"/>
    <g id="text_10">
     <!-- train loss -->
     <g transform="translate(170.634375 23.798438)scale(0.1 -0.1)">
      <defs>
       <path d="M 1172 4494 
L 1172 3500 
L 2356 3500 
L 2356 3053 
L 1172 3053 
L 1172 1153 
Q 1172 725 1289 603 
Q 1406 481 1766 481 
L 2356 481 
L 2356 0 
L 1766 0 
Q 1100 0 847 248 
Q 594 497 594 1153 
L 594 3053 
L 172 3053 
L 172 3500 
L 594 3500 
L 594 4494 
L 1172 4494 
z
" id="DejaVuSans-74" transform="scale(0.015625)"/>
       <path d="M 2631 2963 
Q 2534 3019 2420 3045 
Q 2306 3072 2169 3072 
Q 1681 3072 1420 2755 
Q 1159 2438 1159 1844 
L 1159 0 
L 581 0 
L 581 3500 
L 1159 3500 
L 1159 2956 
Q 1341 3275 1631 3429 
Q 1922 3584 2338 3584 
Q 2397 3584 2469 3576 
Q 2541 3569 2628 3553 
L 2631 2963 
z
" id="DejaVuSans-72" transform="scale(0.015625)"/>
       <path d="M 2194 1759 
Q 1497 1759 1228 1600 
Q 959 1441 959 1056 
Q 959 750 1161 570 
Q 1363 391 1709 391 
Q 2188 391 2477 730 
Q 2766 1069 2766 1631 
L 2766 1759 
L 2194 1759 
z
M 3341 1997 
L 3341 0 
L 2766 0 
L 2766 531 
Q 2569 213 2275 61 
Q 1981 -91 1556 -91 
Q 1019 -91 701 211 
Q 384 513 384 1019 
Q 384 1609 779 1909 
Q 1175 2209 1959 2209 
L 2766 2209 
L 2766 2266 
Q 2766 2663 2505 2880 
Q 2244 3097 1772 3097 
Q 1472 3097 1187 3025 
Q 903 2953 641 2809 
L 641 3341 
Q 956 3463 1253 3523 
Q 1550 3584 1831 3584 
Q 2591 3584 2966 3190 
Q 3341 2797 3341 1997 
z
" id="DejaVuSans-61" transform="scale(0.015625)"/>
       <path d="M 603 3500 
L 1178 3500 
L 1178 0 
L 603 0 
L 603 3500 
z
M 603 4863 
L 1178 4863 
L 1178 4134 
L 603 4134 
L 603 4863 
z
" id="DejaVuSans-69" transform="scale(0.015625)"/>
       <path d="M 3513 2113 
L 3513 0 
L 2938 0 
L 2938 2094 
Q 2938 2591 2744 2837 
Q 2550 3084 2163 3084 
Q 1697 3084 1428 2787 
Q 1159 2491 1159 1978 
L 1159 0 
L 581 0 
L 581 3500 
L 1159 3500 
L 1159 2956 
Q 1366 3272 1645 3428 
Q 1925 3584 2291 3584 
Q 2894 3584 3203 3211 
Q 3513 2838 3513 2113 
z
" id="DejaVuSans-6e" transform="scale(0.015625)"/>
       <path id="DejaVuSans-20" transform="scale(0.015625)"/>
       <path d="M 603 4863 
L 1178 4863 
L 1178 0 
L 603 0 
L 603 4863 
z
" id="DejaVuSans-6c" transform="scale(0.015625)"/>
       <path d="M 2834 3397 
L 2834 2853 
Q 2591 2978 2328 3040 
Q 2066 3103 1784 3103 
Q 1356 3103 1142 2972 
Q 928 2841 928 2578 
Q 928 2378 1081 2264 
Q 1234 2150 1697 2047 
L 1894 2003 
Q 2506 1872 2764 1633 
Q 3022 1394 3022 966 
Q 3022 478 2636 193 
Q 2250 -91 1575 -91 
Q 1294 -91 989 -36 
Q 684 19 347 128 
L 347 722 
Q 666 556 975 473 
Q 1284 391 1588 391 
Q 1994 391 2212 530 
Q 2431 669 2431 922 
Q 2431 1156 2273 1281 
Q 2116 1406 1581 1522 
L 1381 1569 
Q 847 1681 609 1914 
Q 372 2147 372 2553 
Q 372 3047 722 3315 
Q 1072 3584 1716 3584 
Q 2034 3584 2315 3537 
Q 2597 3491 2834 3397 
z
" id="DejaVuSans-73" transform="scale(0.015625)"/>
      </defs>
      <use xlink:href="#DejaVuSans-74"/>
      <use x="39.208984" xlink:href="#DejaVuSans-72"/>
      <use x="80.322266" xlink:href="#DejaVuSans-61"/>
      <use x="141.601562" xlink:href="#DejaVuSans-69"/>
      <use x="169.384766" xlink:href="#DejaVuSans-6e"/>
      <use x="232.763672" xlink:href="#DejaVuSans-20"/>
      <use x="264.550781" xlink:href="#DejaVuSans-6c"/>
      <use x="292.333984" xlink:href="#DejaVuSans-6f"/>
      <use x="353.515625" xlink:href="#DejaVuSans-73"/>
      <use x="405.615234" xlink:href="#DejaVuSans-73"/>
     </g>
    </g>
    <g id="line2d_22">
     <path d="M 142.634375 34.976562 
L 162.634375 34.976562 
" style="fill:none;stroke:#bf00bf;stroke-dasharray:5.55,2.4;stroke-dashoffset:0;stroke-width:1.5;"/>
    </g>
    <g id="line2d_23"/>
    <g id="text_11">
     <!-- train acc -->
     <g transform="translate(170.634375 38.476562)scale(0.1 -0.1)">
      <use xlink:href="#DejaVuSans-74"/>
      <use x="39.208984" xlink:href="#DejaVuSans-72"/>
      <use x="80.322266" xlink:href="#DejaVuSans-61"/>
      <use x="141.601562" xlink:href="#DejaVuSans-69"/>
      <use x="169.384766" xlink:href="#DejaVuSans-6e"/>
      <use x="232.763672" xlink:href="#DejaVuSans-20"/>
      <use x="264.550781" xlink:href="#DejaVuSans-61"/>
      <use x="325.830078" xlink:href="#DejaVuSans-63"/>
      <use x="380.810547" xlink:href="#DejaVuSans-63"/>
     </g>
    </g>
    <g id="line2d_24">
     <path d="M 142.634375 49.654688 
L 162.634375 49.654688 
" style="fill:none;stroke:#008000;stroke-dasharray:9.6,2.4,1.5,2.4;stroke-dashoffset:0;stroke-width:1.5;"/>
    </g>
    <g id="line2d_25"/>
    <g id="text_12">
     <!-- valid acc -->
     <g transform="translate(170.634375 53.154688)scale(0.1 -0.1)">
      <defs>
       <path d="M 191 3500 
L 800 3500 
L 1894 563 
L 2988 3500 
L 3597 3500 
L 2284 0 
L 1503 0 
L 191 3500 
z
" id="DejaVuSans-76" transform="scale(0.015625)"/>
       <path d="M 2906 2969 
L 2906 4863 
L 3481 4863 
L 3481 0 
L 2906 0 
L 2906 525 
Q 2725 213 2448 61 
Q 2172 -91 1784 -91 
Q 1150 -91 751 415 
Q 353 922 353 1747 
Q 353 2572 751 3078 
Q 1150 3584 1784 3584 
Q 2172 3584 2448 3432 
Q 2725 3281 2906 2969 
z
M 947 1747 
Q 947 1113 1208 752 
Q 1469 391 1925 391 
Q 2381 391 2643 752 
Q 2906 1113 2906 1747 
Q 2906 2381 2643 2742 
Q 2381 3103 1925 3103 
Q 1469 3103 1208 2742 
Q 947 2381 947 1747 
z
" id="DejaVuSans-64" transform="scale(0.015625)"/>
      </defs>
      <use xlink:href="#DejaVuSans-76"/>
      <use x="59.179688" xlink:href="#DejaVuSans-61"/>
      <use x="120.458984" xlink:href="#DejaVuSans-6c"/>
      <use x="148.242188" xlink:href="#DejaVuSans-69"/>
      <use x="176.025391" xlink:href="#DejaVuSans-64"/>
      <use x="239.501953" xlink:href="#DejaVuSans-20"/>
      <use x="271.289062" xlink:href="#DejaVuSans-61"/>
      <use x="332.568359" xlink:href="#DejaVuSans-63"/>
      <use x="387.548828" xlink:href="#DejaVuSans-63"/>
     </g>
    </g>
   </g>
  </g>
 </g>
 <defs>
  <clipPath id="pb025c58636">
   <rect height="135.9" width="195.3" x="30.103125" y="7.2"/>
  </clipPath>
 </defs>
</svg>
