<?xml version="1.0" encoding="utf-8" standalone="no"?>
<!DOCTYPE svg PUBLIC "-//W3C//DTD SVG 1.1//EN"
  "http://www.w3.org/Graphics/SVG/1.1/DTD/svg11.dtd">
<svg height="289.37625pt" version="1.1" viewBox="0 0 392.14375 289.37625" width="392.14375pt" xmlns="http://www.w3.org/2000/svg" xmlns:xlink="http://www.w3.org/1999/xlink">
 <metadata>
  <rdf:RDF xmlns:cc="http://creativecommons.org/ns#" xmlns:dc="http://purl.org/dc/elements/1.1/" xmlns:rdf="http://www.w3.org/1999/02/22-rdf-syntax-ns#">
   <cc:Work>
    <dc:type rdf:resource="http://purl.org/dc/dcmitype/StillImage"/>
    <dc:date>2022-03-15T01:13:05.601428</dc:date>
    <dc:format>image/svg+xml</dc:format>
    <dc:creator>
     <cc:Agent>
      <dc:title>Matplotlib v3.4.0, https://matplotlib.org/</dc:title>
     </cc:Agent>
    </dc:creator>
   </cc:Work>
  </rdf:RDF>
 </metadata>
 <defs>
  <style type="text/css">*{stroke-linecap:butt;stroke-linejoin:round;}</style>
 </defs>
 <g id="figure_1">
  <g id="patch_1">
   <path d="M 0 289.37625 
L 392.14375 289.37625 
L 392.14375 0 
L 0 0 
z
" style="fill:none;"/>
  </g>
  <g id="axes_1">
   <g id="patch_2">
    <path d="M 50.14375 251.82 
L 384.94375 251.82 
L 384.94375 7.2 
L 50.14375 7.2 
z
" style="fill:#ffffff;"/>
   </g>
   <g id="matplotlib.axis_1">
    <g id="xtick_1">
     <g id="line2d_1">
      <defs>
       <path d="M 0 0 
L 0 3.5 
" id="med6f34f62e" style="stroke:#000000;stroke-width:0.8;"/>
      </defs>
      <g>
       <use style="stroke:#000000;stroke-width:0.8;" x="65.361932" xlink:href="#med6f34f62e" y="251.82"/>
      </g>
     </g>
     <g id="text_1">
      <!-- 0 -->
      <g transform="translate(62.180682 266.418437)scale(0.1 -0.1)">
       <defs>
        <path d="M 2034 4250 
Q 1547 4250 1301 3770 
Q 1056 3291 1056 2328 
Q 1056 1369 1301 889 
Q 1547 409 2034 409 
Q 2525 409 2770 889 
Q 3016 1369 3016 2328 
Q 3016 3291 2770 3770 
Q 2525 4250 2034 4250 
z
M 2034 4750 
Q 2819 4750 3233 4129 
Q 3647 3509 3647 2328 
Q 3647 1150 3233 529 
Q 2819 -91 2034 -91 
Q 1250 -91 836 529 
Q 422 1150 422 2328 
Q 422 3509 836 4129 
Q 1250 4750 2034 4750 
z
" id="DejaVuSans-30" transform="scale(0.015625)"/>
       </defs>
       <use xlink:href="#DejaVuSans-30"/>
      </g>
     </g>
    </g>
    <g id="xtick_2">
     <g id="line2d_2">
      <g>
       <use style="stroke:#000000;stroke-width:0.8;" x="126.356649" xlink:href="#med6f34f62e" y="251.82"/>
      </g>
     </g>
     <g id="text_2">
      <!-- 100 -->
      <g transform="translate(116.812899 266.418437)scale(0.1 -0.1)">
       <defs>
        <path d="M 794 531 
L 1825 531 
L 1825 4091 
L 703 3866 
L 703 4441 
L 1819 4666 
L 2450 4666 
L 2450 531 
L 3481 531 
L 3481 0 
L 794 0 
L 794 531 
z
" id="DejaVuSans-31" transform="scale(0.015625)"/>
       </defs>
       <use xlink:href="#DejaVuSans-31"/>
       <use x="63.623047" xlink:href="#DejaVuSans-30"/>
       <use x="127.246094" xlink:href="#DejaVuSans-30"/>
      </g>
     </g>
    </g>
    <g id="xtick_3">
     <g id="line2d_3">
      <g>
       <use style="stroke:#000000;stroke-width:0.8;" x="187.351365" xlink:href="#med6f34f62e" y="251.82"/>
      </g>
     </g>
     <g id="text_3">
      <!-- 200 -->
      <g transform="translate(177.807615 266.418437)scale(0.1 -0.1)">
       <defs>
        <path d="M 1228 531 
L 3431 531 
L 3431 0 
L 469 0 
L 469 531 
Q 828 903 1448 1529 
Q 2069 2156 2228 2338 
Q 2531 2678 2651 2914 
Q 2772 3150 2772 3378 
Q 2772 3750 2511 3984 
Q 2250 4219 1831 4219 
Q 1534 4219 1204 4116 
Q 875 4013 500 3803 
L 500 4441 
Q 881 4594 1212 4672 
Q 1544 4750 1819 4750 
Q 2544 4750 2975 4387 
Q 3406 4025 3406 3419 
Q 3406 3131 3298 2873 
Q 3191 2616 2906 2266 
Q 2828 2175 2409 1742 
Q 1991 1309 1228 531 
z
" id="DejaVuSans-32" transform="scale(0.015625)"/>
       </defs>
       <use xlink:href="#DejaVuSans-32"/>
       <use x="63.623047" xlink:href="#DejaVuSans-30"/>
       <use x="127.246094" xlink:href="#DejaVuSans-30"/>
      </g>
     </g>
    </g>
    <g id="xtick_4">
     <g id="line2d_4">
      <g>
       <use style="stroke:#000000;stroke-width:0.8;" x="248.346082" xlink:href="#med6f34f62e" y="251.82"/>
      </g>
     </g>
     <g id="text_4">
      <!-- 300 -->
      <g transform="translate(238.802332 266.418437)scale(0.1 -0.1)">
       <defs>
        <path d="M 2597 2516 
Q 3050 2419 3304 2112 
Q 3559 1806 3559 1356 
Q 3559 666 3084 287 
Q 2609 -91 1734 -91 
Q 1441 -91 1130 -33 
Q 819 25 488 141 
L 488 750 
Q 750 597 1062 519 
Q 1375 441 1716 441 
Q 2309 441 2620 675 
Q 2931 909 2931 1356 
Q 2931 1769 2642 2001 
Q 2353 2234 1838 2234 
L 1294 2234 
L 1294 2753 
L 1863 2753 
Q 2328 2753 2575 2939 
Q 2822 3125 2822 3475 
Q 2822 3834 2567 4026 
Q 2313 4219 1838 4219 
Q 1578 4219 1281 4162 
Q 984 4106 628 3988 
L 628 4550 
Q 988 4650 1302 4700 
Q 1616 4750 1894 4750 
Q 2613 4750 3031 4423 
Q 3450 4097 3450 3541 
Q 3450 3153 3228 2886 
Q 3006 2619 2597 2516 
z
" id="DejaVuSans-33" transform="scale(0.015625)"/>
       </defs>
       <use xlink:href="#DejaVuSans-33"/>
       <use x="63.623047" xlink:href="#DejaVuSans-30"/>
       <use x="127.246094" xlink:href="#DejaVuSans-30"/>
      </g>
     </g>
    </g>
    <g id="xtick_5">
     <g id="line2d_5">
      <g>
       <use style="stroke:#000000;stroke-width:0.8;" x="309.340799" xlink:href="#med6f34f62e" y="251.82"/>
      </g>
     </g>
     <g id="text_5">
      <!-- 400 -->
      <g transform="translate(299.797049 266.418437)scale(0.1 -0.1)">
       <defs>
        <path d="M 2419 4116 
L 825 1625 
L 2419 1625 
L 2419 4116 
z
M 2253 4666 
L 3047 4666 
L 3047 1625 
L 3713 1625 
L 3713 1100 
L 3047 1100 
L 3047 0 
L 2419 0 
L 2419 1100 
L 313 1100 
L 313 1709 
L 2253 4666 
z
" id="DejaVuSans-34" transform="scale(0.015625)"/>
       </defs>
       <use xlink:href="#DejaVuSans-34"/>
       <use x="63.623047" xlink:href="#DejaVuSans-30"/>
       <use x="127.246094" xlink:href="#DejaVuSans-30"/>
      </g>
     </g>
    </g>
    <g id="xtick_6">
     <g id="line2d_6">
      <g>
       <use style="stroke:#000000;stroke-width:0.8;" x="370.335515" xlink:href="#med6f34f62e" y="251.82"/>
      </g>
     </g>
     <g id="text_6">
      <!-- 500 -->
      <g transform="translate(360.791765 266.418437)scale(0.1 -0.1)">
       <defs>
        <path d="M 691 4666 
L 3169 4666 
L 3169 4134 
L 1269 4134 
L 1269 2991 
Q 1406 3038 1543 3061 
Q 1681 3084 1819 3084 
Q 2600 3084 3056 2656 
Q 3513 2228 3513 1497 
Q 3513 744 3044 326 
Q 2575 -91 1722 -91 
Q 1428 -91 1123 -41 
Q 819 9 494 109 
L 494 744 
Q 775 591 1075 516 
Q 1375 441 1709 441 
Q 2250 441 2565 725 
Q 2881 1009 2881 1497 
Q 2881 1984 2565 2268 
Q 2250 2553 1709 2553 
Q 1456 2553 1204 2497 
Q 953 2441 691 2322 
L 691 4666 
z
" id="DejaVuSans-35" transform="scale(0.015625)"/>
       </defs>
       <use xlink:href="#DejaVuSans-35"/>
       <use x="63.623047" xlink:href="#DejaVuSans-30"/>
       <use x="127.246094" xlink:href="#DejaVuSans-30"/>
      </g>
     </g>
    </g>
    <g id="text_7">
     <!-- Groups of experiments -->
     <g transform="translate(160.397656 280.096562)scale(0.1 -0.1)">
      <defs>
       <path d="M 3809 666 
L 3809 1919 
L 2778 1919 
L 2778 2438 
L 4434 2438 
L 4434 434 
Q 4069 175 3628 42 
Q 3188 -91 2688 -91 
Q 1594 -91 976 548 
Q 359 1188 359 2328 
Q 359 3472 976 4111 
Q 1594 4750 2688 4750 
Q 3144 4750 3555 4637 
Q 3966 4525 4313 4306 
L 4313 3634 
Q 3963 3931 3569 4081 
Q 3175 4231 2741 4231 
Q 1884 4231 1454 3753 
Q 1025 3275 1025 2328 
Q 1025 1384 1454 906 
Q 1884 428 2741 428 
Q 3075 428 3337 486 
Q 3600 544 3809 666 
z
" id="DejaVuSans-47" transform="scale(0.015625)"/>
       <path d="M 2631 2963 
Q 2534 3019 2420 3045 
Q 2306 3072 2169 3072 
Q 1681 3072 1420 2755 
Q 1159 2438 1159 1844 
L 1159 0 
L 581 0 
L 581 3500 
L 1159 3500 
L 1159 2956 
Q 1341 3275 1631 3429 
Q 1922 3584 2338 3584 
Q 2397 3584 2469 3576 
Q 2541 3569 2628 3553 
L 2631 2963 
z
" id="DejaVuSans-72" transform="scale(0.015625)"/>
       <path d="M 1959 3097 
Q 1497 3097 1228 2736 
Q 959 2375 959 1747 
Q 959 1119 1226 758 
Q 1494 397 1959 397 
Q 2419 397 2687 759 
Q 2956 1122 2956 1747 
Q 2956 2369 2687 2733 
Q 2419 3097 1959 3097 
z
M 1959 3584 
Q 2709 3584 3137 3096 
Q 3566 2609 3566 1747 
Q 3566 888 3137 398 
Q 2709 -91 1959 -91 
Q 1206 -91 779 398 
Q 353 888 353 1747 
Q 353 2609 779 3096 
Q 1206 3584 1959 3584 
z
" id="DejaVuSans-6f" transform="scale(0.015625)"/>
       <path d="M 544 1381 
L 544 3500 
L 1119 3500 
L 1119 1403 
Q 1119 906 1312 657 
Q 1506 409 1894 409 
Q 2359 409 2629 706 
Q 2900 1003 2900 1516 
L 2900 3500 
L 3475 3500 
L 3475 0 
L 2900 0 
L 2900 538 
Q 2691 219 2414 64 
Q 2138 -91 1772 -91 
Q 1169 -91 856 284 
Q 544 659 544 1381 
z
M 1991 3584 
L 1991 3584 
z
" id="DejaVuSans-75" transform="scale(0.015625)"/>
       <path d="M 1159 525 
L 1159 -1331 
L 581 -1331 
L 581 3500 
L 1159 3500 
L 1159 2969 
Q 1341 3281 1617 3432 
Q 1894 3584 2278 3584 
Q 2916 3584 3314 3078 
Q 3713 2572 3713 1747 
Q 3713 922 3314 415 
Q 2916 -91 2278 -91 
Q 1894 -91 1617 61 
Q 1341 213 1159 525 
z
M 3116 1747 
Q 3116 2381 2855 2742 
Q 2594 3103 2138 3103 
Q 1681 3103 1420 2742 
Q 1159 2381 1159 1747 
Q 1159 1113 1420 752 
Q 1681 391 2138 391 
Q 2594 391 2855 752 
Q 3116 1113 3116 1747 
z
" id="DejaVuSans-70" transform="scale(0.015625)"/>
       <path d="M 2834 3397 
L 2834 2853 
Q 2591 2978 2328 3040 
Q 2066 3103 1784 3103 
Q 1356 3103 1142 2972 
Q 928 2841 928 2578 
Q 928 2378 1081 2264 
Q 1234 2150 1697 2047 
L 1894 2003 
Q 2506 1872 2764 1633 
Q 3022 1394 3022 966 
Q 3022 478 2636 193 
Q 2250 -91 1575 -91 
Q 1294 -91 989 -36 
Q 684 19 347 128 
L 347 722 
Q 666 556 975 473 
Q 1284 391 1588 391 
Q 1994 391 2212 530 
Q 2431 669 2431 922 
Q 2431 1156 2273 1281 
Q 2116 1406 1581 1522 
L 1381 1569 
Q 847 1681 609 1914 
Q 372 2147 372 2553 
Q 372 3047 722 3315 
Q 1072 3584 1716 3584 
Q 2034 3584 2315 3537 
Q 2597 3491 2834 3397 
z
" id="DejaVuSans-73" transform="scale(0.015625)"/>
       <path id="DejaVuSans-20" transform="scale(0.015625)"/>
       <path d="M 2375 4863 
L 2375 4384 
L 1825 4384 
Q 1516 4384 1395 4259 
Q 1275 4134 1275 3809 
L 1275 3500 
L 2222 3500 
L 2222 3053 
L 1275 3053 
L 1275 0 
L 697 0 
L 697 3053 
L 147 3053 
L 147 3500 
L 697 3500 
L 697 3744 
Q 697 4328 969 4595 
Q 1241 4863 1831 4863 
L 2375 4863 
z
" id="DejaVuSans-66" transform="scale(0.015625)"/>
       <path d="M 3597 1894 
L 3597 1613 
L 953 1613 
Q 991 1019 1311 708 
Q 1631 397 2203 397 
Q 2534 397 2845 478 
Q 3156 559 3463 722 
L 3463 178 
Q 3153 47 2828 -22 
Q 2503 -91 2169 -91 
Q 1331 -91 842 396 
Q 353 884 353 1716 
Q 353 2575 817 3079 
Q 1281 3584 2069 3584 
Q 2775 3584 3186 3129 
Q 3597 2675 3597 1894 
z
M 3022 2063 
Q 3016 2534 2758 2815 
Q 2500 3097 2075 3097 
Q 1594 3097 1305 2825 
Q 1016 2553 972 2059 
L 3022 2063 
z
" id="DejaVuSans-65" transform="scale(0.015625)"/>
       <path d="M 3513 3500 
L 2247 1797 
L 3578 0 
L 2900 0 
L 1881 1375 
L 863 0 
L 184 0 
L 1544 1831 
L 300 3500 
L 978 3500 
L 1906 2253 
L 2834 3500 
L 3513 3500 
z
" id="DejaVuSans-78" transform="scale(0.015625)"/>
       <path d="M 603 3500 
L 1178 3500 
L 1178 0 
L 603 0 
L 603 3500 
z
M 603 4863 
L 1178 4863 
L 1178 4134 
L 603 4134 
L 603 4863 
z
" id="DejaVuSans-69" transform="scale(0.015625)"/>
       <path d="M 3328 2828 
Q 3544 3216 3844 3400 
Q 4144 3584 4550 3584 
Q 5097 3584 5394 3201 
Q 5691 2819 5691 2113 
L 5691 0 
L 5113 0 
L 5113 2094 
Q 5113 2597 4934 2840 
Q 4756 3084 4391 3084 
Q 3944 3084 3684 2787 
Q 3425 2491 3425 1978 
L 3425 0 
L 2847 0 
L 2847 2094 
Q 2847 2600 2669 2842 
Q 2491 3084 2119 3084 
Q 1678 3084 1418 2786 
Q 1159 2488 1159 1978 
L 1159 0 
L 581 0 
L 581 3500 
L 1159 3500 
L 1159 2956 
Q 1356 3278 1631 3431 
Q 1906 3584 2284 3584 
Q 2666 3584 2933 3390 
Q 3200 3197 3328 2828 
z
" id="DejaVuSans-6d" transform="scale(0.015625)"/>
       <path d="M 3513 2113 
L 3513 0 
L 2938 0 
L 2938 2094 
Q 2938 2591 2744 2837 
Q 2550 3084 2163 3084 
Q 1697 3084 1428 2787 
Q 1159 2491 1159 1978 
L 1159 0 
L 581 0 
L 581 3500 
L 1159 3500 
L 1159 2956 
Q 1366 3272 1645 3428 
Q 1925 3584 2291 3584 
Q 2894 3584 3203 3211 
Q 3513 2838 3513 2113 
z
" id="DejaVuSans-6e" transform="scale(0.015625)"/>
       <path d="M 1172 4494 
L 1172 3500 
L 2356 3500 
L 2356 3053 
L 1172 3053 
L 1172 1153 
Q 1172 725 1289 603 
Q 1406 481 1766 481 
L 2356 481 
L 2356 0 
L 1766 0 
Q 1100 0 847 248 
Q 594 497 594 1153 
L 594 3053 
L 172 3053 
L 172 3500 
L 594 3500 
L 594 4494 
L 1172 4494 
z
" id="DejaVuSans-74" transform="scale(0.015625)"/>
      </defs>
      <use xlink:href="#DejaVuSans-47"/>
      <use x="77.490234" xlink:href="#DejaVuSans-72"/>
      <use x="116.353516" xlink:href="#DejaVuSans-6f"/>
      <use x="177.535156" xlink:href="#DejaVuSans-75"/>
      <use x="240.914062" xlink:href="#DejaVuSans-70"/>
      <use x="304.390625" xlink:href="#DejaVuSans-73"/>
      <use x="356.490234" xlink:href="#DejaVuSans-20"/>
      <use x="388.277344" xlink:href="#DejaVuSans-6f"/>
      <use x="449.458984" xlink:href="#DejaVuSans-66"/>
      <use x="484.664062" xlink:href="#DejaVuSans-20"/>
      <use x="516.451172" xlink:href="#DejaVuSans-65"/>
      <use x="576.224609" xlink:href="#DejaVuSans-78"/>
      <use x="635.404297" xlink:href="#DejaVuSans-70"/>
      <use x="698.880859" xlink:href="#DejaVuSans-65"/>
      <use x="760.404297" xlink:href="#DejaVuSans-72"/>
      <use x="801.517578" xlink:href="#DejaVuSans-69"/>
      <use x="829.300781" xlink:href="#DejaVuSans-6d"/>
      <use x="926.712891" xlink:href="#DejaVuSans-65"/>
      <use x="988.236328" xlink:href="#DejaVuSans-6e"/>
      <use x="1051.615234" xlink:href="#DejaVuSans-74"/>
      <use x="1090.824219" xlink:href="#DejaVuSans-73"/>
     </g>
    </g>
   </g>
   <g id="matplotlib.axis_2">
    <g id="ytick_1">
     <g id="line2d_7">
      <defs>
       <path d="M 0 0 
L -3.5 0 
" id="m6c89857bce" style="stroke:#000000;stroke-width:0.8;"/>
      </defs>
      <g>
       <use style="stroke:#000000;stroke-width:0.8;" x="50.14375" xlink:href="#m6c89857bce" y="240.700909"/>
      </g>
     </g>
     <g id="text_8">
      <!-- 0.00 -->
      <g transform="translate(20.878125 244.500128)scale(0.1 -0.1)">
       <defs>
        <path d="M 684 794 
L 1344 794 
L 1344 0 
L 684 0 
L 684 794 
z
" id="DejaVuSans-2e" transform="scale(0.015625)"/>
       </defs>
       <use xlink:href="#DejaVuSans-30"/>
       <use x="63.623047" xlink:href="#DejaVuSans-2e"/>
       <use x="95.410156" xlink:href="#DejaVuSans-30"/>
       <use x="159.033203" xlink:href="#DejaVuSans-30"/>
      </g>
     </g>
    </g>
    <g id="ytick_2">
     <g id="line2d_8">
      <g>
       <use style="stroke:#000000;stroke-width:0.8;" x="50.14375" xlink:href="#m6c89857bce" y="203.637274"/>
      </g>
     </g>
     <g id="text_9">
      <!-- 0.05 -->
      <g transform="translate(20.878125 207.436493)scale(0.1 -0.1)">
       <use xlink:href="#DejaVuSans-30"/>
       <use x="63.623047" xlink:href="#DejaVuSans-2e"/>
       <use x="95.410156" xlink:href="#DejaVuSans-30"/>
       <use x="159.033203" xlink:href="#DejaVuSans-35"/>
      </g>
     </g>
    </g>
    <g id="ytick_3">
     <g id="line2d_9">
      <g>
       <use style="stroke:#000000;stroke-width:0.8;" x="50.14375" xlink:href="#m6c89857bce" y="166.573639"/>
      </g>
     </g>
     <g id="text_10">
      <!-- 0.10 -->
      <g transform="translate(20.878125 170.372858)scale(0.1 -0.1)">
       <use xlink:href="#DejaVuSans-30"/>
       <use x="63.623047" xlink:href="#DejaVuSans-2e"/>
       <use x="95.410156" xlink:href="#DejaVuSans-31"/>
       <use x="159.033203" xlink:href="#DejaVuSans-30"/>
      </g>
     </g>
    </g>
    <g id="ytick_4">
     <g id="line2d_10">
      <g>
       <use style="stroke:#000000;stroke-width:0.8;" x="50.14375" xlink:href="#m6c89857bce" y="129.510004"/>
      </g>
     </g>
     <g id="text_11">
      <!-- 0.15 -->
      <g transform="translate(20.878125 133.309223)scale(0.1 -0.1)">
       <use xlink:href="#DejaVuSans-30"/>
       <use x="63.623047" xlink:href="#DejaVuSans-2e"/>
       <use x="95.410156" xlink:href="#DejaVuSans-31"/>
       <use x="159.033203" xlink:href="#DejaVuSans-35"/>
      </g>
     </g>
    </g>
    <g id="ytick_5">
     <g id="line2d_11">
      <g>
       <use style="stroke:#000000;stroke-width:0.8;" x="50.14375" xlink:href="#m6c89857bce" y="92.44637"/>
      </g>
     </g>
     <g id="text_12">
      <!-- 0.20 -->
      <g transform="translate(20.878125 96.245588)scale(0.1 -0.1)">
       <use xlink:href="#DejaVuSans-30"/>
       <use x="63.623047" xlink:href="#DejaVuSans-2e"/>
       <use x="95.410156" xlink:href="#DejaVuSans-32"/>
       <use x="159.033203" xlink:href="#DejaVuSans-30"/>
      </g>
     </g>
    </g>
    <g id="ytick_6">
     <g id="line2d_12">
      <g>
       <use style="stroke:#000000;stroke-width:0.8;" x="50.14375" xlink:href="#m6c89857bce" y="55.382735"/>
      </g>
     </g>
     <g id="text_13">
      <!-- 0.25 -->
      <g transform="translate(20.878125 59.181953)scale(0.1 -0.1)">
       <use xlink:href="#DejaVuSans-30"/>
       <use x="63.623047" xlink:href="#DejaVuSans-2e"/>
       <use x="95.410156" xlink:href="#DejaVuSans-32"/>
       <use x="159.033203" xlink:href="#DejaVuSans-35"/>
      </g>
     </g>
    </g>
    <g id="ytick_7">
     <g id="line2d_13">
      <g>
       <use style="stroke:#000000;stroke-width:0.8;" x="50.14375" xlink:href="#m6c89857bce" y="18.3191"/>
      </g>
     </g>
     <g id="text_14">
      <!-- 0.30 -->
      <g transform="translate(20.878125 22.118318)scale(0.1 -0.1)">
       <use xlink:href="#DejaVuSans-30"/>
       <use x="63.623047" xlink:href="#DejaVuSans-2e"/>
       <use x="95.410156" xlink:href="#DejaVuSans-33"/>
       <use x="159.033203" xlink:href="#DejaVuSans-30"/>
      </g>
     </g>
    </g>
    <g id="text_15">
     <!-- Estimated probability -->
     <g transform="translate(14.798438 183.033437)rotate(-90)scale(0.1 -0.1)">
      <defs>
       <path d="M 628 4666 
L 3578 4666 
L 3578 4134 
L 1259 4134 
L 1259 2753 
L 3481 2753 
L 3481 2222 
L 1259 2222 
L 1259 531 
L 3634 531 
L 3634 0 
L 628 0 
L 628 4666 
z
" id="DejaVuSans-45" transform="scale(0.015625)"/>
       <path d="M 2194 1759 
Q 1497 1759 1228 1600 
Q 959 1441 959 1056 
Q 959 750 1161 570 
Q 1363 391 1709 391 
Q 2188 391 2477 730 
Q 2766 1069 2766 1631 
L 2766 1759 
L 2194 1759 
z
M 3341 1997 
L 3341 0 
L 2766 0 
L 2766 531 
Q 2569 213 2275 61 
Q 1981 -91 1556 -91 
Q 1019 -91 701 211 
Q 384 513 384 1019 
Q 384 1609 779 1909 
Q 1175 2209 1959 2209 
L 2766 2209 
L 2766 2266 
Q 2766 2663 2505 2880 
Q 2244 3097 1772 3097 
Q 1472 3097 1187 3025 
Q 903 2953 641 2809 
L 641 3341 
Q 956 3463 1253 3523 
Q 1550 3584 1831 3584 
Q 2591 3584 2966 3190 
Q 3341 2797 3341 1997 
z
" id="DejaVuSans-61" transform="scale(0.015625)"/>
       <path d="M 2906 2969 
L 2906 4863 
L 3481 4863 
L 3481 0 
L 2906 0 
L 2906 525 
Q 2725 213 2448 61 
Q 2172 -91 1784 -91 
Q 1150 -91 751 415 
Q 353 922 353 1747 
Q 353 2572 751 3078 
Q 1150 3584 1784 3584 
Q 2172 3584 2448 3432 
Q 2725 3281 2906 2969 
z
M 947 1747 
Q 947 1113 1208 752 
Q 1469 391 1925 391 
Q 2381 391 2643 752 
Q 2906 1113 2906 1747 
Q 2906 2381 2643 2742 
Q 2381 3103 1925 3103 
Q 1469 3103 1208 2742 
Q 947 2381 947 1747 
z
" id="DejaVuSans-64" transform="scale(0.015625)"/>
       <path d="M 3116 1747 
Q 3116 2381 2855 2742 
Q 2594 3103 2138 3103 
Q 1681 3103 1420 2742 
Q 1159 2381 1159 1747 
Q 1159 1113 1420 752 
Q 1681 391 2138 391 
Q 2594 391 2855 752 
Q 3116 1113 3116 1747 
z
M 1159 2969 
Q 1341 3281 1617 3432 
Q 1894 3584 2278 3584 
Q 2916 3584 3314 3078 
Q 3713 2572 3713 1747 
Q 3713 922 3314 415 
Q 2916 -91 2278 -91 
Q 1894 -91 1617 61 
Q 1341 213 1159 525 
L 1159 0 
L 581 0 
L 581 4863 
L 1159 4863 
L 1159 2969 
z
" id="DejaVuSans-62" transform="scale(0.015625)"/>
       <path d="M 603 4863 
L 1178 4863 
L 1178 0 
L 603 0 
L 603 4863 
z
" id="DejaVuSans-6c" transform="scale(0.015625)"/>
       <path d="M 2059 -325 
Q 1816 -950 1584 -1140 
Q 1353 -1331 966 -1331 
L 506 -1331 
L 506 -850 
L 844 -850 
Q 1081 -850 1212 -737 
Q 1344 -625 1503 -206 
L 1606 56 
L 191 3500 
L 800 3500 
L 1894 763 
L 2988 3500 
L 3597 3500 
L 2059 -325 
z
" id="DejaVuSans-79" transform="scale(0.015625)"/>
      </defs>
      <use xlink:href="#DejaVuSans-45"/>
      <use x="63.183594" xlink:href="#DejaVuSans-73"/>
      <use x="115.283203" xlink:href="#DejaVuSans-74"/>
      <use x="154.492188" xlink:href="#DejaVuSans-69"/>
      <use x="182.275391" xlink:href="#DejaVuSans-6d"/>
      <use x="279.6875" xlink:href="#DejaVuSans-61"/>
      <use x="340.966797" xlink:href="#DejaVuSans-74"/>
      <use x="380.175781" xlink:href="#DejaVuSans-65"/>
      <use x="441.699219" xlink:href="#DejaVuSans-64"/>
      <use x="505.175781" xlink:href="#DejaVuSans-20"/>
      <use x="536.962891" xlink:href="#DejaVuSans-70"/>
      <use x="600.439453" xlink:href="#DejaVuSans-72"/>
      <use x="639.302734" xlink:href="#DejaVuSans-6f"/>
      <use x="700.484375" xlink:href="#DejaVuSans-62"/>
      <use x="763.960938" xlink:href="#DejaVuSans-61"/>
      <use x="825.240234" xlink:href="#DejaVuSans-62"/>
      <use x="888.716797" xlink:href="#DejaVuSans-69"/>
      <use x="916.5" xlink:href="#DejaVuSans-6c"/>
      <use x="944.283203" xlink:href="#DejaVuSans-69"/>
      <use x="972.066406" xlink:href="#DejaVuSans-74"/>
      <use x="1011.275391" xlink:href="#DejaVuSans-79"/>
     </g>
    </g>
   </g>
   <g id="line2d_14">
    <path clip-path="url(#pb44768ca30)" d="M 65.361932 18.319091 
L 65.971879 129.51 
L 66.581826 141.864544 
L 67.191773 166.573638 
L 67.80172 136.922731 
L 68.411668 129.51 
L 69.021615 134.804805 
L 69.631562 129.51 
L 70.241509 141.864544 
L 70.851456 151.748187 
L 71.461403 146.357113 
L 72.071351 135.687278 
L 73.291245 129.51 
L 73.901192 127.039093 
L 74.511139 120.2441 
L 75.121086 109.888077 
L 75.731034 113.037274 
L 76.340981 119.756416 
L 76.950928 114.684549 
L 77.560875 117.155456 
L 78.170822 116.032316 
L 79.390717 120.2441 
L 80.000664 125.062366 
L 80.610611 120.956854 
L 81.220558 122.646368 
L 82.440452 120.563612 
L 83.0504 117.155456 
L 83.660347 111.575989 
L 84.270294 113.294664 
L 84.880241 112.662898 
L 85.490188 114.248504 
L 86.100135 111.507671 
L 86.710083 113.037274 
L 87.929977 108.052106 
L 88.539924 111.453358 
L 89.759819 114.142155 
L 90.369766 111.860651 
L 90.979713 107.961376 
L 91.58966 105.924051 
L 92.199607 105.624554 
L 92.809554 103.726606 
L 94.639396 103.035977 
L 96.469237 106.701611 
L 97.079185 105.034023 
L 97.689132 104.800912 
L 98.299079 105.924051 
L 98.909026 105.683385 
L 99.518973 106.751637 
L 100.738868 106.266703 
L 101.348815 102.330005 
L 101.958762 103.38318 
L 102.568709 105.597978 
L 103.178656 103.035977 
L 103.788603 102.870521 
L 105.008498 104.800912 
L 105.618445 104.616524 
L 106.228392 105.527649 
L 106.838339 103.189447 
L 107.448286 105.153903 
L 108.668181 102.741826 
L 109.278128 104.631678 
L 109.888075 103.465284 
L 111.107969 107.076749 
L 111.717917 105.924051 
L 112.327864 107.65196 
L 112.937811 106.521166 
L 113.547758 108.198419 
L 115.3776 110.308359 
L 115.987547 110.095716 
L 117.207441 113.133053 
L 119.037283 114.934417 
L 119.64723 113.037274 
L 120.257177 113.625586 
L 120.867124 112.589653 
L 122.087018 113.738242 
L 122.696966 113.514123 
L 123.306913 110.978189 
L 125.746701 113.202001 
L 126.966596 112.795028 
L 127.576543 111.877794 
L 128.18649 113.116473 
L 130.626279 109.605458 
L 131.236226 110.128103 
L 131.846173 109.967364 
L 132.45612 110.477327 
L 133.066067 109.654491 
L 134.285962 109.352586 
L 134.895909 108.560998 
L 135.505856 108.422075 
L 136.72575 106.894902 
L 137.335698 106.773486 
L 137.945645 107.889556 
L 138.555592 108.374545 
L 139.775486 108.115553 
L 140.995381 109.050881 
L 141.605328 108.919093 
L 142.825222 109.819946 
L 143.435169 110.834527 
L 144.045116 111.263293 
L 144.655064 112.251364 
L 145.265011 112.662898 
L 145.874958 111.953546 
L 148.314747 111.383991 
L 148.924694 112.321074 
L 150.144588 113.096104 
L 150.754535 114.001111 
L 151.364482 113.327294 
L 152.584377 114.066822 
L 153.194324 113.406492 
L 153.804271 113.770651 
L 154.414218 113.625586 
L 155.024165 114.484211 
L 155.634113 114.8338 
L 156.24406 115.672918 
L 156.854007 114.537275 
L 157.463954 113.904261 
L 158.073901 112.795028 
L 159.293796 114.445429 
L 159.903743 114.779587 
L 160.51369 113.693043 
L 161.123637 113.089411 
L 162.953479 112.704751 
L 163.563426 113.494859 
L 164.173373 113.82049 
L 164.78332 114.59415 
L 166.613162 112.864661 
L 167.223109 113.625586 
L 167.833056 113.500271 
L 168.443003 112.94038 
L 169.05295 113.68752 
L 169.662897 113.564017 
L 170.272845 113.870439 
L 170.882792 112.895269 
L 171.492739 113.202001 
L 172.102686 111.820544 
L 172.712633 111.71108 
L 173.32258 112.019302 
L 173.932528 111.495841 
L 174.542475 111.390011 
L 175.152422 110.466259 
L 176.372316 109.45919 
L 178.202158 110.380389 
L 178.812105 109.888077 
L 179.422052 109.795303 
L 180.641946 110.39297 
L 181.251894 111.075216 
L 182.471788 110.882168 
L 183.081735 110.405043 
L 183.691682 111.073227 
L 184.301629 110.599991 
L 184.911577 109.755273 
L 186.131471 109.581312 
L 187.351365 108.673235 
L 187.961312 108.592899 
L 188.57126 108.878522 
L 189.181207 108.797975 
L 189.791154 109.07981 
L 190.401101 108.999065 
L 191.011048 109.277199 
L 191.620995 109.196277 
L 192.230943 109.47081 
L 192.84089 109.389744 
L 193.450837 108.958129 
L 194.060784 109.579556 
L 195.280678 110.112219 
L 196.500573 109.948641 
L 197.11052 110.209588 
L 197.720467 110.128103 
L 198.330414 109.70888 
L 198.940361 109.630422 
L 199.550309 110.223494 
L 200.160256 110.143423 
L 203.209992 111.386377 
L 203.819939 111.953546 
L 204.429886 111.544663 
L 205.039833 111.783916 
L 206.259727 111.617212 
L 206.869675 111.853085 
L 207.479622 111.453358 
L 208.089569 112.003352 
L 208.699516 112.234585 
L 209.309463 111.212769 
L 209.91941 111.445372 
L 212.359199 111.13134 
L 212.969146 110.139303 
L 213.579093 110.066787 
L 214.189041 110.297424 
L 215.408935 110.152878 
L 216.018882 109.782589 
L 216.628829 109.712967 
L 217.238776 109.940401 
L 217.848724 109.870713 
L 218.458671 110.389878 
L 219.068618 110.025962 
L 219.678565 109.956749 
L 220.288512 110.469474 
L 220.898459 110.109512 
L 221.508407 110.040785 
L 222.118354 109.397952 
L 222.728301 109.332505 
L 223.338248 108.697348 
L 223.948195 108.351073 
L 225.16809 108.793833 
L 225.778037 108.451126 
L 226.387984 108.670451 
L 226.997931 108.609456 
L 227.607878 108.271289 
L 228.217825 107.659052 
L 228.827773 107.326937 
L 229.43772 107.820917 
L 230.047667 108.037714 
L 230.657614 107.980397 
L 231.877508 108.40808 
L 232.487456 108.350034 
L 233.097403 108.829567 
L 233.70735 109.038034 
L 234.317297 108.978354 
L 234.927244 109.184789 
L 235.537191 109.125009 
L 236.757086 109.532445 
L 237.367033 109.995939 
L 237.97698 109.934138 
L 239.196874 108.7751 
L 239.806822 108.459929 
L 240.416769 108.661714 
L 241.026716 108.605601 
L 241.636663 108.038652 
L 242.24661 107.98508 
L 242.856557 108.185717 
L 243.466505 108.637988 
L 244.076452 108.835056 
L 244.686399 108.276944 
L 245.296346 108.22346 
L 245.906293 108.419921 
L 246.51624 108.366316 
L 247.126188 108.808911 
L 247.736135 108.260187 
L 248.956029 108.646372 
L 249.565976 109.082196 
L 251.395818 109.645831 
L 253.835606 109.423909 
L 254.445554 108.892616 
L 255.055501 108.839905 
L 256.275395 109.207632 
L 256.885342 109.625065 
L 257.495289 109.805288 
L 258.105237 109.750523 
L 259.935078 110.978189 
L 260.545025 110.920453 
L 261.154972 111.093287 
L 261.76492 111.035561 
L 262.374867 111.20697 
L 262.984814 110.693085 
L 264.204708 110.581478 
L 264.814655 110.978189 
L 266.03455 110.865875 
L 266.644497 110.138375 
L 267.254444 110.53164 
L 267.864391 110.699934 
L 268.474338 110.423346 
L 269.084286 110.812226 
L 269.694233 110.316334 
L 270.30418 110.043348 
L 270.914127 109.552659 
L 272.134021 109.452032 
L 272.743969 109.184789 
L 273.353916 109.135845 
L 273.963863 109.3033 
L 274.57381 109.038808 
L 275.793704 109.371386 
L 276.403652 109.108982 
L 277.013599 109.274117 
L 277.623546 109.013491 
L 278.233493 108.966159 
L 278.84344 109.341474 
L 279.453387 109.082891 
L 280.063335 109.455743 
L 280.673282 108.779496 
L 281.893176 109.104188 
L 282.503123 109.057519 
L 283.11307 109.425246 
L 283.723018 109.584427 
L 284.332965 109.53682 
L 284.942912 109.900161 
L 285.552859 109.851946 
L 286.162806 109.395577 
L 286.772753 109.552659 
L 287.382701 109.505792 
L 287.992648 109.661715 
L 290.432436 109.475604 
L 291.042384 109.829313 
L 291.652331 109.981856 
L 292.262278 109.338646 
L 292.872225 109.689882 
L 294.092119 109.992449 
L 294.702067 109.945913 
L 295.312014 110.095716 
L 295.921961 110.440324 
L 296.531908 110.58804 
L 297.141855 110.15131 
L 300.191591 110.882168 
L 300.801538 111.217618 
L 301.411485 110.978189 
L 302.63138 110.883151 
L 303.241327 111.025587 
L 303.851274 110.599991 
L 304.461221 110.742416 
L 305.071168 110.507836 
L 305.681116 110.649775 
L 306.291063 110.978189 
L 306.90101 111.118228 
L 307.510957 110.885062 
L 308.120904 111.024637 
L 308.730851 110.792873 
L 309.950746 110.701591 
L 310.560693 110.472357 
L 311.780587 110.383338 
L 312.390534 110.521743 
L 314.220376 110.38916 
L 314.830323 110.526194 
L 315.44027 110.482199 
L 316.050217 110.798264 
L 316.660165 110.574343 
L 317.270112 110.530557 
L 317.880059 110.129737 
L 319.099953 110.75598 
L 319.7099 110.712184 
L 320.319848 111.022417 
L 320.929795 110.978189 
L 322.149689 110.53904 
L 323.369583 110.803356 
L 323.979531 110.585753 
L 324.589478 110.543171 
L 325.199425 110.327181 
L 325.809372 109.93902 
L 327.029266 109.857657 
L 327.639214 110.16124 
L 328.249161 110.291824 
L 328.859108 110.250612 
L 329.469055 110.038786 
L 330.688949 109.958085 
L 331.298897 110.087642 
L 331.908844 110.385846 
L 332.518791 110.344976 
L 333.128738 110.135835 
L 333.738685 110.095716 
L 334.348632 109.720368 
L 334.95858 109.681376 
L 336.178474 110.270229 
L 336.788421 110.230265 
L 337.398368 110.522151 
L 338.008315 110.150879 
L 338.618263 110.441627 
L 339.22821 110.236915 
L 341.058051 110.1191 
L 341.667998 110.406722 
L 342.277946 110.367245 
L 342.887893 110.165393 
L 343.49784 110.288819 
L 344.107787 110.088017 
L 347.157523 110.698012 
L 348.377417 111.257163 
L 348.987365 111.21679 
L 349.597312 111.017866 
L 350.817206 110.938678 
L 351.427153 111.057045 
L 352.0371 111.017534 
L 352.647048 111.135239 
L 353.256995 110.93901 
L 353.866942 110.899996 
L 354.476889 111.017203 
L 356.306731 110.900647 
L 356.916678 111.016872 
L 357.526625 111.287053 
L 358.746519 111.20887 
L 359.356466 111.323504 
L 359.966414 111.13134 
L 360.576361 111.092812 
L 361.186308 111.359502 
L 361.796255 111.472876 
L 362.406202 111.281982 
L 363.016149 111.546651 
L 363.626097 111.507671 
L 364.845991 111.731514 
L 366.065885 111.653431 
L 369.115621 112.203734 
L 369.725568 112.460738 
L 369.725568 112.460738 
" style="fill:none;stroke:#1f77b4;stroke-linecap:square;stroke-width:1.5;"/>
   </g>
   <g id="line2d_15">
    <path clip-path="url(#pb44768ca30)" d="M 65.361932 166.573638 
L 65.971879 92.446367 
L 66.581826 117.155456 
L 67.191773 92.446367 
L 67.80172 92.446367 
L 68.411668 117.155456 
L 69.021615 113.625586 
L 69.631562 110.978189 
L 70.241509 117.155456 
L 70.851456 114.684549 
L 71.461403 119.401746 
L 72.681298 115.254757 
L 73.901192 122.09728 
L 75.121086 127.329786 
L 75.731034 133.628181 
L 76.950928 136.922731 
L 77.560875 134.804805 
L 78.170822 126.140582 
L 78.780769 121.45269 
L 79.390717 120.2441 
L 80.000664 110.236915 
L 80.610611 109.552659 
L 81.220558 106.173642 
L 82.440452 110.339155 
L 83.0504 107.271818 
L 83.660347 106.793578 
L 84.270294 99.395803 
L 84.880241 96.938936 
L 85.490188 96.806795 
L 86.710083 100.68273 
L 87.929977 108.052106 
L 88.539924 103.850562 
L 89.149871 103.565458 
L 89.759819 105.102242 
L 90.369766 108.330781 
L 90.979713 106.237487 
L 92.199607 105.624554 
L 92.809554 106.949534 
L 94.029449 103.256595 
L 94.639396 103.035977 
L 95.85929 108.434601 
L 97.079185 105.034023 
L 97.689132 106.173642 
L 98.299079 108.619596 
L 98.909026 108.330781 
L 99.518973 109.352586 
L 100.12892 109.061098 
L 100.738868 106.266703 
L 101.958762 108.243983 
L 102.568709 106.793578 
L 103.178656 108.919093 
L 103.788603 106.345228 
L 104.398551 107.271818 
L 105.008498 109.29348 
L 105.618445 109.042022 
L 107.448286 105.153903 
L 108.668181 108.919093 
L 109.278128 107.677995 
L 110.498022 111.225273 
L 111.107969 110.002832 
L 111.717917 109.774824 
L 112.327864 108.60231 
L 112.937811 106.521166 
L 113.547758 107.271818 
L 115.987547 113.625586 
L 116.597494 112.504335 
L 117.207441 112.271103 
L 117.817388 111.191197 
L 118.427335 110.978189 
L 119.037283 109.937076 
L 119.64723 110.566368 
L 120.257177 111.996415 
L 120.867124 111.783916 
L 121.477071 112.373056 
L 122.087018 112.161064 
L 122.696966 110.39297 
L 123.306913 110.978189 
L 123.91686 110.022935 
L 124.526807 109.843584 
L 125.136754 108.919093 
L 125.746701 110.236915 
L 126.356649 109.326839 
L 126.966596 109.161339 
L 127.576543 109.718744 
L 128.18649 108.127141 
L 128.796437 108.683773 
L 130.016332 108.380267 
L 130.626279 109.605458 
L 131.846173 109.29348 
L 132.45612 108.473891 
L 133.066067 108.330781 
L 135.505856 110.339155 
L 136.115803 110.186226 
L 136.72575 111.292288 
L 137.335698 111.133913 
L 138.555592 112.050275 
L 139.165539 111.889591 
L 140.995381 113.202001 
L 141.605328 112.448963 
L 142.215275 112.875144 
L 142.825222 112.136421 
L 143.435169 112.558416 
L 144.045116 111.8335 
L 144.655064 110.553798 
L 145.265011 111.539759 
L 146.484905 112.361159 
L 147.094852 112.213643 
L 147.704799 111.523245 
L 148.314747 111.383991 
L 148.924694 110.70961 
L 149.534641 111.111512 
L 150.144588 112.037152 
L 150.754535 111.898207 
L 151.364482 112.283242 
L 151.97443 113.181268 
L 152.584377 113.037274 
L 153.194324 112.384046 
L 153.804271 112.247487 
L 155.024165 112.981626 
L 155.634113 111.84881 
L 156.854007 112.573637 
L 158.073901 114.248504 
L 158.683848 114.10693 
L 159.293796 114.445429 
L 159.903743 114.304407 
L 160.51369 115.109482 
L 161.123637 115.435201 
L 161.733584 115.290622 
L 162.343531 116.074434 
L 162.953479 115.927679 
L 163.563426 115.325152 
L 164.173373 115.63956 
L 164.78332 116.402131 
L 165.393267 116.7062 
L 166.003214 117.453163 
L 166.613162 116.859538 
L 167.223109 117.155456 
L 167.833056 116.570624 
L 168.443003 117.300808 
L 169.05295 117.588949 
L 169.662897 117.011805 
L 170.272845 116.8698 
L 170.882792 116.303425 
L 171.492739 116.167098 
L 172.102686 116.453494 
L 172.712633 115.480268 
L 173.32258 114.934417 
L 173.932528 115.637019 
L 174.542475 115.920002 
L 175.152422 116.609405 
L 176.982263 117.424035 
L 177.592211 116.487647 
L 178.812105 117.023326 
L 180.641946 116.635264 
L 181.251894 116.120528 
L 181.861841 116.383297 
L 182.471788 115.491115 
L 183.081735 115.754426 
L 183.691682 114.874626 
L 184.301629 114.381993 
L 185.521524 114.909177 
L 186.131471 114.423801 
L 187.961312 115.198301 
L 188.57126 114.721067 
L 189.181207 114.611879 
L 189.791154 114.142155 
L 190.401101 114.756524 
L 191.011048 114.290633 
L 191.620995 113.472855 
L 192.230943 114.081602 
L 192.84089 113.978577 
L 193.450837 114.227837 
L 194.060784 114.1251 
L 194.670731 113.675303 
L 195.280678 113.922498 
L 195.890626 113.82261 
L 196.500573 114.066822 
L 197.11052 113.967189 
L 198.330414 114.447616 
L 199.550309 113.577669 
L 200.160256 114.150296 
L 200.770203 114.052971 
L 201.990097 113.202001 
L 202.600044 113.766155 
L 203.209992 113.998791 
L 203.819939 113.254027 
L 205.039833 114.362254 
L 205.64978 113.625586 
L 206.869675 113.443794 
L 207.479622 113.670841 
L 208.089569 114.211401 
L 208.699516 113.80507 
L 209.309463 114.027731 
L 210.529358 113.847132 
L 212.359199 114.500769 
L 212.969146 114.104953 
L 213.579093 114.016188 
L 214.189041 114.230709 
L 214.798988 113.840825 
L 215.408935 114.054319 
L 216.018882 113.967189 
L 216.628829 113.58306 
L 217.238776 113.795018 
L 218.458671 114.802209 
L 219.068618 114.713854 
L 219.678565 113.750669 
L 220.288512 114.248504 
L 220.898459 113.873786 
L 221.508407 114.07884 
L 222.118354 114.569628 
L 222.728301 113.911794 
L 223.948195 114.315331 
L 225.16809 114.149025 
L 225.778037 114.347607 
L 226.387984 114.264962 
L 227.607878 115.212042 
L 228.217825 115.403699 
L 228.827773 115.86949 
L 229.43772 116.05728 
L 230.047667 115.696623 
L 230.657614 115.883673 
L 233.097403 115.543992 
L 233.70735 115.728225 
L 234.317297 116.177757 
L 234.927244 115.827019 
L 235.537191 116.008248 
L 236.757086 115.31542 
L 237.97698 115.154372 
L 238.586927 115.594891 
L 239.196874 115.773137 
L 239.806822 115.691851 
L 240.416769 115.35376 
L 241.026716 115.530991 
L 241.636663 115.962606 
L 242.24661 115.627067 
L 242.856557 115.547681 
L 244.076452 115.894796 
L 244.686399 116.317862 
L 245.906293 116.656284 
L 246.51624 117.072546 
L 247.126188 116.742265 
L 247.736135 116.661277 
L 250.175923 117.318017 
L 250.785871 117.236477 
L 251.395818 117.397702 
L 252.005765 117.316427 
L 252.615712 116.995015 
L 253.835606 116.836629 
L 254.445554 116.996562 
L 255.055501 117.393051 
L 255.665448 117.550178 
L 256.275395 117.942371 
L 256.885342 118.096759 
L 257.495289 118.015583 
L 258.105237 118.402607 
L 258.715184 117.854778 
L 259.325131 117.542744 
L 259.935078 117.695972 
L 260.545025 118.079163 
L 261.76492 118.379444 
L 262.374867 118.299394 
L 262.984814 118.676024 
L 264.204708 118.96897 
L 264.814655 118.210111 
L 265.424603 118.35712 
L 267.254444 118.122982 
L 268.474338 118.413111 
L 269.084286 118.335592 
L 269.694233 118.037929 
L 270.30418 117.961989 
L 270.914127 118.32512 
L 271.524074 118.467446 
L 272.743969 119.184364 
L 273.353916 119.322923 
L 273.963863 119.028452 
L 274.57381 118.951175 
L 275.183757 119.089215 
L 276.403652 118.935656 
L 277.013599 119.285555 
L 277.623546 119.208654 
L 278.233493 119.343976 
L 280.063335 119.115383 
L 280.673282 119.458852 
L 281.283229 118.965137 
L 281.893176 118.890644 
L 282.503123 119.23185 
L 284.942912 119.756416 
L 285.552859 119.680973 
L 286.162806 119.401746 
L 287.992648 119.788394 
L 288.602595 119.511917 
L 289.822489 119.766987 
L 291.652331 119.546667 
L 292.262278 119.672744 
L 293.482172 119.132183 
L 294.092119 119.061214 
L 294.702067 118.793993 
L 295.312014 119.116498 
L 295.921961 118.459371 
L 296.531908 118.19584 
L 297.751802 118.061026 
L 298.36175 118.187688 
L 298.971697 118.120662 
L 301.411485 118.620176 
L 303.241327 118.419352 
L 303.851274 118.542193 
L 304.461221 118.475796 
L 305.071168 118.221588 
L 305.681116 118.531666 
L 306.291063 118.091413 
L 306.90101 118.213535 
L 307.510957 118.521294 
L 308.120904 118.641716 
L 308.730851 118.390909 
L 309.950746 118.261839 
L 310.560693 118.381719 
L 311.17064 118.684485 
L 311.780587 118.070613 
L 313.000482 118.30896 
L 314.830323 118.119712 
L 315.44027 118.237604 
L 316.050217 117.815168 
L 316.660165 117.933225 
L 317.270112 117.513561 
L 317.880059 117.810396 
L 318.490006 117.749423 
L 319.099953 117.155456 
L 319.7099 116.919009 
L 320.319848 116.860599 
L 320.929795 116.978966 
L 321.539742 116.744617 
L 322.149689 116.335723 
L 323.979531 117.213601 
L 324.589478 116.981451 
L 325.199425 117.271194 
L 325.809372 117.386391 
L 326.419319 117.328246 
L 327.639214 117.556773 
L 329.469055 116.870794 
L 330.079002 117.155456 
L 330.688949 117.098791 
L 331.298897 117.38163 
L 331.908844 116.816979 
L 332.518791 116.93032 
L 333.128738 116.7062 
L 333.738685 116.651192 
L 334.348632 116.931844 
L 335.568527 116.487647 
L 336.788421 116.712242 
L 337.398368 116.989625 
L 338.008315 116.769382 
L 338.618263 116.385021 
L 339.22821 116.49655 
L 339.838157 116.114497 
L 343.49784 116.776982 
L 344.107787 116.723862 
L 345.937629 116.083481 
L 347.157523 116.621788 
L 347.76747 116.409929 
L 348.377417 116.517802 
L 348.987365 116.466152 
L 349.597312 116.573451 
L 350.817206 116.470559 
L 352.0371 116.053778 
L 353.256995 116.58083 
L 353.866942 116.529909 
L 354.476889 116.323153 
L 355.086836 115.961535 
L 355.696783 116.223045 
L 356.306731 116.173294 
L 356.916678 115.814261 
L 357.526625 115.920002 
L 358.136572 116.179425 
L 358.746519 116.130182 
L 359.356466 115.774209 
L 359.966414 115.726005 
L 361.186308 115.935257 
L 361.796255 115.734808 
L 363.016149 115.63956 
L 363.626097 115.440956 
L 367.28578 116.059489 
L 367.895727 115.862829 
L 368.505674 115.964661 
L 369.115621 116.214628 
L 369.725568 116.01884 
L 369.725568 116.01884 
" style="fill:none;stroke:#ff7f0e;stroke-linecap:square;stroke-width:1.5;"/>
   </g>
   <g id="line2d_16">
    <path clip-path="url(#pb44768ca30)" d="M 65.361932 18.319091 
L 65.971879 129.51 
L 66.581826 117.155456 
L 67.191773 110.978189 
L 67.80172 107.271818 
L 68.411668 117.155456 
L 69.021615 113.625586 
L 69.631562 120.2441 
L 70.241509 84.210005 
L 70.851456 62.795466 
L 71.461403 65.491 
L 72.071351 55.382735 
L 72.681298 69.637978 
L 73.291245 76.561953 
L 73.901192 77.620916 
L 75.121086 88.08594 
L 75.731034 75.973642 
L 76.950928 77.620916 
L 78.170822 85.707531 
L 78.780769 89.22345 
L 79.390717 86.269101 
L 80.000664 86.516185 
L 80.610611 89.595319 
L 81.220558 86.955466 
L 81.830505 89.798971 
L 82.440452 87.334139 
L 84.270294 87.813417 
L 84.880241 90.200089 
L 86.100135 90.328452 
L 86.710083 88.328186 
L 88.539924 94.347066 
L 89.149871 94.299547 
L 89.759819 96.062339 
L 90.369766 92.446367 
L 91.58966 99.185215 
L 92.199607 99.035455 
L 93.419502 101.909424 
L 94.639396 107.574385 
L 97.079185 106.432645 
L 97.689132 107.546373 
L 98.909026 104.359686 
L 99.518973 101.549717 
L 100.12892 102.670824 
L 100.738868 105.010318 
L 101.348815 106.036365 
L 101.958762 103.38318 
L 102.568709 102.011178 
L 103.178656 101.859353 
L 103.788603 102.870521 
L 104.398551 101.569721 
L 106.838339 109.635304 
L 107.448286 110.448708 
L 108.058234 110.195151 
L 108.668181 108.919093 
L 109.278128 109.70888 
L 109.888075 111.479051 
L 110.498022 111.225273 
L 111.107969 110.002832 
L 112.327864 113.354058 
L 113.547758 114.684549 
L 114.157705 112.579701 
L 114.767652 112.334175 
L 115.3776 113.880756 
L 115.987547 114.508059 
L 116.597494 113.376425 
L 117.207441 111.409164 
L 117.817388 111.191197 
L 119.037283 112.435741 
L 119.64723 112.213643 
L 120.867124 113.39538 
L 121.477071 114.764256 
L 122.087018 115.31542 
L 122.696966 114.294411 
L 123.91686 115.372328 
L 124.526807 116.651192 
L 125.136754 116.406704 
L 125.746701 117.649646 
L 126.356649 118.134038 
L 126.966596 117.882194 
L 128.18649 118.81857 
L 128.796437 118.56741 
L 129.406384 116.223045 
L 130.016332 117.386391 
L 131.846173 116.7062 
L 132.45612 117.823275 
L 133.066067 118.258547 
L 133.676015 118.030119 
L 134.285962 118.455936 
L 134.895909 119.518942 
L 135.505856 119.285555 
L 136.72575 120.087051 
L 137.335698 121.100604 
L 137.945645 119.626373 
L 138.555592 119.401746 
L 139.165539 119.788394 
L 139.775486 118.360776 
L 140.385433 118.151789 
L 140.995381 117.353132 
L 141.605328 117.743767 
L 142.215275 116.377222 
L 142.825222 117.348504 
L 143.435169 116.58083 
L 144.045116 116.395183 
L 144.655064 116.778219 
L 145.265011 115.470747 
L 145.874958 116.412326 
L 146.484905 116.233483 
L 147.704799 116.973774 
L 148.314747 115.712595 
L 150.144588 115.214031 
L 150.754535 114.526837 
L 151.364482 114.893359 
L 151.97443 113.181268 
L 153.194324 112.895269 
L 153.804271 112.247487 
L 154.414218 113.121322 
L 155.024165 111.979902 
L 155.634113 112.843807 
L 156.24406 112.707822 
L 156.854007 113.064547 
L 157.463954 111.953546 
L 158.073901 111.826045 
L 158.683848 112.181554 
L 159.293796 111.575989 
L 159.903743 111.928539 
L 160.51369 110.860154 
L 161.123637 110.743609 
L 162.343531 112.368074 
L 162.953479 112.704751 
L 164.173373 112.456187 
L 164.78332 111.882179 
L 165.393267 111.764387 
L 166.003214 112.094557 
L 166.613162 112.864661 
L 167.223109 111.860651 
L 168.443003 112.504335 
L 169.05295 111.953546 
L 169.662897 112.702078 
L 171.492739 112.354841 
L 172.102686 113.084076 
L 172.712633 113.386278 
L 173.32258 114.101528 
L 173.932528 113.980544 
L 175.762369 114.847464 
L 176.372316 114.319993 
L 176.982263 114.201107 
L 177.592211 114.884898 
L 178.202158 115.162789 
L 178.812105 115.041318 
L 179.422052 115.31542 
L 180.031999 115.194424 
L 180.641946 115.464837 
L 181.251894 114.956221 
L 182.471788 116.259275 
L 183.081735 116.518631 
L 183.691682 116.015041 
L 184.911577 116.528329 
L 185.521524 117.155456 
L 187.351365 117.893041 
L 187.961312 117.400099 
L 189.791154 118.119712 
L 190.401101 117.635242 
L 191.620995 118.81857 
L 192.230943 119.047064 
L 193.450837 118.794921 
L 195.280678 117.386391 
L 195.890626 117.270388 
L 196.500573 117.498638 
L 197.720467 115.908669 
L 199.550309 116.596427 
L 200.160256 116.487647 
L 201.38015 117.596692 
L 201.990097 117.814372 
L 202.600044 116.71813 
L 204.429886 116.400164 
L 205.039833 116.618308 
L 205.64978 117.155456 
L 206.259727 117.368463 
L 206.869675 116.625223 
L 208.089569 115.788568 
L 208.699516 115.689664 
L 209.309463 116.217135 
L 209.91941 115.8058 
L 210.529358 115.708066 
L 211.139305 114.684549 
L 213.579093 115.535188 
L 214.189041 114.835833 
L 214.798988 115.347475 
L 215.408935 114.954653 
L 216.018882 114.863889 
L 217.238776 115.277566 
L 217.848724 114.891283 
L 218.458671 115.390521 
L 219.068618 115.592825 
L 219.678565 116.085381 
L 220.288512 116.283377 
L 220.898459 116.769382 
L 223.948195 116.303425 
L 224.558142 116.495291 
L 225.16809 116.403854 
L 226.387984 116.782494 
L 226.997931 116.133651 
L 228.217825 116.51007 
L 228.827773 116.420621 
L 229.43772 116.880912 
L 230.657614 116.701251 
L 231.267561 117.155456 
L 231.877508 117.065278 
L 232.487456 117.245314 
L 233.097403 117.155456 
L 233.70735 116.798654 
L 235.537191 116.537729 
L 236.147139 116.715799 
L 236.757086 116.104004 
L 237.367033 116.020409 
L 237.97698 116.459425 
L 238.586927 116.375168 
L 239.196874 116.809876 
L 239.806822 116.20842 
L 241.026716 116.556971 
L 241.636663 116.473829 
L 242.24661 116.645989 
L 243.466505 116.48081 
L 244.686399 115.312747 
L 245.296346 115.485924 
L 245.906293 115.158768 
L 247.736135 115.672918 
L 248.346082 115.349475 
L 248.956029 114.782735 
L 250.175923 115.123466 
L 250.785871 114.806075 
L 251.395818 114.732996 
L 252.005765 115.143315 
L 252.615712 115.310295 
L 253.225659 114.996417 
L 253.835606 115.162789 
L 255.055501 114.542003 
L 255.665448 114.471409 
L 256.275395 113.929114 
L 256.885342 113.860917 
L 258.105237 114.193485 
L 258.715184 114.591311 
L 259.325131 114.754259 
L 259.935078 114.452907 
L 260.545025 113.922498 
L 261.154972 113.625586 
L 262.984814 113.430086 
L 263.594761 113.82049 
L 264.204708 113.755131 
L 264.814655 113.916157 
L 265.424603 113.850899 
L 266.03455 114.235293 
L 266.644497 114.393414 
L 267.254444 114.327305 
L 267.864391 114.706806 
L 269.084286 114.573914 
L 269.694233 114.728677 
L 270.30418 114.44259 
L 270.914127 114.377519 
L 271.524074 114.531487 
L 272.134021 114.248504 
L 273.963863 114.05782 
L 275.183757 114.362254 
L 275.793704 114.298917 
L 276.403652 114.663187 
L 277.013599 114.386334 
L 277.623546 114.748272 
L 278.233493 114.472757 
L 278.84344 114.410005 
L 279.453387 114.558196 
L 280.063335 114.285563 
L 280.673282 114.223872 
L 281.283229 114.580144 
L 281.893176 114.517967 
L 282.503123 114.663783 
L 283.11307 114.601728 
L 284.332965 114.066822 
L 284.942912 113.596259 
L 285.552859 113.333059 
L 286.162806 113.68393 
L 286.772753 113.829238 
L 287.382701 113.364474 
L 287.992648 113.307323 
L 288.602595 113.654449 
L 289.212542 113.798243 
L 289.822489 113.740385 
L 290.432436 114.083524 
L 291.042384 113.425789 
L 291.652331 113.170122 
L 292.262278 113.313298 
L 294.092119 113.146805 
L 294.702067 113.288523 
L 295.921961 112.787363 
L 297.141855 113.069705 
L 297.751802 113.403819 
L 298.36175 113.542643 
L 298.971697 113.873786 
L 299.581644 114.010666 
L 300.191591 114.338881 
L 300.801538 113.899224 
L 301.411485 114.034977 
L 302.021433 113.979483 
L 302.63138 114.114342 
L 303.241327 114.058925 
L 305.071168 114.458784 
L 305.681116 114.403057 
L 306.291063 114.721983 
L 306.90101 114.479163 
L 307.510957 114.610056 
L 308.120904 114.368716 
L 308.730851 114.684549 
L 309.950746 114.942701 
L 311.17064 114.831337 
L 311.780587 115.142122 
L 312.390534 115.268807 
L 313.000482 115.212727 
L 313.610429 115.520298 
L 314.220376 115.282647 
L 315.44027 115.892951 
L 316.660165 115.779411 
L 317.270112 116.08115 
L 317.880059 116.024198 
L 319.7099 116.386998 
L 320.319848 116.152948 
L 320.929795 116.096504 
L 324.589478 116.807446 
L 325.809372 116.693608 
L 326.419319 116.982666 
L 328.249161 116.812273 
L 330.079002 117.155456 
L 330.688949 116.928773 
L 331.298897 116.533488 
L 331.908844 116.647734 
L 333.128738 117.211613 
L 333.738685 116.987371 
L 334.95858 117.211237 
L 335.568527 117.155456 
L 336.178474 117.26651 
L 336.788421 117.044655 
L 337.398368 116.989625 
L 338.008315 117.100304 
L 338.618263 116.715213 
L 339.22821 116.990729 
L 339.838157 117.100668 
L 340.448104 117.046124 
L 341.058051 116.664546 
L 341.667998 116.774485 
L 342.277946 116.395183 
L 342.887893 116.505221 
L 343.49784 116.452577 
L 344.107787 116.723862 
L 344.717734 116.509474 
L 345.327681 116.618308 
L 345.937629 116.40508 
L 346.547576 116.35322 
L 347.157523 116.141482 
L 347.76747 116.090417 
L 348.377417 116.358389 
L 348.987365 116.307081 
L 349.597312 116.414712 
L 350.817206 116.312505 
L 351.427153 116.419439 
L 352.0371 116.368551 
L 352.647048 116.160812 
L 353.256995 116.267394 
L 354.476889 115.854976 
L 355.696783 116.067641 
L 356.916678 116.588032 
L 357.526625 116.537729 
L 358.136572 116.333536 
L 358.746519 116.591555 
L 359.356466 116.695044 
L 360.576361 116.595046 
L 361.796255 116.191454 
L 362.406202 116.44659 
L 363.016149 116.397513 
L 363.626097 116.651192 
L 364.236044 116.601894 
L 364.845991 116.402131 
L 366.065885 116.605252 
L 366.675832 116.107196 
L 367.28578 116.358389 
L 367.895727 116.310285 
L 368.505674 116.113514 
L 369.115621 116.066083 
L 369.725568 116.167098 
L 369.725568 116.167098 
" style="fill:none;stroke:#2ca02c;stroke-linecap:square;stroke-width:1.5;"/>
   </g>
   <g id="line2d_17">
    <path clip-path="url(#pb44768ca30)" d="M 65.361932 240.700909 
L 66.581826 166.573638 
L 67.191773 148.041822 
L 67.80172 136.922731 
L 68.411668 117.155456 
L 69.021615 92.446367 
L 69.631562 110.978189 
L 70.241509 117.155456 
L 70.851456 122.09728 
L 71.461403 119.401746 
L 72.071351 129.51 
L 72.681298 132.361049 
L 73.901192 127.039093 
L 74.511139 129.51 
L 75.121086 122.969359 
L 75.731034 121.273637 
L 76.340981 111.953546 
L 76.950928 114.684549 
L 77.560875 113.625586 
L 78.170822 116.032316 
L 78.780769 115.006844 
L 79.390717 117.155456 
L 80.610611 126.658951 
L 81.220558 130.882731 
L 83.0504 134.451824 
L 83.660347 133.096811 
L 84.880241 135.125708 
L 86.100135 132.686889 
L 86.710083 135.687278 
L 87.32003 134.518607 
L 87.929977 129.51 
L 88.539924 128.55965 
L 89.149871 129.51 
L 89.759819 126.798029 
L 90.979713 132.095838 
L 91.58966 132.879429 
L 92.199607 128.686368 
L 93.419502 130.298595 
L 94.029449 127.965683 
L 94.639396 127.240801 
L 95.249343 128.027463 
L 95.85929 124.422835 
L 96.469237 123.807903 
L 97.079185 124.614811 
L 97.689132 124.019099 
L 98.909026 120.2441 
L 100.738868 118.830654 
L 101.348815 119.626373 
L 102.568709 118.749589 
L 103.178656 120.685326 
L 103.788603 120.2441 
L 104.398551 120.956854 
L 105.008498 118.278595 
L 105.618445 120.105795 
L 106.228392 118.608932 
L 106.838339 120.378384 
L 107.448286 118.920391 
L 108.058234 118.547517 
L 109.888075 120.494531 
L 110.498022 116.167098 
L 111.107969 116.830344 
L 111.717917 118.439047 
L 112.327864 118.105805 
L 112.937811 118.719324 
L 114.157705 118.070613 
L 114.767652 119.566107 
L 115.3776 118.346262 
L 115.987547 116.272994 
L 116.597494 115.992684 
L 117.817388 117.155456 
L 118.427335 118.55938 
L 119.64723 119.626373 
L 120.257177 119.327683 
L 120.867124 119.841226 
L 121.477071 117.155456 
L 122.696966 118.19584 
L 123.306913 117.927614 
L 123.91686 119.193322 
L 124.526807 117.407588 
L 125.136754 117.155456 
L 125.746701 116.167098 
L 126.356649 116.66617 
L 127.576543 116.195883 
L 128.18649 117.393051 
L 128.796437 117.155456 
L 129.406384 118.320978 
L 130.016332 118.079163 
L 130.626279 117.155456 
L 131.846173 118.053967 
L 133.066067 116.272994 
L 133.676015 114.094161 
L 134.285962 113.904261 
L 134.895909 114.362254 
L 136.72575 113.80507 
L 137.945645 112.213643 
L 138.555592 112.662898 
L 139.165539 112.497189 
L 139.775486 112.936835 
L 140.385433 112.771589 
L 140.995381 113.202001 
L 142.215275 115.209866 
L 142.825222 114.452907 
L 144.045116 115.254757 
L 144.655064 116.212363 
L 145.265011 116.593886 
L 145.874958 116.412326 
L 146.484905 115.680286 
L 147.094852 115.508192 
L 148.314747 116.253664 
L 148.924694 116.08115 
L 149.534641 114.844537 
L 150.144588 115.214031 
L 151.97443 113.181268 
L 152.584377 113.552054 
L 153.804271 115.293815 
L 154.414218 115.642653 
L 155.634113 114.336296 
L 156.24406 114.684549 
L 156.854007 114.537275 
L 158.073901 115.217488 
L 159.293796 113.967189 
L 159.903743 113.829238 
L 160.51369 114.165186 
L 161.733584 113.892 
L 162.343531 112.368074 
L 162.953479 112.244339 
L 164.78332 109.170209 
L 165.393267 109.967364 
L 166.003214 109.41526 
L 166.613162 109.31365 
L 167.223109 108.772018 
L 167.833056 109.552659 
L 169.05295 109.352586 
L 169.662897 110.116239 
L 170.272845 110.014099 
L 170.882792 110.765182 
L 171.492739 111.084085 
L 172.102686 110.978189 
L 172.712633 111.71108 
L 173.32258 110.769964 
L 176.372316 112.294653 
L 176.982263 112.992517 
L 177.592211 113.282138 
L 178.202158 112.771589 
L 180.031999 113.625586 
L 180.641946 113.514123 
L 182.471788 114.338881 
L 183.081735 113.461832 
L 183.691682 113.7342 
L 184.301629 113.625586 
L 184.911577 113.894364 
L 185.521524 113.411662 
L 186.131471 113.678805 
L 187.351365 113.467531 
L 187.961312 113.730433 
L 188.57126 113.260433 
L 189.181207 113.885141 
L 189.791154 114.142155 
L 191.011048 113.932538 
L 192.230943 114.436272 
L 193.450837 115.633098 
L 194.060784 115.873389 
L 194.670731 116.459425 
L 195.280678 116.693608 
L 196.500573 116.46909 
L 197.720467 116.928773 
L 198.940361 116.7062 
L 199.550309 117.267262 
L 200.160256 117.155456 
L 200.770203 116.712242 
L 201.38015 116.603916 
L 201.990097 116.826003 
L 202.600044 116.390135 
L 203.209992 116.284658 
L 203.819939 116.505221 
L 204.429886 117.04756 
L 205.039833 116.940592 
L 206.259727 116.090417 
L 206.869675 116.625223 
L 207.479622 116.838673 
L 208.699516 116.631961 
L 209.309463 116.842682 
L 209.91941 117.363095 
L 210.529358 117.569 
L 211.749252 118.590839 
L 212.359199 118.176499 
L 212.969146 118.680707 
L 213.579093 118.573198 
L 214.189041 118.769118 
L 214.798988 119.264777 
L 216.018882 119.6463 
L 216.628829 120.13246 
L 217.238776 119.7252 
L 217.848724 119.911853 
L 218.458671 119.214552 
L 219.068618 119.108744 
L 219.678565 119.295617 
L 220.288512 118.608932 
L 220.898459 118.506736 
L 221.508407 118.693763 
L 222.728301 119.635906 
L 223.338248 119.816439 
L 223.948195 119.71157 
L 224.558142 119.324579 
L 225.16809 119.504229 
L 225.778037 119.401746 
L 226.387984 119.859473 
L 226.997931 120.035091 
L 227.607878 119.654132 
L 228.217825 119.552609 
L 228.827773 120.002981 
L 229.43772 119.351818 
L 230.047667 119.799605 
L 230.657614 119.42651 
L 231.267561 119.599212 
L 231.877508 119.229585 
L 232.487456 119.401746 
L 233.097403 119.035499 
L 233.70735 119.474725 
L 234.317297 119.644146 
L 235.537191 118.920391 
L 236.147139 119.089977 
L 236.757086 119.521228 
L 237.367033 119.16362 
L 237.97698 119.330555 
L 238.586927 119.756416 
L 239.196874 119.401746 
L 239.806822 119.824381 
L 242.856557 120.624883 
L 243.466505 120.528718 
L 244.076452 120.181062 
L 245.296346 120.995382 
L 245.906293 120.899261 
L 246.51624 120.555029 
L 247.126188 120.461018 
L 247.736135 120.614732 
L 248.346082 121.013685 
L 248.956029 120.919099 
L 249.565976 120.091193 
L 250.175923 119.756416 
L 250.785871 119.666878 
L 251.395818 119.335669 
L 252.005765 119.489538 
L 252.615712 119.883089 
L 253.225659 119.794292 
L 254.445554 120.095125 
L 255.665448 119.918458 
L 256.275395 120.067036 
L 256.885342 119.508702 
L 257.495289 119.657644 
L 259.325131 118.704622 
L 262.984814 119.588354 
L 263.594761 119.505101 
L 264.204708 119.875722 
L 264.814655 120.018103 
L 265.424603 120.384912 
L 266.03455 120.075629 
L 267.254444 120.355729 
L 267.864391 119.381499 
L 268.474338 119.522797 
L 269.084286 119.441974 
L 270.30418 120.16161 
L 270.914127 120.079617 
L 271.524074 119.560772 
L 272.134021 119.262999 
L 272.743969 119.184364 
L 273.353916 119.322923 
L 274.57381 119.166668 
L 275.793704 118.583736 
L 277.013599 118.859539 
L 278.233493 118.708598 
L 278.84344 118.422589 
L 279.453387 118.55938 
L 280.063335 118.485406 
L 281.893176 119.515319 
L 283.11307 118.535852 
L 284.332965 119.214552 
L 284.942912 119.140401 
L 285.552859 119.271427 
L 286.772753 119.124043 
L 287.382701 119.254041 
L 287.992648 119.180796 
L 288.602595 119.309933 
L 289.822489 119.967877 
L 290.432436 119.893495 
L 291.042384 120.219126 
L 291.652331 120.144467 
L 294.092119 120.638392 
L 294.702067 120.563612 
L 297.141855 121.046657 
L 297.751802 120.777735 
L 298.36175 121.090851 
L 298.971697 120.823211 
L 299.581644 120.749513 
L 300.191591 120.868222 
L 300.801538 120.794779 
L 301.411485 120.530673 
L 302.021433 120.649029 
L 302.63138 120.576723 
L 303.241327 120.315191 
L 303.851274 120.433194 
L 304.461221 119.984744 
L 305.071168 120.291133 
L 305.681116 119.657644 
L 306.291063 119.776122 
L 307.510957 119.638789 
L 308.120904 119.384857 
L 308.730851 119.502826 
L 309.340799 119.805062 
L 311.17064 120.152354 
L 312.390534 120.015871 
L 313.000482 120.312396 
L 313.610429 120.062407 
L 314.220376 120.176135 
L 315.44027 119.680476 
L 316.660165 119.907567 
L 317.270112 119.841226 
L 317.880059 119.953838 
L 318.490006 119.709526 
L 319.099953 119.644146 
L 320.319848 120.221986 
L 321.539742 120.442174 
L 322.759636 121.01078 
L 323.369583 120.943411 
L 324.589478 120.461603 
L 325.809372 120.330688 
L 326.419319 120.092905 
L 327.029266 120.200999 
L 327.639214 119.964619 
L 328.859108 120.179902 
L 330.079002 120.052389 
L 330.688949 120.329109 
L 331.298897 120.265297 
L 331.908844 120.03255 
L 332.518791 119.463138 
L 333.738685 120.012977 
L 334.348632 119.782893 
L 334.95858 119.888524 
L 335.568527 119.826712 
L 336.178474 120.098339 
L 336.788421 120.202546 
L 337.398368 119.477122 
L 338.618263 120.017086 
L 339.22821 120.120553 
L 339.838157 120.387917 
L 340.448104 120.326093 
L 341.058051 120.42819 
L 341.667998 120.203275 
L 342.277946 120.468109 
L 342.887893 120.40665 
L 343.49784 120.507676 
L 344.717734 121.031391 
L 346.547576 121.327121 
L 347.157523 121.104647 
L 347.76747 121.042879 
L 348.377417 120.66256 
L 349.597312 120.541719 
L 350.817206 120.738014 
L 351.427153 120.362379 
L 352.0371 120.61788 
L 353.256995 120.498762 
L 353.866942 120.595965 
L 354.476889 120.848815 
L 355.086836 120.94488 
L 355.696783 120.574326 
L 356.306731 120.360402 
L 356.916678 120.302124 
L 358.746519 119.667376 
L 359.356466 119.61102 
L 360.576361 119.804686 
L 361.186308 119.595865 
L 362.406202 120.092198 
L 363.016149 119.884073 
L 363.626097 119.82807 
L 365.455938 120.112533 
L 366.065885 119.606358 
L 366.675832 119.701242 
L 367.895727 119.293265 
L 368.505674 119.537057 
L 369.725568 119.428697 
L 369.725568 119.428697 
" style="fill:none;stroke:#d62728;stroke-linecap:square;stroke-width:1.5;"/>
   </g>
   <g id="line2d_18">
    <path clip-path="url(#pb44768ca30)" d="M 65.361932 166.573638 
L 65.971879 129.51 
L 66.581826 141.864544 
L 67.191773 129.51 
L 67.80172 151.748187 
L 68.411668 154.219094 
L 69.021615 166.573638 
L 69.631562 166.573638 
L 70.241509 158.337275 
L 70.851456 166.573638 
L 71.461403 159.834796 
L 72.071351 160.396366 
L 72.681298 143.765243 
L 73.291245 134.804805 
L 73.901192 136.922731 
L 74.511139 134.142961 
L 75.121086 136.050641 
L 75.731034 133.628181 
L 76.340981 127.559285 
L 76.950928 129.51 
L 78.170822 126.140582 
L 79.390717 123.332733 
L 80.000664 125.062366 
L 81.220558 122.646368 
L 81.830505 124.215195 
L 82.440452 123.119726 
L 83.660347 130.705611 
L 84.270294 134.142961 
L 86.100135 136.922731 
L 86.710083 135.687278 
L 87.32003 136.522044 
L 87.929977 135.362155 
L 88.539924 136.162447 
L 89.149871 138.775911 
L 89.759819 135.837943 
L 90.369766 136.56974 
L 90.979713 133.819727 
L 92.199607 138.570006 
L 92.809554 139.178774 
L 93.419502 136.607295 
L 94.029449 135.687278 
L 94.639396 136.317608 
L 95.249343 135.440183 
L 95.85929 133.143689 
L 97.079185 137.202455 
L 98.299079 135.574964 
L 98.909026 137.452213 
L 100.12892 135.900285 
L 100.738868 136.420179 
L 101.348815 138.158184 
L 101.958762 138.624009 
L 102.568709 140.270411 
L 103.178656 139.511298 
L 104.398551 140.343987 
L 105.008498 138.495126 
L 105.618445 135.595078 
L 106.228392 137.140753 
L 106.838339 137.567321 
L 108.058234 134.208209 
L 108.668181 134.65773 
L 109.278128 134.079492 
L 109.888075 131.513447 
L 110.498022 131.980918 
L 111.107969 131.460726 
L 111.717917 131.91673 
L 112.327864 130.46035 
L 112.937811 131.855802 
L 113.547758 130.43659 
L 114.157705 130.882731 
L 114.767652 130.41399 
L 115.987547 127.745065 
L 116.597494 128.201876 
L 117.207441 127.786111 
L 117.817388 128.231943 
L 118.427335 126.982936 
L 119.037283 126.594886 
L 119.64723 127.039093 
L 120.257177 125.029781 
L 120.867124 125.481345 
L 121.477071 125.126133 
L 122.087018 125.567061 
L 122.696966 126.778997 
L 123.306913 127.193525 
L 123.91686 126.835309 
L 125.136754 127.638108 
L 125.746701 127.286188 
L 126.966596 128.056524 
L 128.18649 125.946197 
L 129.406384 128.111378 
L 130.016332 127.085276 
L 131.236226 127.809838 
L 131.846173 128.836116 
L 132.45612 129.176096 
L 133.676015 131.149985 
L 134.285962 130.160246 
L 134.895909 130.476885 
L 136.115803 129.826783 
L 136.72575 130.138198 
L 137.335698 129.198541 
L 137.945645 129.51 
L 138.555592 128.591076 
L 139.775486 129.20867 
L 140.385433 130.1078 
L 140.995381 130.399531 
L 141.605328 131.274935 
L 142.215275 130.969198 
L 142.825222 131.247365 
L 143.435169 130.37195 
L 144.045116 130.650426 
L 144.655064 128.661217 
L 145.265011 127.263721 
L 146.484905 126.744059 
L 147.704799 128.419899 
L 148.314747 128.698397 
L 148.924694 128.435694 
L 149.534641 128.710072 
L 150.144588 126.862603 
L 150.754535 126.618513 
L 151.364482 126.899894 
L 151.97443 127.695701 
L 152.584377 127.450915 
L 153.194324 127.72072 
L 153.804271 127.479115 
L 154.414218 126.232273 
L 155.024165 126.50484 
L 155.634113 126.276269 
L 156.854007 126.810003 
L 158.073901 126.360802 
L 158.683848 126.621926 
L 159.293796 127.35792 
L 159.903743 127.609301 
L 160.51369 128.329632 
L 161.123637 128.571679 
L 161.733584 128.344478 
L 164.173373 131.101692 
L 165.393267 130.633139 
L 166.003214 131.296209 
L 166.613162 131.063573 
L 167.223109 131.716171 
L 167.833056 131.045182 
L 168.443003 131.25418 
L 169.05295 130.593739 
L 169.662897 129.51 
L 170.882792 129.936026 
L 171.492739 130.568963 
L 172.102686 130.773543 
L 172.712633 130.138198 
L 173.32258 130.342899 
L 174.542475 129.09819 
L 175.152422 129.305233 
L 176.982263 128.704273 
L 177.592211 128.908975 
L 178.202158 127.915867 
L 178.812105 128.1226 
L 179.422052 127.144239 
L 180.641946 126.778997 
L 181.251894 127.37545 
L 181.861841 126.807451 
L 182.471788 126.629415 
L 184.301629 127.240801 
L 184.911577 127.064178 
L 185.521524 127.263721 
L 189.181207 126.239685 
L 189.791154 126.798029 
L 190.401101 126.991121 
L 191.011048 126.10803 
L 191.620995 125.946197 
L 192.230943 124.721878 
L 192.84089 124.921178 
L 193.450837 124.415953 
L 194.060784 124.614811 
L 194.670731 125.159812 
L 195.280678 125.353335 
L 195.890626 125.200284 
L 197.720467 125.769641 
L 198.330414 125.617474 
L 198.940361 125.80364 
L 199.550309 125.317281 
L 200.160256 125.169223 
L 200.770203 125.354892 
L 201.38015 124.87705 
L 201.990097 124.732913 
L 204.429886 125.46376 
L 205.039833 124.675618 
L 205.64978 125.177894 
L 206.259727 125.036806 
L 206.869675 125.533216 
L 208.089569 125.882496 
L 208.699516 126.369021 
L 209.309463 126.538662 
L 209.91941 126.395409 
L 211.139305 126.73023 
L 211.749252 126.280389 
L 212.359199 126.140582 
L 212.969146 126.612029 
L 213.579093 126.472001 
L 214.189041 126.030565 
L 214.798988 126.195369 
L 215.408935 126.058732 
L 216.018882 126.2221 
L 216.628829 126.086457 
L 217.238776 126.2484 
L 217.848724 125.523076 
L 218.458671 125.391819 
L 219.678565 125.716091 
L 220.288512 125.294925 
L 220.898459 125.166605 
L 222.118354 124.338334 
L 224.558142 124.983145 
L 225.16809 124.577587 
L 227.607878 124.09621 
L 228.217825 124.254717 
L 228.827773 123.585329 
L 230.047667 123.355521 
L 230.657614 123.514415 
L 231.877508 123.287644 
L 233.70735 122.150797 
L 234.317297 122.310597 
L 234.927244 122.734933 
L 236.757086 123.201299 
L 237.367033 123.09263 
L 237.97698 122.7237 
L 238.586927 122.617472 
L 240.416769 123.075344 
L 241.026716 122.712864 
L 241.636663 122.864114 
L 242.24661 122.759588 
L 242.856557 122.401913 
L 243.466505 121.793686 
L 244.076452 121.945996 
L 245.906293 121.648024 
L 248.956029 122.391828 
L 249.565976 122.048347 
L 250.175923 122.194815 
L 250.785871 122.583363 
L 251.395818 122.727113 
L 252.005765 122.628485 
L 252.615712 122.771164 
L 253.225659 123.152808 
L 255.665448 123.707706 
L 256.885342 123.509224 
L 257.495289 122.941766 
L 258.105237 122.845568 
L 259.325131 123.119726 
L 259.935078 122.792217 
L 260.545025 122.697687 
L 261.154972 122.373525 
L 261.76492 122.510372 
L 262.984814 121.869195 
L 263.594761 122.006329 
L 264.814655 121.826083 
L 265.424603 121.511465 
L 266.03455 121.648024 
L 266.644497 122.007698 
L 267.254444 121.918658 
L 267.864391 122.275361 
L 268.474338 122.407988 
L 269.084286 122.31855 
L 272.134021 122.969359 
L 274.57381 122.614446 
L 275.793704 122.868544 
L 278.233493 122.520865 
L 279.453387 123.192341 
L 280.673282 123.437437 
L 281.283229 122.93251 
L 283.11307 122.677042 
L 284.942912 123.041831 
L 285.552859 123.366865 
L 286.162806 123.485884 
L 287.382701 123.315811 
L 287.992648 123.434002 
L 289.212542 122.862723 
L 289.822489 122.378518 
L 290.432436 122.297618 
L 291.042384 122.017353 
L 292.262278 122.256263 
L 293.482172 122.887973 
L 294.092119 122.609862 
L 294.702067 122.923099 
L 295.312014 122.45026 
L 295.921961 122.566683 
L 296.531908 122.487419 
L 297.141855 122.797696 
L 297.751802 122.718243 
L 298.36175 121.86502 
L 298.971697 122.17449 
L 299.581644 122.28982 
L 300.191591 121.828425 
L 300.801538 122.135587 
L 302.021433 122.364059 
L 302.63138 122.287346 
L 305.681116 122.847932 
L 306.291063 122.58397 
L 307.510957 122.80503 
L 308.120904 122.728936 
L 308.730851 122.838554 
L 309.340799 122.577906 
L 309.950746 122.687348 
L 310.560693 122.612303 
L 311.780587 122.829397 
L 312.390534 122.754562 
L 313.000482 122.497967 
L 313.610429 122.605996 
L 314.220376 122.532254 
L 315.44027 121.664416 
L 316.660165 121.52293 
L 317.270112 121.810796 
L 317.880059 121.918658 
L 318.490006 121.669619 
L 319.7099 121.529801 
L 320.319848 121.814209 
L 320.929795 121.567799 
L 322.149689 121.429781 
L 322.759636 121.01078 
L 323.369583 120.768578 
L 325.199425 121.090398 
L 325.809372 121.369857 
L 327.639214 121.684509 
L 328.249161 121.61682 
L 328.859108 121.891839 
L 329.469055 121.994797 
L 330.079002 121.926865 
L 330.688949 121.689236 
L 331.908844 121.894192 
L 332.518791 121.82711 
L 333.738685 122.030044 
L 334.348632 121.963106 
L 335.568527 122.164063 
L 336.178474 121.930698 
L 337.398368 122.13044 
L 338.008315 122.064187 
L 338.618263 122.328414 
L 339.22821 121.767827 
L 339.838157 122.031535 
L 340.448104 121.80208 
L 341.058051 121.900918 
L 341.667998 121.672756 
L 342.277946 121.771439 
L 342.887893 121.707131 
L 344.107787 121.903061 
L 345.327681 121.774985 
L 345.937629 121.872166 
L 346.547576 121.808465 
L 347.76747 122.001424 
L 348.377417 121.778453 
L 352.0371 122.349092 
L 352.647048 122.128683 
L 353.256995 121.752496 
L 354.476889 121.941225 
L 355.696783 122.439159 
L 356.306731 122.376419 
L 356.916678 122.623437 
L 357.526625 122.560575 
L 358.136572 122.652079 
L 359.356466 123.14089 
L 360.576361 123.319998 
L 361.186308 123.561515 
L 362.406202 123.434002 
L 363.016149 123.673806 
L 364.845991 123.031403 
L 365.455938 122.969359 
L 366.065885 123.057626 
L 366.675832 123.295299 
L 367.895727 123.469448 
L 369.725568 122.838554 
L 369.725568 122.838554 
" style="fill:none;stroke:#9467bd;stroke-linecap:square;stroke-width:1.5;"/>
   </g>
   <g id="line2d_19">
    <path clip-path="url(#pb44768ca30)" d="M 65.361932 92.446367 
L 65.971879 18.319091 
L 66.581826 18.319091 
L 67.191773 55.382735 
L 67.80172 77.620916 
L 68.411668 67.737279 
L 69.021615 81.856758 
L 69.631562 64.648646 
L 70.241509 84.210005 
L 70.851456 85.033647 
L 71.461403 92.446367 
L 72.071351 104.800912 
L 73.291245 113.625586 
L 74.511139 110.978189 
L 75.731034 125.391819 
L 76.340981 131.460726 
L 77.560875 127.745065 
L 78.170822 132.879429 
L 79.390717 135.687278 
L 80.610611 132.361049 
L 81.220558 133.628181 
L 81.830505 126.862603 
L 83.0504 129.51 
L 83.660347 133.096811 
L 84.270294 134.142961 
L 85.490188 131.690214 
L 86.100135 132.686889 
L 87.32003 126.50484 
L 87.929977 129.51 
L 88.539924 128.55965 
L 89.149871 123.95046 
L 89.759819 124.990049 
L 90.369766 124.215195 
L 90.979713 126.924173 
L 91.58966 122.771164 
L 92.199607 125.391819 
L 92.809554 123.064154 
L 94.029449 127.965683 
L 94.639396 125.727998 
L 95.249343 122.09728 
L 95.85929 124.422835 
L 96.469237 123.807903 
L 97.079185 124.614811 
L 97.689132 124.019099 
L 98.299079 124.792815 
L 99.518973 128.859765 
L 100.738868 130.138198 
L 101.348815 129.51 
L 101.958762 130.117609 
L 103.178656 128.921688 
L 103.788603 130.668243 
L 104.398551 128.939792 
L 105.618445 127.850442 
L 106.228392 126.239685 
L 106.838339 125.749924 
L 108.058234 128.987985 
L 108.668181 128.480463 
L 109.278128 126.971405 
L 109.888075 126.50484 
L 111.107969 127.559285 
L 111.717917 125.177894 
L 112.327864 124.758252 
L 112.937811 125.287568 
L 113.547758 123.95046 
L 114.157705 123.561515 
L 114.767652 120.470098 
L 115.3776 119.239361 
L 115.987547 120.685326 
L 117.207441 121.752496 
L 117.817388 121.415642 
L 118.427335 120.2441 
L 119.037283 119.931757 
L 119.64723 120.450005 
L 120.867124 119.841226 
L 121.477071 120.343733 
L 122.087018 118.469776 
L 123.306913 121.016258 
L 123.91686 119.957516 
L 124.526807 119.676798 
L 125.136754 120.150498 
L 125.746701 118.390909 
L 126.356649 118.134038 
L 126.966596 118.608932 
L 127.576543 119.794292 
L 128.796437 119.273382 
L 130.016332 121.543056 
L 130.626279 121.960003 
L 131.846173 120.075629 
L 132.45612 119.826712 
L 133.066067 120.2441 
L 133.676015 121.310088 
L 134.285962 121.707131 
L 134.895909 120.163521 
L 135.505856 120.563612 
L 136.115803 121.59042 
L 136.72575 120.715249 
L 137.335698 121.723523 
L 137.945645 122.09728 
L 139.165539 121.611198 
L 139.775486 121.976748 
L 140.385433 120.543 
L 140.995381 119.7252 
L 141.605328 118.332079 
L 144.045116 117.535598 
L 145.265011 119.401746 
L 145.874958 119.199066 
L 146.484905 120.105795 
L 147.704799 118.608932 
L 148.314747 119.50012 
L 150.144588 120.508835 
L 150.754535 121.361264 
L 151.97443 121.993604 
L 152.584377 121.788417 
L 153.194324 122.09728 
L 154.414218 121.693865 
L 155.024165 121.997106 
L 155.634113 122.793775 
L 156.24406 121.108911 
L 156.854007 121.410009 
L 157.463954 122.194815 
L 158.073901 122.484867 
L 159.903743 120.481685 
L 161.123637 121.065125 
L 161.733584 120.885133 
L 162.953479 119.61102 
L 163.563426 119.900917 
L 164.173373 119.73248 
L 164.78332 120.018103 
L 165.393267 119.851001 
L 166.003214 119.239361 
L 166.613162 119.966673 
L 167.223109 119.802864 
L 167.833056 120.079617 
L 168.443003 119.481021 
L 169.662897 120.028607 
L 170.272845 119.869172 
L 170.882792 120.563612 
L 171.492739 119.555769 
L 172.102686 119.822923 
L 172.712633 120.505842 
L 173.932528 121.020566 
L 174.542475 120.861827 
L 175.152422 120.295286 
L 175.762369 120.142269 
L 176.372316 120.801064 
L 176.982263 119.841226 
L 177.592211 119.292458 
L 178.202158 119.9452 
L 178.812105 119.798147 
L 179.422052 120.441246 
L 180.641946 120.146554 
L 181.861841 119.085857 
L 182.471788 119.331903 
L 183.081735 119.957516 
L 183.691682 120.196581 
L 184.301629 120.811392 
L 184.911577 121.043696 
L 185.521524 120.524885 
L 187.961312 121.43674 
L 188.57126 122.024245 
L 189.181207 121.515883 
L 189.791154 120.650896 
L 190.401101 120.513972 
L 191.011048 121.094584 
L 191.620995 121.313236 
L 192.230943 121.175119 
L 192.84089 120.685326 
L 193.450837 120.902807 
L 195.280678 119.464718 
L 195.890626 120.028607 
L 196.500573 119.557735 
L 198.940361 120.412571 
L 199.550309 119.950602 
L 200.160256 119.826712 
L 200.770203 119.371524 
L 201.38015 119.582245 
L 201.990097 119.461636 
L 202.600044 119.998099 
L 203.209992 119.550168 
L 203.819939 119.431293 
L 204.429886 118.666061 
L 205.039833 118.552057 
L 205.64978 118.75995 
L 206.259727 119.285555 
L 206.869675 118.852216 
L 207.479622 119.056155 
L 208.089569 118.312053 
L 210.529358 117.879156 
L 211.139305 118.082046 
L 211.749252 117.668092 
L 213.579093 118.269394 
L 214.189041 118.769118 
L 214.798988 118.059446 
L 216.018882 118.450689 
L 216.628829 118.346262 
L 217.238776 117.946149 
L 217.848724 118.435214 
L 218.458671 117.743767 
L 219.678565 118.128261 
L 220.288512 118.027546 
L 220.898459 118.506736 
L 223.948195 119.42756 
L 224.558142 119.324579 
L 225.778037 119.68253 
L 226.387984 119.0203 
L 228.827773 119.72741 
L 229.43772 119.351818 
L 230.047667 119.252539 
L 230.657614 119.42651 
L 231.267561 118.784626 
L 231.877508 119.229585 
L 232.487456 119.401746 
L 233.097403 119.841226 
L 233.70735 119.742333 
L 234.317297 119.110854 
L 235.537191 119.449872 
L 236.147139 119.089977 
L 237.367033 119.425549 
L 238.586927 119.236224 
L 239.196874 119.401746 
L 239.806822 119.824381 
L 240.416769 119.471942 
L 241.636663 119.285555 
L 243.466505 119.769737 
L 244.686399 120.589602 
L 245.296346 119.993669 
L 245.906293 120.150498 
L 247.126188 119.469357 
L 247.736135 119.626373 
L 248.346082 119.04353 
L 248.956029 119.20091 
L 249.565976 119.601907 
L 250.175923 119.268732 
L 251.395818 119.093423 
L 252.615712 118.439047 
L 253.225659 118.594826 
L 253.835606 118.271349 
L 254.445554 118.665022 
L 255.055501 118.580986 
L 255.665448 118.260657 
L 256.275395 118.178443 
L 257.495289 118.484743 
L 259.935078 118.159267 
L 261.154972 118.459979 
L 261.76492 118.149944 
L 262.374867 118.299394 
L 262.984814 118.676024 
L 263.594761 118.140787 
L 264.204708 117.835525 
L 264.814655 117.984113 
L 266.03455 117.829339 
L 266.644497 117.976602 
L 267.254444 117.676432 
L 269.084286 117.45049 
L 272.743969 118.314825 
L 273.353916 118.239195 
L 274.57381 118.951175 
L 275.183757 118.659488 
L 275.793704 118.79797 
L 276.403652 118.72203 
L 277.013599 118.433513 
L 277.623546 118.571453 
L 278.233493 118.920391 
L 279.453387 118.348791 
L 280.673282 118.202456 
L 281.283229 118.338707 
L 281.893176 118.057756 
L 283.11307 118.328798 
L 283.723018 117.843732 
L 284.332965 117.567277 
L 285.552859 117.428486 
L 286.162806 117.768079 
L 286.772753 117.494872 
L 287.382701 117.832421 
L 287.992648 117.560528 
L 288.602595 117.694072 
L 289.212542 117.424035 
L 289.822489 117.557237 
L 290.432436 117.489371 
L 291.042384 117.821475 
L 292.262278 118.082874 
L 292.872225 117.617933 
L 293.482172 117.353132 
L 294.092119 117.484036 
L 294.702067 117.417628 
L 295.312014 117.547671 
L 295.921961 117.872606 
L 297.751802 117.672931 
L 298.36175 117.800609 
L 299.581644 116.89874 
L 300.801538 116.389284 
L 301.411485 116.518631 
L 302.021433 116.456741 
L 303.241327 116.713093 
L 303.851274 116.651192 
L 304.461221 116.778219 
L 305.071168 116.716462 
L 305.681116 116.842682 
L 306.90101 116.719786 
L 307.510957 116.472548 
L 308.120904 116.783896 
L 309.340799 116.662514 
L 309.950746 116.417871 
L 310.560693 116.542335 
L 311.17064 116.115723 
L 311.780587 116.423339 
L 312.390534 116.1817 
L 313.610429 116.065354 
L 315.44027 116.9751 
L 316.660165 117.215291 
L 317.880059 117.095919 
L 318.490006 117.21486 
L 319.099953 117.510988 
L 319.7099 117.45102 
L 320.319848 116.860599 
L 320.929795 116.978966 
L 322.149689 117.565322 
L 322.759636 117.155456 
L 323.369583 116.922356 
L 323.979531 116.864763 
L 324.589478 117.155456 
L 325.199425 117.097598 
L 325.809372 117.213192 
L 326.419319 117.155456 
L 327.639214 116.696822 
L 328.249161 116.812273 
L 328.859108 116.584806 
L 329.469055 116.870794 
L 330.079002 116.644233 
L 330.688949 116.928773 
L 331.298897 116.872749 
L 332.518791 117.436881 
L 333.128738 117.211613 
L 333.738685 117.155456 
L 334.348632 117.43497 
L 335.568527 117.322413 
L 336.178474 116.766775 
L 336.788421 116.712242 
L 337.398368 116.823794 
L 338.008315 117.100304 
L 338.618263 117.045395 
L 339.22821 117.320182 
L 339.838157 117.100668 
L 340.448104 117.374119 
L 341.058051 117.482732 
L 342.277946 117.372683 
L 342.887893 117.480579 
L 344.107787 116.723862 
L 344.717734 116.832465 
L 345.327681 116.779456 
L 345.937629 116.887462 
L 346.547576 116.51366 
L 348.377417 116.358389 
L 348.987365 116.466152 
L 350.817206 116.312505 
L 351.427153 116.577163 
L 352.0371 116.525932 
L 352.647048 116.631961 
L 353.256995 116.894266 
L 353.866942 116.999069 
L 355.086836 116.895912 
L 355.696783 116.689256 
L 356.306731 116.793606 
L 356.916678 116.588032 
L 357.526625 116.537729 
L 358.136572 116.641759 
L 358.746519 116.437764 
L 359.356466 116.388091 
L 359.966414 116.49179 
L 361.186308 116.087777 
L 361.796255 116.191454 
L 363.016149 115.791153 
L 363.626097 116.046068 
L 364.236044 115.998008 
L 364.845991 116.100801 
L 365.455938 115.902462 
L 366.065885 116.155091 
L 366.675832 116.107196 
L 367.28578 115.760589 
L 367.895727 116.011981 
L 369.115621 115.917528 
L 369.725568 116.01884 
L 369.725568 116.01884 
" style="fill:none;stroke:#8c564b;stroke-linecap:square;stroke-width:1.5;"/>
   </g>
   <g id="line2d_20">
    <path clip-path="url(#pb44768ca30)" d="M 50.14375 116.908369 
L 384.94375 116.908369 
" style="fill:none;stroke:#000000;stroke-dasharray:5.55,2.4;stroke-dashoffset:0;stroke-width:1.5;"/>
   </g>
   <g id="patch_3">
    <path d="M 50.14375 251.82 
L 50.14375 7.2 
" style="fill:none;stroke:#000000;stroke-linecap:square;stroke-linejoin:miter;stroke-width:0.8;"/>
   </g>
   <g id="patch_4">
    <path d="M 384.94375 251.82 
L 384.94375 7.2 
" style="fill:none;stroke:#000000;stroke-linecap:square;stroke-linejoin:miter;stroke-width:0.8;"/>
   </g>
   <g id="patch_5">
    <path d="M 50.14375 251.82 
L 384.94375 251.82 
" style="fill:none;stroke:#000000;stroke-linecap:square;stroke-linejoin:miter;stroke-width:0.8;"/>
   </g>
   <g id="patch_6">
    <path d="M 50.14375 7.2 
L 384.94375 7.2 
" style="fill:none;stroke:#000000;stroke-linecap:square;stroke-linejoin:miter;stroke-width:0.8;"/>
   </g>
   <g id="legend_1">
    <g id="patch_7">
     <path d="M 302.089063 103.26875 
L 377.94375 103.26875 
Q 379.94375 103.26875 379.94375 101.26875 
L 379.94375 14.2 
Q 379.94375 12.2 377.94375 12.2 
L 302.089063 12.2 
Q 300.089063 12.2 300.089063 14.2 
L 300.089063 101.26875 
Q 300.089063 103.26875 302.089063 103.26875 
z
" style="fill:#ffffff;opacity:0.8;stroke:#cccccc;stroke-linejoin:miter;"/>
    </g>
    <g id="line2d_21">
     <path d="M 304.089063 20.298437 
L 324.089063 20.298437 
" style="fill:none;stroke:#1f77b4;stroke-linecap:square;stroke-width:1.5;"/>
    </g>
    <g id="line2d_22"/>
    <g id="text_16">
     <!-- P(die=1) -->
     <g transform="translate(332.089063 23.798437)scale(0.1 -0.1)">
      <defs>
       <path d="M 1259 4147 
L 1259 2394 
L 2053 2394 
Q 2494 2394 2734 2622 
Q 2975 2850 2975 3272 
Q 2975 3691 2734 3919 
Q 2494 4147 2053 4147 
L 1259 4147 
z
M 628 4666 
L 2053 4666 
Q 2838 4666 3239 4311 
Q 3641 3956 3641 3272 
Q 3641 2581 3239 2228 
Q 2838 1875 2053 1875 
L 1259 1875 
L 1259 0 
L 628 0 
L 628 4666 
z
" id="DejaVuSans-50" transform="scale(0.015625)"/>
       <path d="M 1984 4856 
Q 1566 4138 1362 3434 
Q 1159 2731 1159 2009 
Q 1159 1288 1364 580 
Q 1569 -128 1984 -844 
L 1484 -844 
Q 1016 -109 783 600 
Q 550 1309 550 2009 
Q 550 2706 781 3412 
Q 1013 4119 1484 4856 
L 1984 4856 
z
" id="DejaVuSans-28" transform="scale(0.015625)"/>
       <path d="M 678 2906 
L 4684 2906 
L 4684 2381 
L 678 2381 
L 678 2906 
z
M 678 1631 
L 4684 1631 
L 4684 1100 
L 678 1100 
L 678 1631 
z
" id="DejaVuSans-3d" transform="scale(0.015625)"/>
       <path d="M 513 4856 
L 1013 4856 
Q 1481 4119 1714 3412 
Q 1947 2706 1947 2009 
Q 1947 1309 1714 600 
Q 1481 -109 1013 -844 
L 513 -844 
Q 928 -128 1133 580 
Q 1338 1288 1338 2009 
Q 1338 2731 1133 3434 
Q 928 4138 513 4856 
z
" id="DejaVuSans-29" transform="scale(0.015625)"/>
      </defs>
      <use xlink:href="#DejaVuSans-50"/>
      <use x="60.302734" xlink:href="#DejaVuSans-28"/>
      <use x="99.316406" xlink:href="#DejaVuSans-64"/>
      <use x="162.792969" xlink:href="#DejaVuSans-69"/>
      <use x="190.576172" xlink:href="#DejaVuSans-65"/>
      <use x="252.099609" xlink:href="#DejaVuSans-3d"/>
      <use x="335.888672" xlink:href="#DejaVuSans-31"/>
      <use x="399.511719" xlink:href="#DejaVuSans-29"/>
     </g>
    </g>
    <g id="line2d_23">
     <path d="M 304.089063 34.976562 
L 324.089063 34.976562 
" style="fill:none;stroke:#ff7f0e;stroke-linecap:square;stroke-width:1.5;"/>
    </g>
    <g id="line2d_24"/>
    <g id="text_17">
     <!-- P(die=2) -->
     <g transform="translate(332.089063 38.476562)scale(0.1 -0.1)">
      <use xlink:href="#DejaVuSans-50"/>
      <use x="60.302734" xlink:href="#DejaVuSans-28"/>
      <use x="99.316406" xlink:href="#DejaVuSans-64"/>
      <use x="162.792969" xlink:href="#DejaVuSans-69"/>
      <use x="190.576172" xlink:href="#DejaVuSans-65"/>
      <use x="252.099609" xlink:href="#DejaVuSans-3d"/>
      <use x="335.888672" xlink:href="#DejaVuSans-32"/>
      <use x="399.511719" xlink:href="#DejaVuSans-29"/>
     </g>
    </g>
    <g id="line2d_25">
     <path d="M 304.089063 49.654687 
L 324.089063 49.654687 
" style="fill:none;stroke:#2ca02c;stroke-linecap:square;stroke-width:1.5;"/>
    </g>
    <g id="line2d_26"/>
    <g id="text_18">
     <!-- P(die=3) -->
     <g transform="translate(332.089063 53.154687)scale(0.1 -0.1)">
      <use xlink:href="#DejaVuSans-50"/>
      <use x="60.302734" xlink:href="#DejaVuSans-28"/>
      <use x="99.316406" xlink:href="#DejaVuSans-64"/>
      <use x="162.792969" xlink:href="#DejaVuSans-69"/>
      <use x="190.576172" xlink:href="#DejaVuSans-65"/>
      <use x="252.099609" xlink:href="#DejaVuSans-3d"/>
      <use x="335.888672" xlink:href="#DejaVuSans-33"/>
      <use x="399.511719" xlink:href="#DejaVuSans-29"/>
     </g>
    </g>
    <g id="line2d_27">
     <path d="M 304.089063 64.332812 
L 324.089063 64.332812 
" style="fill:none;stroke:#d62728;stroke-linecap:square;stroke-width:1.5;"/>
    </g>
    <g id="line2d_28"/>
    <g id="text_19">
     <!-- P(die=4) -->
     <g transform="translate(332.089063 67.832812)scale(0.1 -0.1)">
      <use xlink:href="#DejaVuSans-50"/>
      <use x="60.302734" xlink:href="#DejaVuSans-28"/>
      <use x="99.316406" xlink:href="#DejaVuSans-64"/>
      <use x="162.792969" xlink:href="#DejaVuSans-69"/>
      <use x="190.576172" xlink:href="#DejaVuSans-65"/>
      <use x="252.099609" xlink:href="#DejaVuSans-3d"/>
      <use x="335.888672" xlink:href="#DejaVuSans-34"/>
      <use x="399.511719" xlink:href="#DejaVuSans-29"/>
     </g>
    </g>
    <g id="line2d_29">
     <path d="M 304.089063 79.010937 
L 324.089063 79.010937 
" style="fill:none;stroke:#9467bd;stroke-linecap:square;stroke-width:1.5;"/>
    </g>
    <g id="line2d_30"/>
    <g id="text_20">
     <!-- P(die=5) -->
     <g transform="translate(332.089063 82.510937)scale(0.1 -0.1)">
      <use xlink:href="#DejaVuSans-50"/>
      <use x="60.302734" xlink:href="#DejaVuSans-28"/>
      <use x="99.316406" xlink:href="#DejaVuSans-64"/>
      <use x="162.792969" xlink:href="#DejaVuSans-69"/>
      <use x="190.576172" xlink:href="#DejaVuSans-65"/>
      <use x="252.099609" xlink:href="#DejaVuSans-3d"/>
      <use x="335.888672" xlink:href="#DejaVuSans-35"/>
      <use x="399.511719" xlink:href="#DejaVuSans-29"/>
     </g>
    </g>
    <g id="line2d_31">
     <path d="M 304.089063 93.689062 
L 324.089063 93.689062 
" style="fill:none;stroke:#8c564b;stroke-linecap:square;stroke-width:1.5;"/>
    </g>
    <g id="line2d_32"/>
    <g id="text_21">
     <!-- P(die=6) -->
     <g transform="translate(332.089063 97.189062)scale(0.1 -0.1)">
      <defs>
       <path d="M 2113 2584 
Q 1688 2584 1439 2293 
Q 1191 2003 1191 1497 
Q 1191 994 1439 701 
Q 1688 409 2113 409 
Q 2538 409 2786 701 
Q 3034 994 3034 1497 
Q 3034 2003 2786 2293 
Q 2538 2584 2113 2584 
z
M 3366 4563 
L 3366 3988 
Q 3128 4100 2886 4159 
Q 2644 4219 2406 4219 
Q 1781 4219 1451 3797 
Q 1122 3375 1075 2522 
Q 1259 2794 1537 2939 
Q 1816 3084 2150 3084 
Q 2853 3084 3261 2657 
Q 3669 2231 3669 1497 
Q 3669 778 3244 343 
Q 2819 -91 2113 -91 
Q 1303 -91 875 529 
Q 447 1150 447 2328 
Q 447 3434 972 4092 
Q 1497 4750 2381 4750 
Q 2619 4750 2861 4703 
Q 3103 4656 3366 4563 
z
" id="DejaVuSans-36" transform="scale(0.015625)"/>
      </defs>
      <use xlink:href="#DejaVuSans-50"/>
      <use x="60.302734" xlink:href="#DejaVuSans-28"/>
      <use x="99.316406" xlink:href="#DejaVuSans-64"/>
      <use x="162.792969" xlink:href="#DejaVuSans-69"/>
      <use x="190.576172" xlink:href="#DejaVuSans-65"/>
      <use x="252.099609" xlink:href="#DejaVuSans-3d"/>
      <use x="335.888672" xlink:href="#DejaVuSans-36"/>
      <use x="399.511719" xlink:href="#DejaVuSans-29"/>
     </g>
    </g>
   </g>
  </g>
 </g>
 <defs>
  <clipPath id="pb44768ca30">
   <rect height="244.62" width="334.8" x="50.14375" y="7.2"/>
  </clipPath>
 </defs>
</svg>
