<?xml version="1.0" encoding="utf-8" standalone="no"?>
<!DOCTYPE svg PUBLIC "-//W3C//DTD SVG 1.1//EN"
  "http://www.w3.org/Graphics/SVG/1.1/DTD/svg11.dtd">
<svg height="180.65625pt" version="1.1" viewBox="0 0 245.120313 180.65625" width="245.120313pt" xmlns="http://www.w3.org/2000/svg" xmlns:xlink="http://www.w3.org/1999/xlink">
 <metadata>
  <rdf:RDF xmlns:cc="http://creativecommons.org/ns#" xmlns:dc="http://purl.org/dc/elements/1.1/" xmlns:rdf="http://www.w3.org/1999/02/22-rdf-syntax-ns#">
   <cc:Work>
    <dc:type rdf:resource="http://purl.org/dc/dcmitype/StillImage"/>
    <dc:date>2022-03-15T01:11:55.882895</dc:date>
    <dc:format>image/svg+xml</dc:format>
    <dc:creator>
     <cc:Agent>
      <dc:title>Matplotlib v3.4.0, https://matplotlib.org/</dc:title>
     </cc:Agent>
    </dc:creator>
   </cc:Work>
  </rdf:RDF>
 </metadata>
 <defs>
  <style type="text/css">*{stroke-linecap:butt;stroke-linejoin:round;}</style>
 </defs>
 <g id="figure_1">
  <g id="patch_1">
   <path d="M 0 180.65625 
L 245.120313 180.65625 
L 245.120313 0 
L 0 0 
z
" style="fill:none;"/>
  </g>
  <g id="axes_1">
   <g id="patch_2">
    <path d="M 42.620312 143.1 
L 237.920313 143.1 
L 237.920313 7.2 
L 42.620312 7.2 
z
" style="fill:#ffffff;"/>
   </g>
   <g id="matplotlib.axis_1">
    <g id="xtick_1">
     <g id="line2d_1">
      <defs>
       <path d="M 0 0 
L 0 3.5 
" id="mc4d7a804bb" style="stroke:#000000;stroke-width:0.8;"/>
      </defs>
      <g>
       <use style="stroke:#000000;stroke-width:0.8;" x="88.39375" xlink:href="#mc4d7a804bb" y="143.1"/>
      </g>
     </g>
     <g id="text_1">
      <!-- −4 -->
      <g transform="translate(81.022656 157.698438)scale(0.1 -0.1)">
       <defs>
        <path d="M 678 2272 
L 4684 2272 
L 4684 1741 
L 678 1741 
L 678 2272 
z
" id="DejaVuSans-2212" transform="scale(0.015625)"/>
        <path d="M 2419 4116 
L 825 1625 
L 2419 1625 
L 2419 4116 
z
M 2253 4666 
L 3047 4666 
L 3047 1625 
L 3713 1625 
L 3713 1100 
L 3047 1100 
L 3047 0 
L 2419 0 
L 2419 1100 
L 313 1100 
L 313 1709 
L 2253 4666 
z
" id="DejaVuSans-34" transform="scale(0.015625)"/>
       </defs>
       <use xlink:href="#DejaVuSans-2212"/>
       <use x="83.789062" xlink:href="#DejaVuSans-34"/>
      </g>
     </g>
    </g>
    <g id="xtick_2">
     <g id="line2d_2">
      <g>
       <use style="stroke:#000000;stroke-width:0.8;" x="149.425" xlink:href="#mc4d7a804bb" y="143.1"/>
      </g>
     </g>
     <g id="text_2">
      <!-- −2 -->
      <g transform="translate(142.053907 157.698438)scale(0.1 -0.1)">
       <defs>
        <path d="M 1228 531 
L 3431 531 
L 3431 0 
L 469 0 
L 469 531 
Q 828 903 1448 1529 
Q 2069 2156 2228 2338 
Q 2531 2678 2651 2914 
Q 2772 3150 2772 3378 
Q 2772 3750 2511 3984 
Q 2250 4219 1831 4219 
Q 1534 4219 1204 4116 
Q 875 4013 500 3803 
L 500 4441 
Q 881 4594 1212 4672 
Q 1544 4750 1819 4750 
Q 2544 4750 2975 4387 
Q 3406 4025 3406 3419 
Q 3406 3131 3298 2873 
Q 3191 2616 2906 2266 
Q 2828 2175 2409 1742 
Q 1991 1309 1228 531 
z
" id="DejaVuSans-32" transform="scale(0.015625)"/>
       </defs>
       <use xlink:href="#DejaVuSans-2212"/>
       <use x="83.789062" xlink:href="#DejaVuSans-32"/>
      </g>
     </g>
    </g>
    <g id="xtick_3">
     <g id="line2d_3">
      <g>
       <use style="stroke:#000000;stroke-width:0.8;" x="210.456251" xlink:href="#mc4d7a804bb" y="143.1"/>
      </g>
     </g>
     <g id="text_3">
      <!-- 0 -->
      <g transform="translate(207.275001 157.698438)scale(0.1 -0.1)">
       <defs>
        <path d="M 2034 4250 
Q 1547 4250 1301 3770 
Q 1056 3291 1056 2328 
Q 1056 1369 1301 889 
Q 1547 409 2034 409 
Q 2525 409 2770 889 
Q 3016 1369 3016 2328 
Q 3016 3291 2770 3770 
Q 2525 4250 2034 4250 
z
M 2034 4750 
Q 2819 4750 3233 4129 
Q 3647 3509 3647 2328 
Q 3647 1150 3233 529 
Q 2819 -91 2034 -91 
Q 1250 -91 836 529 
Q 422 1150 422 2328 
Q 422 3509 836 4129 
Q 1250 4750 2034 4750 
z
" id="DejaVuSans-30" transform="scale(0.015625)"/>
       </defs>
       <use xlink:href="#DejaVuSans-30"/>
      </g>
     </g>
    </g>
    <g id="text_4">
     <!-- x1 -->
     <g transform="translate(134.129687 171.376563)scale(0.1 -0.1)">
      <defs>
       <path d="M 3513 3500 
L 2247 1797 
L 3578 0 
L 2900 0 
L 1881 1375 
L 863 0 
L 184 0 
L 1544 1831 
L 300 3500 
L 978 3500 
L 1906 2253 
L 2834 3500 
L 3513 3500 
z
" id="DejaVuSans-78" transform="scale(0.015625)"/>
       <path d="M 794 531 
L 1825 531 
L 1825 4091 
L 703 3866 
L 703 4441 
L 1819 4666 
L 2450 4666 
L 2450 531 
L 3481 531 
L 3481 0 
L 794 0 
L 794 531 
z
" id="DejaVuSans-31" transform="scale(0.015625)"/>
      </defs>
      <use xlink:href="#DejaVuSans-78"/>
      <use x="59.179688" xlink:href="#DejaVuSans-31"/>
     </g>
    </g>
   </g>
   <g id="matplotlib.axis_2">
    <g id="ytick_1">
     <g id="line2d_4">
      <defs>
       <path d="M 0 0 
L -3.5 0 
" id="mf6246e1d7f" style="stroke:#000000;stroke-width:0.8;"/>
      </defs>
      <g>
       <use style="stroke:#000000;stroke-width:0.8;" x="42.620312" xlink:href="#mf6246e1d7f" y="143.1"/>
      </g>
     </g>
     <g id="text_5">
      <!-- −3 -->
      <g transform="translate(20.878125 146.899219)scale(0.1 -0.1)">
       <defs>
        <path d="M 2597 2516 
Q 3050 2419 3304 2112 
Q 3559 1806 3559 1356 
Q 3559 666 3084 287 
Q 2609 -91 1734 -91 
Q 1441 -91 1130 -33 
Q 819 25 488 141 
L 488 750 
Q 750 597 1062 519 
Q 1375 441 1716 441 
Q 2309 441 2620 675 
Q 2931 909 2931 1356 
Q 2931 1769 2642 2001 
Q 2353 2234 1838 2234 
L 1294 2234 
L 1294 2753 
L 1863 2753 
Q 2328 2753 2575 2939 
Q 2822 3125 2822 3475 
Q 2822 3834 2567 4026 
Q 2313 4219 1838 4219 
Q 1578 4219 1281 4162 
Q 984 4106 628 3988 
L 628 4550 
Q 988 4650 1302 4700 
Q 1616 4750 1894 4750 
Q 2613 4750 3031 4423 
Q 3450 4097 3450 3541 
Q 3450 3153 3228 2886 
Q 3006 2619 2597 2516 
z
" id="DejaVuSans-33" transform="scale(0.015625)"/>
       </defs>
       <use xlink:href="#DejaVuSans-2212"/>
       <use x="83.789062" xlink:href="#DejaVuSans-33"/>
      </g>
     </g>
    </g>
    <g id="ytick_2">
     <g id="line2d_5">
      <g>
       <use style="stroke:#000000;stroke-width:0.8;" x="42.620312" xlink:href="#mf6246e1d7f" y="108.253846"/>
      </g>
     </g>
     <g id="text_6">
      <!-- −2 -->
      <g transform="translate(20.878125 112.053065)scale(0.1 -0.1)">
       <use xlink:href="#DejaVuSans-2212"/>
       <use x="83.789062" xlink:href="#DejaVuSans-32"/>
      </g>
     </g>
    </g>
    <g id="ytick_3">
     <g id="line2d_6">
      <g>
       <use style="stroke:#000000;stroke-width:0.8;" x="42.620312" xlink:href="#mf6246e1d7f" y="73.407692"/>
      </g>
     </g>
     <g id="text_7">
      <!-- −1 -->
      <g transform="translate(20.878125 77.206911)scale(0.1 -0.1)">
       <use xlink:href="#DejaVuSans-2212"/>
       <use x="83.789062" xlink:href="#DejaVuSans-31"/>
      </g>
     </g>
    </g>
    <g id="ytick_4">
     <g id="line2d_7">
      <g>
       <use style="stroke:#000000;stroke-width:0.8;" x="42.620312" xlink:href="#mf6246e1d7f" y="38.561538"/>
      </g>
     </g>
     <g id="text_8">
      <!-- 0 -->
      <g transform="translate(29.257812 42.360757)scale(0.1 -0.1)">
       <use xlink:href="#DejaVuSans-30"/>
      </g>
     </g>
    </g>
    <g id="text_9">
     <!-- x2 -->
     <g transform="translate(14.798437 81.290625)rotate(-90)scale(0.1 -0.1)">
      <use xlink:href="#DejaVuSans-78"/>
      <use x="59.179688" xlink:href="#DejaVuSans-32"/>
     </g>
    </g>
   </g>
   <g id="LineCollection_1"/>
   <g id="LineCollection_2">
    <path clip-path="url(#pb4d4850b69)" d="M 133.389338 7.2 
L 131.354961 10.684614 
L 131.115628 11.149219 
L 129.618631 14.16923 
L 128.121641 17.653845 
L 128.064069 17.812225 
L 126.898922 21.138461 
L 125.900228 24.623076 
L 125.123465 28.107691 
L 125.012502 28.804598 
L 124.58421 31.592307 
L 124.262994 35.076923 
L 124.155921 38.561539 
L 124.262994 42.046154 
L 124.58421 45.530769 
L 125.012502 48.318478 
L 125.123465 49.015384 
L 125.900228 52.500001 
L 126.898922 55.984615 
L 128.064069 59.310851 
L 128.121641 59.469231 
L 129.618631 62.953845 
L 131.115628 65.973855 
L 131.354961 66.438459 
L 133.389338 69.923076 
L 134.167188 71.115182 
L 135.724107 73.407692 
L 137.218755 75.398907 
L 138.387435 76.892308 
L 140.270314 79.089128 
L 141.423126 80.37692 
L 143.321874 82.328309 
L 144.883135 83.861536 
L 146.373441 85.216671 
L 148.829573 87.346153 
L 149.425 87.826789 
L 152.476564 90.169895 
L 153.383783 90.830769 
L 155.528127 92.292059 
L 158.57969 94.25918 
L 158.672164 94.315385 
L 161.631253 96.004895 
L 164.682813 97.641606 
L 164.998499 97.800001 
L 167.734376 99.094286 
L 170.785939 100.438353 
L 172.861005 101.284618 
L 173.837499 101.66133 
L 176.889062 102.744387 
L 179.940626 103.733262 
L 182.992189 104.627962 
L 183.530712 104.769234 
L 186.04375 105.394675 
L 189.095313 106.064794 
L 192.146877 106.645562 
L 195.198438 107.136982 
L 198.250001 107.539054 
L 201.301564 107.851774 
L 204.353126 108.075148 
L 207.404689 108.20917 
L 210.456251 108.253846 
L 213.507813 108.20917 
L 216.559376 108.075148 
L 219.610939 107.851774 
L 222.662501 107.539054 
L 225.714063 107.136982 
L 228.765626 106.645562 
L 231.817188 106.064794 
L 234.868751 105.394675 
L 237.38179 104.769234 
L 237.920313 104.627962 
" style="fill:none;stroke:#1f77b4;stroke-width:1.5;"/>
   </g>
   <g id="LineCollection_3">
    <path clip-path="url(#pb4d4850b69)" d="M 94.741 7.2 
L 94.496869 7.814946 
L 93.387217 10.684614 
L 92.198295 14.16923 
L 91.44531 16.715693 
L 91.174923 17.653845 
L 90.325119 21.138461 
L 89.629825 24.623076 
L 89.089044 28.107691 
L 88.702769 31.592307 
L 88.471007 35.076923 
L 88.393757 38.561206 
L 88.39375 38.561539 
L 88.393757 38.561871 
L 88.471007 42.046154 
L 88.702769 45.530769 
L 89.089044 49.015384 
L 89.629825 52.500001 
L 90.325119 55.984615 
L 91.174923 59.469231 
L 91.44531 60.407382 
L 92.198295 62.953845 
L 93.387217 66.438459 
L 94.496869 69.30813 
L 94.741 69.923076 
L 96.287127 73.407692 
L 97.548436 75.979666 
L 98.008263 76.892308 
L 99.931161 80.37692 
L 100.599996 81.491996 
L 102.061308 83.861536 
L 103.651563 86.249145 
L 104.403397 87.346153 
L 106.703122 90.470284 
L 106.976403 90.830769 
L 109.754682 94.25917 
L 109.801639 94.315385 
L 112.806249 97.694405 
L 112.903126 97.800001 
L 115.857816 100.836595 
L 116.308047 101.284618 
L 118.909375 103.733262 
L 120.04725 104.769234 
L 121.960942 106.422193 
L 124.155924 108.253846 
L 125.012502 108.93377 
L 128.064069 111.271016 
L 128.697415 111.738466 
L 131.115628 113.440255 
L 133.748347 115.223078 
L 134.167188 115.494103 
L 137.218755 117.391282 
L 139.426266 118.70769 
L 140.270314 119.189606 
L 143.321874 120.857774 
L 145.876677 122.192311 
L 146.373441 122.441211 
L 149.425 123.899059 
L 152.476564 125.285791 
L 153.383788 125.676923 
L 155.528127 126.565159 
L 158.57969 127.760863 
L 161.631253 128.888239 
L 162.418734 129.161535 
L 164.682813 129.917634 
L 167.734376 130.870972 
L 170.785939 131.758564 
L 173.837499 132.580406 
L 174.102859 132.646155 
L 176.889062 133.311398 
L 179.940626 133.976642 
L 182.992189 134.57853 
L 186.04375 135.117062 
L 189.095313 135.592236 
L 192.146877 136.004057 
L 193.256511 136.130768 
L 195.198438 136.344737 
L 198.250001 136.619839 
L 201.301564 136.833805 
L 204.353126 136.986639 
L 207.404689 137.078339 
L 210.456251 137.108907 
L 213.507813 137.078339 
L 216.559376 136.986639 
L 219.610939 136.833805 
L 222.662501 136.619839 
L 225.714063 136.344737 
L 227.655991 136.130768 
L 228.765626 136.004057 
L 231.817188 135.592236 
L 234.868751 135.117062 
L 237.920313 134.57853 
" style="fill:none;stroke:#1f77b4;stroke-width:1.5;"/>
   </g>
   <g id="LineCollection_4">
    <path clip-path="url(#pb4d4850b69)" d="M 66.101283 7.2 
L 65.009145 10.684614 
L 64.045489 14.16923 
L 63.981244 14.437284 
L 63.226219 17.653845 
L 62.534115 21.138461 
L 61.967845 24.623076 
L 61.527415 28.107691 
L 61.21282 31.592307 
L 61.024065 35.076923 
L 60.961145 38.561539 
L 61.024065 42.046154 
L 61.21282 45.530769 
L 61.527415 49.015384 
L 61.967845 52.500001 
L 62.534115 55.984615 
L 63.226219 59.469231 
L 63.981244 62.685792 
L 64.045489 62.953845 
L 65.009145 66.438459 
L 66.101283 69.923076 
L 67.032818 72.582402 
L 67.328125 73.407692 
L 68.706252 76.892308 
L 70.084378 80.073917 
L 70.218509 80.37692 
L 71.895191 83.861536 
L 73.135938 86.249145 
L 73.718821 87.346153 
L 75.70748 90.830769 
L 76.187512 91.617635 
L 77.871125 94.315385 
L 79.239071 96.374484 
L 80.208385 97.800001 
L 82.290631 100.687261 
L 82.731817 101.284618 
L 85.342191 104.627962 
L 85.455214 104.769234 
L 88.39375 108.253846 
L 88.393757 108.253854 
L 91.44531 111.610969 
L 91.564212 111.738466 
L 94.496869 114.736843 
L 94.98513 115.223078 
L 97.548436 117.662305 
L 98.677098 118.70769 
L 100.599996 120.412926 
L 102.66303 122.192311 
L 103.651563 123.010127 
L 106.703122 125.463574 
L 106.976403 125.676923 
L 109.754682 127.760856 
L 111.679511 129.161535 
L 112.806249 129.950509 
L 115.857816 132.021554 
L 116.808306 132.646155 
L 118.909375 133.97664 
L 121.960942 135.845668 
L 122.442758 136.130768 
L 125.012502 137.597976 
L 128.064069 139.279152 
L 128.697416 139.615388 
L 131.115628 140.855672 
L 134.167188 142.361734 
L 135.724104 143.1 
" style="fill:none;stroke:#1f77b4;stroke-width:1.5;"/>
   </g>
   <g id="LineCollection_5">
    <path clip-path="url(#pb4d4850b69)" d="M 42.620312 71.115188 
L 43.320213 73.407692 
L 44.496043 76.892308 
L 45.671872 80.073903 
L 45.785952 80.37692 
L 47.211915 83.861536 
L 48.723432 87.281609 
L 48.7525 87.346153 
L 50.438126 90.830769 
L 51.775006 93.41615 
L 52.249024 94.315385 
L 54.204398 97.800001 
L 54.826565 98.845393 
L 56.307021 101.284618 
L 57.878125 103.733263 
L 58.556253 104.769234 
L 60.929685 108.209162 
L 60.961151 108.253846 
L 63.540821 111.738466 
L 63.981244 112.305719 
L 66.294014 115.223078 
L 67.032818 116.113596 
L 69.231252 118.70769 
L 70.084378 119.671522 
L 72.364666 122.192311 
L 73.135938 123.010127 
L 75.70748 125.676923 
L 76.187512 126.155214 
L 79.239071 129.127391 
L 79.274952 129.161535 
L 82.290631 131.922942 
L 83.09947 132.646155 
L 85.342191 134.578536 
L 87.188189 136.130768 
L 88.393757 137.108915 
L 91.44531 139.52368 
L 91.564212 139.615388 
L 94.496869 141.800646 
L 96.287127 143.1 
" style="fill:none;stroke:#1f77b4;stroke-width:1.5;"/>
   </g>
   <g id="LineCollection_6">
    <path clip-path="url(#pb4d4850b69)" d="M 42.620312 115.494102 
L 44.943982 118.70769 
L 45.671872 119.671517 
L 47.611182 122.192311 
L 48.723432 123.579037 
L 50.438126 125.676923 
L 51.775006 127.248424 
L 53.434101 129.161535 
L 54.826565 130.706605 
L 56.609163 132.646155 
L 57.878125 133.97664 
L 59.974143 136.130768 
L 60.929685 137.078341 
L 63.540815 139.615388 
L 63.981244 140.028815 
L 67.032818 142.834235 
L 67.32812 143.1 
" style="fill:none;stroke:#1f77b4;stroke-width:1.5;"/>
   </g>
   <g id="LineCollection_7">
    <path clip-path="url(#pb4d4850b69)" d="M 42.620312 142.361735 
L 43.320214 143.1 
" style="fill:none;stroke:#1f77b4;stroke-width:1.5;"/>
   </g>
   <g id="LineCollection_8"/>
   <g id="line2d_8">
    <path clip-path="url(#pb4d4850b69)" d="M 57.878125 108.253846 
L 82.63546 82.481869 
L 105.316297 65.144919 
L 127.000799 54.851394 
L 138.718692 43.430251 
L 151.364428 43.304365 
L 165.72833 37.918404 
L 170.974331 34.785002 
L 179.991499 32.492354 
L 186.09276 32.136609 
L 187.466242 30.307207 
L 192.172994 32.248412 
L 194.095532 35.078827 
L 194.824407 37.191058 
L 196.900445 34.66171 
L 199.779462 39.417344 
L 198.630851 43.087235 
L 198.116963 44.617407 
L 198.578568 45.263151 
L 198.686112 49.24908 
L 198.468734 43.895159 
L 198.475737 43.330523 
L 198.840691 42.490929 
L 201.161263 44.119232 
L 203.423513 41.803294 
L 202.734102 42.355488 
L 204.085467 38.440283 
L 203.482596 39.659445 
L 203.474721 39.135344 
L 207.376846 36.957999 
L 206.737583 37.512798 
L 208.53623 37.923442 
L 205.587324 38.583499 
L 209.323886 38.641846 
L 210.854715 39.433656 
L 209.369291 36.643509 
L 211.276384 36.802936 
L 211.797156 36.554385 
L 212.03343 33.751402 
L 211.372604 34.189652 
L 212.483432 33.946886 
L 214.542815 34.007277 
L 214.010718 35.323045 
L 213.913617 35.305406 
L 214.914708 35.266772 
L 214.975551 35.23791 
L 215.81694 38.557073 
L 216.297357 39.280705 
L 215.893932 40.685488 
L 215.187822 39.430536 
L 213.668773 39.507879 
" style="fill:none;stroke:#ff7f0e;stroke-linecap:square;stroke-width:1.5;"/>
    <defs>
     <path d="M 0 3 
C 0.795609 3 1.55874 2.683901 2.12132 2.12132 
C 2.683901 1.55874 3 0.795609 3 0 
C 3 -0.795609 2.683901 -1.55874 2.12132 -2.12132 
C 1.55874 -2.683901 0.795609 -3 0 -3 
C -0.795609 -3 -1.55874 -2.683901 -2.12132 -2.12132 
C -2.683901 -1.55874 -3 -0.795609 -3 0 
C -3 0.795609 -2.683901 1.55874 -2.12132 2.12132 
C -1.55874 2.683901 -0.795609 3 0 3 
z
" id="m59c25c22cb" style="stroke:#ff7f0e;"/>
    </defs>
    <g clip-path="url(#pb4d4850b69)">
     <use style="fill:#ff7f0e;stroke:#ff7f0e;" x="57.878125" xlink:href="#m59c25c22cb" y="108.253846"/>
     <use style="fill:#ff7f0e;stroke:#ff7f0e;" x="82.63546" xlink:href="#m59c25c22cb" y="82.481869"/>
     <use style="fill:#ff7f0e;stroke:#ff7f0e;" x="105.316297" xlink:href="#m59c25c22cb" y="65.144919"/>
     <use style="fill:#ff7f0e;stroke:#ff7f0e;" x="127.000799" xlink:href="#m59c25c22cb" y="54.851394"/>
     <use style="fill:#ff7f0e;stroke:#ff7f0e;" x="138.718692" xlink:href="#m59c25c22cb" y="43.430251"/>
     <use style="fill:#ff7f0e;stroke:#ff7f0e;" x="151.364428" xlink:href="#m59c25c22cb" y="43.304365"/>
     <use style="fill:#ff7f0e;stroke:#ff7f0e;" x="165.72833" xlink:href="#m59c25c22cb" y="37.918404"/>
     <use style="fill:#ff7f0e;stroke:#ff7f0e;" x="170.974331" xlink:href="#m59c25c22cb" y="34.785002"/>
     <use style="fill:#ff7f0e;stroke:#ff7f0e;" x="179.991499" xlink:href="#m59c25c22cb" y="32.492354"/>
     <use style="fill:#ff7f0e;stroke:#ff7f0e;" x="186.09276" xlink:href="#m59c25c22cb" y="32.136609"/>
     <use style="fill:#ff7f0e;stroke:#ff7f0e;" x="187.466242" xlink:href="#m59c25c22cb" y="30.307207"/>
     <use style="fill:#ff7f0e;stroke:#ff7f0e;" x="192.172994" xlink:href="#m59c25c22cb" y="32.248412"/>
     <use style="fill:#ff7f0e;stroke:#ff7f0e;" x="194.095532" xlink:href="#m59c25c22cb" y="35.078827"/>
     <use style="fill:#ff7f0e;stroke:#ff7f0e;" x="194.824407" xlink:href="#m59c25c22cb" y="37.191058"/>
     <use style="fill:#ff7f0e;stroke:#ff7f0e;" x="196.900445" xlink:href="#m59c25c22cb" y="34.66171"/>
     <use style="fill:#ff7f0e;stroke:#ff7f0e;" x="199.779462" xlink:href="#m59c25c22cb" y="39.417344"/>
     <use style="fill:#ff7f0e;stroke:#ff7f0e;" x="198.630851" xlink:href="#m59c25c22cb" y="43.087235"/>
     <use style="fill:#ff7f0e;stroke:#ff7f0e;" x="198.116963" xlink:href="#m59c25c22cb" y="44.617407"/>
     <use style="fill:#ff7f0e;stroke:#ff7f0e;" x="198.578568" xlink:href="#m59c25c22cb" y="45.263151"/>
     <use style="fill:#ff7f0e;stroke:#ff7f0e;" x="198.686112" xlink:href="#m59c25c22cb" y="49.24908"/>
     <use style="fill:#ff7f0e;stroke:#ff7f0e;" x="198.468734" xlink:href="#m59c25c22cb" y="43.895159"/>
     <use style="fill:#ff7f0e;stroke:#ff7f0e;" x="198.475737" xlink:href="#m59c25c22cb" y="43.330523"/>
     <use style="fill:#ff7f0e;stroke:#ff7f0e;" x="198.840691" xlink:href="#m59c25c22cb" y="42.490929"/>
     <use style="fill:#ff7f0e;stroke:#ff7f0e;" x="201.161263" xlink:href="#m59c25c22cb" y="44.119232"/>
     <use style="fill:#ff7f0e;stroke:#ff7f0e;" x="203.423513" xlink:href="#m59c25c22cb" y="41.803294"/>
     <use style="fill:#ff7f0e;stroke:#ff7f0e;" x="202.734102" xlink:href="#m59c25c22cb" y="42.355488"/>
     <use style="fill:#ff7f0e;stroke:#ff7f0e;" x="204.085467" xlink:href="#m59c25c22cb" y="38.440283"/>
     <use style="fill:#ff7f0e;stroke:#ff7f0e;" x="203.482596" xlink:href="#m59c25c22cb" y="39.659445"/>
     <use style="fill:#ff7f0e;stroke:#ff7f0e;" x="203.474721" xlink:href="#m59c25c22cb" y="39.135344"/>
     <use style="fill:#ff7f0e;stroke:#ff7f0e;" x="207.376846" xlink:href="#m59c25c22cb" y="36.957999"/>
     <use style="fill:#ff7f0e;stroke:#ff7f0e;" x="206.737583" xlink:href="#m59c25c22cb" y="37.512798"/>
     <use style="fill:#ff7f0e;stroke:#ff7f0e;" x="208.53623" xlink:href="#m59c25c22cb" y="37.923442"/>
     <use style="fill:#ff7f0e;stroke:#ff7f0e;" x="205.587324" xlink:href="#m59c25c22cb" y="38.583499"/>
     <use style="fill:#ff7f0e;stroke:#ff7f0e;" x="209.323886" xlink:href="#m59c25c22cb" y="38.641846"/>
     <use style="fill:#ff7f0e;stroke:#ff7f0e;" x="210.854715" xlink:href="#m59c25c22cb" y="39.433656"/>
     <use style="fill:#ff7f0e;stroke:#ff7f0e;" x="209.369291" xlink:href="#m59c25c22cb" y="36.643509"/>
     <use style="fill:#ff7f0e;stroke:#ff7f0e;" x="211.276384" xlink:href="#m59c25c22cb" y="36.802936"/>
     <use style="fill:#ff7f0e;stroke:#ff7f0e;" x="211.797156" xlink:href="#m59c25c22cb" y="36.554385"/>
     <use style="fill:#ff7f0e;stroke:#ff7f0e;" x="212.03343" xlink:href="#m59c25c22cb" y="33.751402"/>
     <use style="fill:#ff7f0e;stroke:#ff7f0e;" x="211.372604" xlink:href="#m59c25c22cb" y="34.189652"/>
     <use style="fill:#ff7f0e;stroke:#ff7f0e;" x="212.483432" xlink:href="#m59c25c22cb" y="33.946886"/>
     <use style="fill:#ff7f0e;stroke:#ff7f0e;" x="214.542815" xlink:href="#m59c25c22cb" y="34.007277"/>
     <use style="fill:#ff7f0e;stroke:#ff7f0e;" x="214.010718" xlink:href="#m59c25c22cb" y="35.323045"/>
     <use style="fill:#ff7f0e;stroke:#ff7f0e;" x="213.913617" xlink:href="#m59c25c22cb" y="35.305406"/>
     <use style="fill:#ff7f0e;stroke:#ff7f0e;" x="214.914708" xlink:href="#m59c25c22cb" y="35.266772"/>
     <use style="fill:#ff7f0e;stroke:#ff7f0e;" x="214.975551" xlink:href="#m59c25c22cb" y="35.23791"/>
     <use style="fill:#ff7f0e;stroke:#ff7f0e;" x="215.81694" xlink:href="#m59c25c22cb" y="38.557073"/>
     <use style="fill:#ff7f0e;stroke:#ff7f0e;" x="216.297357" xlink:href="#m59c25c22cb" y="39.280705"/>
     <use style="fill:#ff7f0e;stroke:#ff7f0e;" x="215.893932" xlink:href="#m59c25c22cb" y="40.685488"/>
     <use style="fill:#ff7f0e;stroke:#ff7f0e;" x="215.187822" xlink:href="#m59c25c22cb" y="39.430536"/>
     <use style="fill:#ff7f0e;stroke:#ff7f0e;" x="213.668773" xlink:href="#m59c25c22cb" y="39.507879"/>
    </g>
   </g>
   <g id="patch_3">
    <path d="M 42.620312 143.1 
L 42.620312 7.2 
" style="fill:none;stroke:#000000;stroke-linecap:square;stroke-linejoin:miter;stroke-width:0.8;"/>
   </g>
   <g id="patch_4">
    <path d="M 237.920313 143.1 
L 237.920313 7.2 
" style="fill:none;stroke:#000000;stroke-linecap:square;stroke-linejoin:miter;stroke-width:0.8;"/>
   </g>
   <g id="patch_5">
    <path d="M 42.620312 143.1 
L 237.920313 143.1 
" style="fill:none;stroke:#000000;stroke-linecap:square;stroke-linejoin:miter;stroke-width:0.8;"/>
   </g>
   <g id="patch_6">
    <path d="M 42.620312 7.2 
L 237.920313 7.2 
" style="fill:none;stroke:#000000;stroke-linecap:square;stroke-linejoin:miter;stroke-width:0.8;"/>
   </g>
  </g>
 </g>
 <defs>
  <clipPath id="pb4d4850b69">
   <rect height="135.9" width="195.3" x="42.620312" y="7.2"/>
  </clipPath>
 </defs>
</svg>
